<svg width="29" height="33" viewBox="0 0 29 33" fill="none" xmlns="http://www.w3.org/2000/svg">
<path opacity="0.3" d="M15.064 32.9984C22.7606 32.9984 29 26.4964 29 18.4757C29 10.4551 22.7606 3.95303 15.064 3.95303C7.36733 3.95303 1.12795 10.4551 1.12795 18.4757C1.12795 26.4964 7.36733 32.9984 15.064 32.9984Z" fill="#6C63FF"/>
<path d="M9.34084 0L0.0618591 11.7323L13.7947 28.6219L22.9499 17.4052L9.34084 0Z" fill="#6C63FF"/>
<path opacity="0.1" d="M9.34084 0L0.0618591 11.7323L13.7947 28.6219L22.9499 17.4052L9.34084 0Z" fill="black"/>
<path d="M0.433006 11.8613C0.638253 11.4763 0.892767 11.1222 1.18956 10.8086L9.71197 1.80496C9.71197 1.80496 12.6812 1.28925 13.2998 2.83638L2.41252 12.1192L0.433006 11.8613Z" fill="#F2F2F2"/>
<path d="M0 11.6679L12.6194 31.7806C12.6194 31.7806 13.8566 32.6831 15.0938 32.1674L28.0225 23.078L14.2896 1.41817L1.91765 11.4745L0 11.6679Z" fill="#6C63FF"/>
<path d="M12.7468 4.55699L4.8281 10.4868L4.9451 10.6564L12.8638 4.72667L12.7468 4.55699Z" fill="#3F3D56"/>
<path d="M4.72311 12.7062L4.55587 12.8214L14.9483 29.1953L15.1156 29.08L4.72311 12.7062Z" fill="#3F3D56"/>
<path d="M24.6216 23.1215L16.2106 29.5705L16.3295 29.7388L24.7405 23.2899L24.6216 23.1215Z" fill="#3F3D56"/>
<path d="M14.2482 4.83958L14.0837 4.95891L24.8473 21.0748L25.0118 20.9555L14.2482 4.83958Z" fill="#3F3D56"/>
<path d="M10.9234 1.67717L1.13352 11.0403L1.21713 11.1352L11.007 1.7721L10.9234 1.67717Z" fill="#3F3D56"/>
<path d="M11.7389 1.75742L1.50724 11.1703L1.58916 11.267L11.8209 1.85412L11.7389 1.75742Z" fill="#3F3D56"/>
<path d="M12.379 1.94502L1.75754 11.1712L1.83679 11.2703L12.4583 2.0441L12.379 1.94502Z" fill="#3F3D56"/>
</svg>
