<svg width="419" height="309" viewBox="0 0 419 309" fill="none" xmlns="http://www.w3.org/2000/svg">
<g clip-path="url(#clip0)">
<path d="M419 114.418H242.879V119.589H419V114.418Z" fill="#E6E6E6"/>
<path d="M302.056 71.1693H257.438V115.829H302.056V71.1693Z" fill="#E6E6E6"/>
<path d="M293.132 80.1012H266.362V106.897H293.132V80.1012Z" fill="#CCCCCC"/>
<path d="M368.747 71.1693H357.475V115.829H368.747V71.1693Z" fill="#E6E6E6"/>
<path d="M368.747 78.2208H357.475V83.3919H368.747V78.2208Z" fill="#CCCCCC"/>
<path d="M368.747 100.785H357.475V105.957H368.747V100.785Z" fill="#CCCCCC"/>
<path d="M351.369 71.1693H340.098V115.829H351.369V71.1693Z" fill="#E6E6E6"/>
<path d="M351.369 78.2208H340.098V83.3919H351.369V78.2208Z" fill="#CCCCCC"/>
<path d="M351.369 100.785H340.098V105.957H351.369V100.785Z" fill="#CCCCCC"/>
<path d="M378.459 70.9847L368.357 75.9906L388.153 116.013L398.255 111.007L378.459 70.9847Z" fill="#E6E6E6"/>
<path d="M381.584 77.3041L371.483 82.3099L373.775 86.9441L383.877 81.9383L381.584 77.3041Z" fill="#CCCCCC"/>
<path d="M391.587 97.5261L381.485 102.532L383.778 107.166L393.879 102.16L391.587 97.5261Z" fill="#CCCCCC"/>
<path d="M274.111 89.0956L279.788 98.9364L285.464 108.777H274.111H262.759L268.435 98.9364L274.111 89.0956Z" fill="#E6E6E6"/>
<path d="M283.974 90.976L289.65 100.817L295.327 110.658H283.974H272.621L278.298 100.817L283.974 90.976Z" fill="#E6E6E6"/>
<path d="M287.966 88.0928C289.781 88.0928 291.253 86.6195 291.253 84.8021C291.253 82.9848 289.781 81.5115 287.966 81.5115C286.15 81.5115 284.678 82.9848 284.678 84.8021C284.678 86.6195 286.15 88.0928 287.966 88.0928Z" fill="#E6E6E6"/>
<path d="M242.879 48.6047L419 48.6047V43.4336L242.879 43.4336V48.6047Z" fill="#E6E6E6"/>
<path d="M359.823 44.8439L404.441 44.8439V0.184669L359.823 0.184669V44.8439Z" fill="#E6E6E6"/>
<path d="M368.747 35.9121H395.517V9.11652L368.747 9.11652V35.9121Z" fill="#CCCCCC"/>
<path d="M293.132 44.8439H304.404V0.184669H293.132V44.8439Z" fill="#E6E6E6"/>
<path d="M293.132 12.4072L304.404 12.4072V7.23613L293.132 7.23613V12.4072Z" fill="#CCCCCC"/>
<path d="M293.132 34.9719H304.404V29.8008H293.132V34.9719Z" fill="#CCCCCC"/>
<path d="M310.509 44.8439H321.781V0.184669H310.509V44.8439Z" fill="#E6E6E6"/>
<path d="M310.509 12.4072L321.781 12.4072V7.23613L310.509 7.23613V12.4072Z" fill="#CCCCCC"/>
<path d="M310.509 34.9719H321.781V29.8008H310.509V34.9719Z" fill="#CCCCCC"/>
<path d="M263.624 40.0227L273.725 45.0286L293.522 5.00589L283.42 3.2691e-05L263.624 40.0227Z" fill="#E6E6E6"/>
<path d="M278.002 10.9536L288.104 15.9595L290.396 11.3252L280.294 6.31939L278.002 10.9536Z" fill="#CCCCCC"/>
<path d="M268 31.1756L278.101 36.1815L280.394 31.5472L270.292 26.5414L268 31.1756Z" fill="#CCCCCC"/>
<path d="M387.768 18.1107L382.092 27.9515L376.416 37.7922H387.768H399.121L393.444 27.9515L387.768 18.1107Z" fill="#E6E6E6"/>
<path d="M377.905 19.9911L372.229 29.8319L366.553 39.6726H377.905H389.258L383.582 29.8319L377.905 19.9911Z" fill="#E6E6E6"/>
<path d="M373.913 17.1082C375.729 17.1082 377.201 15.6349 377.201 13.8175C377.201 12.0001 375.729 10.5268 373.913 10.5268C372.097 10.5268 370.625 12.0001 370.625 13.8175C370.625 15.6349 372.097 17.1082 373.913 17.1082Z" fill="#E6E6E6"/>
<path d="M242.879 190.574L419 190.574V185.403L242.879 185.403V190.574Z" fill="#E6E6E6"/>
<path d="M359.823 186.813H404.441V142.154H359.823V186.813Z" fill="#E6E6E6"/>
<path d="M368.747 177.881H395.517V151.086H368.747V177.881Z" fill="#CCCCCC"/>
<path d="M293.132 186.813H304.404V142.154H293.132V186.813Z" fill="#E6E6E6"/>
<path d="M293.132 154.377H304.404V149.205H293.132V154.377Z" fill="#CCCCCC"/>
<path d="M293.132 176.941H304.404V171.77H293.132V176.941Z" fill="#CCCCCC"/>
<path d="M310.509 186.813H321.781V142.154H310.509V186.813Z" fill="#E6E6E6"/>
<path d="M310.509 154.377H321.781V149.205H310.509V154.377Z" fill="#CCCCCC"/>
<path d="M310.509 176.941H321.781V171.77H310.509V176.941Z" fill="#CCCCCC"/>
<path d="M263.624 181.992L273.725 186.998L293.522 146.975L283.42 141.969L263.624 181.992Z" fill="#E6E6E6"/>
<path d="M278.002 152.923L288.104 157.929L290.396 153.295L280.294 148.289L278.002 152.923Z" fill="#CCCCCC"/>
<path d="M268 173.145L278.101 178.151L280.394 173.517L270.292 168.511L268 173.145Z" fill="#CCCCCC"/>
<path d="M387.768 160.08L382.092 169.921L376.416 179.762H387.768H399.121L393.444 169.921L387.768 160.08Z" fill="#E6E6E6"/>
<path d="M377.905 161.96L372.229 171.801L366.553 181.642H377.905H389.258L383.582 171.801L377.905 161.96Z" fill="#E6E6E6"/>
<path d="M373.913 159.078C375.729 159.078 377.201 157.604 377.201 155.787C377.201 153.969 375.729 152.496 373.913 152.496C372.097 152.496 370.625 153.969 370.625 155.787C370.625 157.604 372.097 159.078 373.913 159.078Z" fill="#E6E6E6"/>
<path d="M207.471 309C322.054 309 414.942 302.397 414.942 294.251C414.942 286.105 322.054 279.502 207.471 279.502C92.8879 279.502 0 286.105 0 294.251C0 302.397 92.8879 309 207.471 309Z" fill="#E6E6E6"/>
<path d="M369.557 302.51C335.728 296.484 298.733 297.486 259.928 302.51C277.615 287.565 292.88 272.619 275.193 257.674C309.693 264.798 314.526 264.077 352.905 257.674C344.003 272.619 360.656 287.565 369.557 302.51Z" fill="#6C63FF"/>
<path opacity="0.2" d="M369.557 302.51C335.728 296.484 298.733 297.486 259.928 302.51C277.615 287.565 292.88 272.619 275.193 257.674C309.693 264.798 314.526 264.077 352.905 257.674C344.003 272.619 360.656 287.565 369.557 302.51Z" fill="black"/>
<path d="M361.306 296.134C332.569 291.323 301.144 292.123 268.18 296.134C283.204 284.204 296.171 272.274 281.147 260.344C310.454 266.031 314.559 265.456 347.16 260.344C339.598 272.274 353.744 284.204 361.306 296.134Z" fill="#6C63FF"/>
<path d="M350.36 276.912C358.817 276.912 365.672 270.05 365.672 261.586C365.672 253.122 358.817 246.26 350.36 246.26C341.904 246.26 335.048 253.122 335.048 261.586C335.048 270.05 341.904 276.912 350.36 276.912Z" fill="#2F2E41"/>
<path d="M280.852 243.809L291.461 245.579L296.766 260.918L281.441 270.358L263.759 243.809H280.262H280.852Z" fill="#A0616A"/>
<path d="M310.912 267.408C324.583 267.408 335.667 256.314 335.667 242.63C335.667 228.945 324.583 217.851 310.912 217.851C297.24 217.851 286.156 228.945 286.156 242.63C286.156 256.314 297.24 267.408 310.912 267.408Z" fill="#A0616A"/>
<path d="M174.169 152.366C174.169 152.366 114.05 158.855 103.441 157.675C92.8315 156.496 88.1162 155.316 88.1162 155.316C88.1162 155.316 81.0434 164.755 84.5798 168.885C86.5604 171.264 88.957 173.263 91.6527 174.784C91.6527 174.784 98.1361 173.014 102.851 174.784C107.567 176.554 155.309 184.224 163.56 177.144C171.812 170.065 174.169 152.366 174.169 152.366Z" fill="#2F2E41"/>
<path d="M178.295 283.927C178.295 283.927 138.805 272.717 131.732 223.161V218.441C131.732 218.441 123.919 232.162 121.123 234.96C117.881 238.205 106.388 267.408 106.977 270.358C107.567 273.307 106.977 274.487 106.977 274.487L89.8844 272.718V267.408C89.8844 267.408 99.0202 239.975 99.6096 233.485C100.199 226.996 122.302 181.864 122.302 181.864C122.302 181.864 130.553 164.755 144.699 181.864C158.845 198.973 160.024 210.772 160.024 210.772L178.295 246.169L178.295 283.927Z" fill="#2F2E41"/>
<path d="M89.8844 153.546L71.0234 147.056C71.0234 147.056 53.3412 134.077 57.4671 147.056C61.5929 160.035 80.4539 188.353 85.7586 185.404C91.0632 182.454 97.4429 175.132 96.0213 174.073C94.5997 173.014 85.1692 165.345 89.8844 153.546Z" fill="#2F2E41"/>
<path d="M92.1642 263.925L76.9387 271.368C76.9387 271.368 58.5265 274.203 68.7949 279.519C79.0632 284.835 107.39 290.506 108.806 285.544C110.222 280.582 109.66 272.348 108.171 272.566C106.682 272.785 96.4132 273.848 92.1642 263.925Z" fill="#2F2E41"/>
<path d="M170.633 244.989C170.633 244.989 162.971 278.027 175.938 285.107C188.905 292.186 279.673 293.366 286.746 280.387C293.819 267.408 290.282 267.408 290.282 267.408L271.421 246.169L286.746 244.989C286.746 244.989 286.746 240.27 281.441 239.68C276.137 239.09 259.633 233.19 245.488 237.32C231.342 241.45 223.09 229.061 223.09 229.061L170.633 244.989Z" fill="#575A89"/>
<path d="M160.613 141.746L150.593 196.613L219.554 188.354L231.931 138.797L160.613 141.746Z" fill="#3F3D56"/>
<path d="M162.676 143.811L154.425 192.778L217.196 185.404L229.279 140.862L162.676 143.811Z" fill="white"/>
<path d="M152.951 197.203L150.593 196.613L149.414 198.972L168.276 251.479L170.049 250.8L170.633 247.35L152.951 197.203Z" fill="#B3B3B3"/>
<path d="M150.593 196.023L169.454 250.889L240.772 240.27L219.554 188.354L150.593 196.023Z" fill="#D0CDE1"/>
<path d="M160.024 194.253V197.203L212.481 191.303L211.891 188.354L160.024 194.253Z" fill="#3F3D56"/>
<path d="M161.203 200.153L169.454 223.161L223.09 216.672L213.66 194.843L161.203 200.153Z" fill="#3F3D56"/>
<path d="M228.395 232.6L226.627 227.881C226.627 227.881 213.07 204.282 205.997 209.002C198.924 213.722 220.732 236.73 220.732 236.73H227.805L228.395 232.6Z" fill="#A0616A"/>
<path d="M183.6 236.14L181.832 229.061C181.832 229.061 177.116 207.232 185.368 208.412C193.62 209.592 195.977 230.24 195.977 230.24L195.388 234.96L183.6 236.14Z" fill="#A0616A"/>
<path d="M197.746 233.19C197.746 233.19 182.421 230.83 181.832 234.37C181.242 237.91 178.295 291.006 193.03 292.776C207.766 294.546 280.852 302.215 273.19 283.927C265.527 265.638 253.739 267.998 253.739 267.998L203.64 273.307L197.746 233.19Z" fill="#575A89"/>
<path d="M244.014 239.975L228.395 229.061L218.08 237.025L231.047 251.184L244.014 239.975Z" fill="#575A89"/>
<path opacity="0.2" d="M202.166 250.594L204.524 273.013L245.193 270.653L209.828 270.063L202.166 250.594Z" fill="black"/>
<path d="M323.131 276.63C339.407 276.63 352.602 263.423 352.602 247.132C352.602 230.841 339.407 217.634 323.131 217.634C306.855 217.634 293.661 230.841 293.661 247.132C293.661 263.423 306.855 276.63 323.131 276.63Z" fill="#2F2E41"/>
<path d="M171.517 160.92L208.06 159.647L211.597 146.171L173.875 147.311L171.517 160.92Z" fill="#6C63FF"/>
<path d="M162.087 168.59L217.491 166.82L218.08 164.46L162.676 166.412L162.087 168.59Z" fill="#E6E6E6"/>
<path d="M160.908 174.489L216.312 172.719L216.901 170.359L161.497 172.312L160.908 174.489Z" fill="#E6E6E6"/>
<path d="M160.318 179.209L215.722 177.439L216.312 175.079L160.908 177.031L160.318 179.209Z" fill="#E6E6E6"/>
</g>
<defs>
<clipPath id="clip0">
<rect width="419" height="309" fill="white"/>
</clipPath>
</defs>
</svg>
