<svg width="389" height="336" viewBox="0 0 389 336" fill="none" xmlns="http://www.w3.org/2000/svg">
<g clip-path="url(#clip0)">
<path opacity="0.1" d="M228.135 56.7823C203.521 55.8526 180.075 47.2208 157.689 37.775C135.304 28.3292 113.132 17.8628 89.1075 12.8589C73.6553 9.64002 55.9822 9.1855 43.5345 18.1851C31.5508 26.8623 27.6792 41.7996 25.5989 55.675C24.032 66.1125 23.1117 77.0954 27.4054 86.8676C30.3833 93.6524 35.6734 99.3546 39.3282 105.875C52.0573 128.485 43.0629 156.368 29.2689 178.446C22.8036 188.805 15.2924 198.693 10.3027 209.709C5.31298 220.725 3.00068 233.365 7.36668 244.612C11.6984 255.768 22.0164 264.132 33.19 270.02C55.8909 281.982 82.6307 285.403 108.724 287.341C166.467 291.634 224.514 289.775 282.409 287.916C303.836 287.226 325.354 286.527 346.431 282.928C358.138 280.928 370.22 277.759 378.72 270.098C389.506 260.376 392.179 243.91 384.953 231.72C372.825 211.271 339.316 206.192 330.827 184.243C326.165 172.165 330.957 158.711 337.734 147.505C352.277 123.473 376.651 102.388 377.937 74.9178C378.819 56.0468 367.098 37.1552 348.98 28.2259C329.991 18.8338 303.65 20.0238 289.647 35.5148C275.218 51.4768 249.866 57.6005 228.135 56.7823Z" fill="#6C63FF"/>
<path d="M165.608 285.317L35.4338 284.626L22.4994 251.665L68.2359 248.058L60.2645 211.919L150.726 199.18L64.1019 166.463L71.7538 164.488L211.044 189.177L203.373 245.575L192.408 276.569L165.608 285.317Z" fill="#6C63FF"/>
<path d="M37.4305 270.821C37.4305 270.821 45.4171 269.433 50.209 275.565C50.209 275.565 46.6949 278.573 39.1343 274.408L37.4305 270.821Z" fill="#6C63FF"/>
<path d="M36.5938 270.685C36.5938 270.685 31.4976 277.499 34.0076 285.085C34.0076 285.085 38.1607 283.279 38.6132 274.082L36.5938 270.685Z" fill="#6C63FF"/>
<path d="M32.0148 259.483C32.0148 259.483 35.2094 253.116 47.988 262.028C47.988 262.028 46.2842 266.309 40.6403 265.962C34.9965 265.615 33.5056 262.838 32.0148 259.483Z" fill="#6C63FF"/>
<path d="M31.1895 259.024C31.1895 259.024 24.5607 258.198 23.9179 274.685C23.9179 274.685 28.1204 275.631 31.1059 270.416C34.0913 265.202 32.8667 262.276 31.1895 259.024Z" fill="#6C63FF"/>
<path d="M27.3293 245.872C27.3293 245.872 31.0564 234.65 44.5804 242.633C44.5804 242.633 41.4922 252.93 28.7137 249.69L27.3293 245.872Z" fill="#6C63FF"/>
<path d="M23.1763 229.096C23.1763 229.096 30.2045 217.758 42.6636 228.27C42.6636 228.27 38.2976 238.914 24.2412 233.129L23.1763 229.096Z" fill="#6C63FF"/>
<path d="M21.6855 213.13C21.6855 213.13 29.885 202.713 42.2224 213.13C42.2224 213.13 34.4488 222.27 21.6855 215.791V213.13Z" fill="#6C63FF"/>
<path d="M20.4076 197.623C20.4076 197.623 28.7137 186.747 40.5338 197.044C40.5338 197.044 31.1629 206.647 20.4076 200.168V197.623Z" fill="#6C63FF"/>
<path d="M21.153 183.855C21.153 183.855 29.9003 169.855 40.9598 179.342C40.9598 179.342 31.5889 191.375 21.153 186.516V183.855Z" fill="#6C63FF"/>
<path d="M23.1763 167.773C23.1763 167.773 32.4408 153.889 43.196 164.533C43.196 164.533 32.2278 176.566 23.1763 170.318V167.773Z" fill="#6C63FF"/>
<path d="M26.2645 153.397C26.2645 153.397 37.2327 140.348 46.8014 145.547C46.8014 145.547 35.373 159.405 25.7853 156.86L26.2645 153.397Z" fill="#6C63FF"/>
<path d="M30.098 139.77C30.098 139.77 42.7548 123.787 50.1177 129.126C50.1177 129.126 40.7924 141.522 29.2005 142.762L30.098 139.77Z" fill="#6C63FF"/>
<path d="M35.6316 123.965C35.6316 123.965 46.7101 110.916 54.8032 114.156C54.8032 114.156 45.3258 127.692 34.1446 128.039L35.6316 123.965Z" fill="#6C63FF"/>
<path d="M40.6403 109.181C40.6403 109.181 52.8864 96.6853 58.2108 98.8836C58.2108 98.8836 49.3723 112.767 40.1079 111.957L40.6403 109.181Z" fill="#6C63FF"/>
<path d="M45.5388 95.5284C45.5388 95.5284 56.081 80.5993 61.8352 81.7563C61.8352 81.7563 55.4421 95.0656 45.5388 97.0448V95.5284Z" fill="#6C63FF"/>
<path d="M50.8555 77.1202C50.8555 77.1202 60.1732 65.6786 65.2086 65.7034C65.2086 65.7034 57.8533 80.9919 50.4714 80.8514L50.8555 77.1202Z" fill="#6C63FF"/>
<path d="M54.0045 64.8646L63.0066 41.031C63.0066 41.031 63.4553 62.5754 52.8598 69.2859L54.0045 64.8646Z" fill="#6C63FF"/>
<path d="M57.6594 38.5807C57.6594 38.5807 59.1502 18.6768 58.1918 17.057C58.1918 17.057 64.6267 33.6058 57.5985 47.3737L57.6594 38.5807Z" fill="#6C63FF"/>
<path d="M26.9794 245.608C26.9794 245.608 17.6465 239.323 11.6034 254.698C11.6034 254.698 19.9094 260.69 28.0785 249.529L26.9794 245.608Z" fill="#6C63FF"/>
<path d="M22.8759 228.456C22.8759 228.456 11.4284 222.782 5.87585 238.835C5.87585 238.835 14.7181 245.447 23.9179 232.513L22.8759 228.456Z" fill="#6C63FF"/>
<path d="M21.1531 214.085C21.1531 214.085 12.9535 203.668 0.616119 214.085C0.616119 214.085 8.38973 223.225 21.1531 216.746V214.085Z" fill="#6C63FF"/>
<path d="M20.1262 197.623C20.1262 197.623 11.8201 186.747 0 197.044C0 197.044 9.37093 206.647 20.1262 200.168V197.623Z" fill="#6C63FF"/>
<path d="M21.153 184.251C21.153 184.251 15.3266 168.57 2.6622 175.314C2.6622 175.314 9.50784 189.218 20.6358 186.854L21.153 184.251Z" fill="#6C63FF"/>
<path d="M23.9103 167.694C23.9103 167.694 18.1182 151.74 5.27496 159.137C5.27496 159.137 13.1398 173.76 23.3399 170.157L23.9103 167.694Z" fill="#6C63FF"/>
<path d="M27.5005 153.476C27.5005 153.476 25.2186 135.985 14.5698 134.419C14.5698 134.419 16.8289 152.864 26.0667 156.629L27.5005 153.476Z" fill="#6C63FF"/>
<path d="M30.3681 139.803C30.3681 139.803 29.4781 118.73 20.6739 117.994C20.6739 117.994 20.9705 133.989 29.3754 142.786L30.3681 139.803Z" fill="#6C63FF"/>
<path d="M36.5443 123.374C36.5443 123.374 33.9202 105.85 25.5152 103.71C25.5152 103.71 26.5573 120.68 35.7114 127.676L36.5443 123.374Z" fill="#6C63FF"/>
<path d="M41.6367 109.325C41.6367 109.325 41.5493 91.0699 36.415 88.3882C36.415 88.3882 33.2318 104.916 40.1497 111.656L41.6367 109.325Z" fill="#6C63FF"/>
<path d="M45.9305 95.3218C45.9305 95.3218 45.2117 76.5252 39.8949 73.8765C39.8949 73.8765 38.077 88.7518 45.1356 96.5531L45.9305 95.3218Z" fill="#6C63FF"/>
<path d="M51.5972 78.6201C51.5972 78.6201 51.5667 63.3316 47.7712 59.745C47.7712 59.745 43.9985 76.4921 49.6157 81.6943L51.5972 78.6201Z" fill="#6C63FF"/>
<path d="M53.5596 64.1126L49.8667 38.6675C49.8667 38.6675 44.8504 59.5177 53.7345 68.7074L53.5596 64.1126Z" fill="#6C63FF"/>
<path d="M54.2784 38.8204C54.2784 38.8204 44.801 21.7138 44.9949 19.8131C44.9949 19.8131 46.0027 37.7419 57.9256 46.6713L54.2784 38.8204Z" fill="#6C63FF"/>
<path d="M55.3889 33.7669C55.3889 33.7669 46.4439 9.47061 42.3974 7.50376C42.3974 7.50376 55.1759 14.5613 56.1343 33.0728L55.3889 33.7669Z" fill="#6C63FF"/>
<path d="M50.4258 80.996L49.8135 80.7936C57.3627 54.0469 59.2452 36.9941 55.1188 32.7174L55.5562 32.2133C59.9336 36.7255 58.1576 53.5924 50.4258 80.996Z" fill="#444053"/>
<path d="M29.6378 143.621L28.7327 143.27C29.5352 140.82 30.3985 138.332 31.3036 135.882C39.1837 114.544 45.8925 94.6937 50.1938 79.4548L50.9811 79.0416C46.6721 94.3094 40.0813 114.92 32.1935 136.287C31.2922 138.692 30.4327 141.167 29.6378 143.621Z" fill="#444053"/>
<path d="M48.6839 290.837C48.5622 290.692 36.3275 275.722 27.7971 250.165C22.7988 235.203 20.0171 219.474 19.5557 203.564C18.97 183.677 22.8112 161.471 29.3906 141.299L30.1056 142.208C15.3342 187.483 21.2025 226.278 28.9875 249.641C37.4266 274.966 49.5244 289.771 49.6423 289.92L48.6839 290.837Z" fill="#444053"/>
<path d="M239.875 259.053C239.875 259.053 231.253 270.487 238.099 287.771L169.262 320.207L162.656 321.711L159.614 307.249L161.649 288.998V279.023L239.875 259.053Z" fill="#D5D6DB"/>
<path d="M22.4994 251.665L117.776 232.794L244.021 254.645L165.608 285.317L22.4994 251.665Z" fill="#6C63FF"/>
<path d="M22.4994 251.665L117.776 232.794L244.021 254.645L165.608 285.317L22.4994 251.665Z" fill="#6C63FF"/>
<path d="M22.4993 251.661C22.4993 251.661 13.5886 270.003 23.8571 286.945L165.144 320.207C165.144 320.207 156.374 305.597 165.596 285.317L22.4993 251.661Z" fill="#6C63FF"/>
<path opacity="0.1" d="M22.4993 251.661C22.4993 251.661 13.5886 270.003 23.8571 286.945L165.144 320.207C165.144 320.207 156.374 305.597 165.596 285.317L22.4993 251.661Z" fill="black"/>
<path opacity="0.1" d="M26.7094 258.02C26.7094 258.02 21.617 271.441 26.7094 280.127V258.02Z" fill="black"/>
<path d="M165.144 320.207L244.021 283.639C244.021 283.639 248.432 284.672 245.58 288.184C242.728 291.696 166.665 323.72 166.665 323.72L23.8571 286.945L165.144 320.207Z" fill="#6C63FF"/>
<path opacity="0.1" d="M165.144 320.207L244.021 283.639C244.021 283.639 248.432 284.672 245.58 288.184C242.728 291.696 166.665 323.72 166.665 323.72L23.8571 286.945L165.144 320.207Z" fill="black"/>
<path opacity="0.1" d="M158.678 289.011C158.678 289.011 151.072 298.927 158.678 313.803V289.011Z" fill="black"/>
<path opacity="0.1" d="M195.503 288.843L161.385 301.21L161.506 301.602L195.623 289.235L195.503 288.843Z" fill="black"/>
<path opacity="0.1" d="M202.337 287.612L161.375 304.536L161.51 304.922L202.472 287.998L202.337 287.612Z" fill="black"/>
<path opacity="0.1" d="M208.612 287.553L161.603 308.458L161.747 308.841L208.756 287.935L208.612 287.553Z" fill="black"/>
<path opacity="0.1" d="M215.437 285.763L162.152 311.915L162.308 312.291L215.593 286.139L215.437 285.763Z" fill="black"/>
<path opacity="0.1" d="M221.17 285.771L162.574 313.599L162.726 313.977L221.323 286.15L221.17 285.771Z" fill="black"/>
<path opacity="0.1" d="M233.711 283.457L163.457 316.425L163.608 316.804L233.862 283.837L233.711 283.457Z" fill="black"/>
<path opacity="0.3" d="M57.8951 253.682L124.83 238.393L165.608 246.864L110.759 266.078L57.8951 253.682Z" fill="white"/>
<path d="M244.021 254.645C244.021 254.645 247.481 256.161 245.451 258.504C243.42 260.847 165.596 285.317 165.596 285.317L244.021 254.645Z" fill="#6C63FF"/>
<path d="M277.637 219.312C277.637 219.312 269.019 230.741 275.864 248.029L207.028 280.466L200.421 281.978L197.379 267.516L199.444 249.269V239.282L277.637 219.312Z" fill="#D5D6DB"/>
<path d="M60.2645 211.919L155.537 193.052L281.786 214.903L203.373 245.575L60.2645 211.919Z" fill="#3A3768"/>
<path d="M60.2493 211.919C60.2493 211.919 51.3347 230.261 61.6032 247.203L202.89 280.466C202.89 280.466 194.123 265.842 203.357 245.571L60.2493 211.919Z" fill="#3A3768"/>
<path opacity="0.1" d="M60.2493 211.919C60.2493 211.919 51.3347 230.261 61.6032 247.203L202.89 280.466C202.89 280.466 194.123 265.842 203.357 245.571L158.678 235.063L60.2493 211.919Z" fill="black"/>
<path opacity="0.1" d="M64.4708 218.279C64.4708 218.279 59.3822 231.695 64.4708 240.385V218.279Z" fill="black"/>
<path d="M202.905 280.466L281.786 243.897C281.786 243.897 286.194 244.93 283.341 248.442C280.489 251.955 204.426 283.978 204.426 283.978L61.6184 247.203L202.905 280.466Z" fill="#3A3768"/>
<path opacity="0.1" d="M202.905 280.466L281.786 243.897C281.786 243.897 286.194 244.93 283.341 248.442C280.489 251.955 204.426 283.978 204.426 283.978L61.6184 247.203L202.905 280.466Z" fill="black"/>
<path opacity="0.1" d="M196.44 249.269C196.44 249.269 188.833 259.186 196.44 274.061V249.269Z" fill="black"/>
<path opacity="0.1" d="M233.267 249.105L199.15 261.472L199.27 261.864L233.388 249.497L233.267 249.105Z" fill="black"/>
<path opacity="0.1" d="M240.106 247.873L199.144 264.796L199.279 265.182L240.241 248.259L240.106 247.873Z" fill="black"/>
<path opacity="0.1" d="M246.376 247.808L199.367 268.713L199.511 269.096L246.52 248.19L246.376 247.808Z" fill="black"/>
<path opacity="0.1" d="M253.205 246.018L199.92 272.17L200.076 272.547L253.361 246.395L253.205 246.018Z" fill="black"/>
<path opacity="0.1" d="M258.933 246.022L200.336 273.849L200.489 274.228L259.085 246.4L258.933 246.022Z" fill="black"/>
<path opacity="0.1" d="M271.477 243.708L201.223 276.675L201.373 277.055L271.627 244.087L271.477 243.708Z" fill="black"/>
<path opacity="0.45" d="M95.6603 213.94L162.595 198.651L203.373 207.122L148.524 226.336L95.6603 213.94Z" fill="white"/>
<path d="M281.786 214.903C281.786 214.903 285.243 216.419 283.216 218.758C281.189 221.097 203.373 245.571 203.373 245.571L281.786 214.903Z" fill="#3A3768"/>
<path d="M281.212 173.847C281.212 173.847 272.59 194.371 279.435 211.655L210.599 235.001L204.008 236.517L200.965 222.055L203 203.804V193.817L281.212 173.847Z" fill="#D5D6DB"/>
<path d="M63.8509 166.459L159.127 147.588L285.376 169.438L206.959 200.11L63.8509 166.459Z" fill="#6C63FF"/>
<path d="M63.8509 166.455C63.8509 166.455 54.9249 184.797 65.1934 201.738L206.48 235.001C206.48 235.001 197.71 220.378 206.944 200.11L63.8509 166.455Z" fill="#6C63FF"/>
<path opacity="0.1" d="M63.8509 166.455C63.8509 166.455 54.9249 184.797 65.1934 201.738L206.48 235.001C206.48 235.001 197.71 220.378 206.944 200.11L63.8509 166.455Z" fill="black"/>
<path opacity="0.1" d="M68.0609 172.814C68.0609 172.814 62.9685 186.235 68.0609 194.92V172.814Z" fill="black"/>
<path d="M206.495 235.001L285.372 207.523C285.372 207.523 289.784 208.556 286.931 212.068C284.079 215.58 208.016 238.513 208.016 238.513L65.2086 201.738L206.495 235.001Z" fill="#6C63FF"/>
<path opacity="0.1" d="M206.495 235.001L285.372 207.523C285.372 207.523 289.784 208.556 286.931 212.068C284.079 215.58 208.016 238.513 208.016 238.513L65.2086 201.738L206.495 235.001Z" fill="black"/>
<path opacity="0.1" d="M200.03 203.804C200.03 203.804 192.423 213.721 200.03 228.596V203.804Z" fill="black"/>
<path opacity="0.1" d="M236.859 203.64L202.741 216.007L202.861 216.399L236.979 204.032L236.859 203.64Z" fill="black"/>
<path opacity="0.1" d="M243.694 202.409L202.732 219.333L202.867 219.719L243.829 202.796L243.694 202.409Z" fill="black"/>
<path opacity="0.1" d="M249.961 202.346L202.952 223.252L203.096 223.634L250.105 202.729L249.961 202.346Z" fill="black"/>
<path opacity="0.1" d="M256.795 200.553L203.51 226.705L203.667 227.082L256.952 200.93L256.795 200.553Z" fill="black"/>
<path opacity="0.1" d="M262.525 200.561L203.929 228.388L204.081 228.767L262.678 200.939L262.525 200.561Z" fill="black"/>
<path opacity="0.1" d="M275.068 198.249L204.814 231.217L204.965 231.596L275.219 198.629L275.068 198.249Z" fill="black"/>
<path opacity="0.3" d="M99.2466 168.475L166.182 153.187L206.959 161.657L152.11 180.871L99.2466 168.475Z" fill="white"/>
<path d="M285.372 169.438C285.372 169.438 288.833 170.954 286.802 173.297C284.771 175.64 206.959 200.11 206.959 200.11L285.372 169.438Z" fill="#6C63FF"/>
<path d="M118.057 44.0061C118.057 44.0061 103.605 43.0599 105.294 54.0758C105.294 54.0758 104.955 56.022 106.579 56.9063C106.579 56.9063 106.606 56.0799 108.062 56.365C108.582 56.462 109.111 56.4898 109.637 56.4476C110.346 56.3949 111.02 56.0933 111.557 55.5882C111.557 55.5882 115.623 53.7618 117.205 46.539C117.205 46.539 118.376 44.9647 118.346 44.5598L115.897 45.692C115.897 45.692 116.73 47.6051 116.076 49.1959C116.076 49.1959 115.996 45.7622 115.524 45.8407C115.429 45.8407 114.258 46.506 114.258 46.506C114.258 46.506 115.691 49.8405 114.607 52.2619C114.607 52.2619 115.018 48.1547 113.809 46.7456L112.09 47.8365C112.09 47.8365 113.767 51.2785 112.63 54.0883C112.63 54.0883 112.923 49.7785 111.729 48.1009L110.169 49.4232C110.169 49.4232 111.748 52.8156 110.785 55.146C110.785 55.146 110.66 50.1298 109.835 49.7496C109.835 49.7496 108.469 51.0553 108.264 51.5925C108.264 51.5925 109.344 54.0717 108.671 55.3568C108.671 55.3568 108.264 52.014 107.91 51.9974C107.91 51.9974 106.552 54.2122 106.412 55.7163C106.477 54.3141 106.88 52.955 107.579 51.7743C106.797 51.9352 106.075 52.3417 105.503 52.9437C105.503 52.9437 105.712 51.3776 107.918 51.2413C107.918 51.2413 109.04 49.5595 109.34 49.4604C109.34 49.4604 107.146 49.2579 105.818 49.8984C105.818 49.8984 106.99 48.4232 109.739 49.072L111.261 47.7084C111.261 47.7084 108.378 47.2952 107.153 47.7539C107.153 47.7539 108.564 46.4481 111.675 47.3985L113.352 46.3118C113.352 46.3118 110.892 45.7374 109.428 45.944C109.428 45.944 110.972 45.0391 113.843 46.0184L115.037 45.4358C115.037 45.4358 113.238 45.0515 112.71 44.9895C112.181 44.9275 112.154 44.7705 112.154 44.7705C113.296 44.5668 114.468 44.7098 115.539 45.1837C115.539 45.1837 118.106 44.1796 118.057 44.0061Z" fill="#6C63FF"/>
<path opacity="0.1" d="M321.373 89.2849C321.373 89.2849 306.921 88.3386 308.609 99.3546C308.609 99.3546 308.271 101.301 309.895 102.185C309.895 102.185 309.921 101.359 311.378 101.644C311.898 101.739 312.426 101.766 312.952 101.726C313.655 101.67 314.322 101.369 314.854 100.867C314.854 100.867 318.923 99.0406 320.502 91.8178C320.502 91.8178 321.673 90.2435 321.643 89.8385L319.201 90.9707C319.201 90.9707 320.034 92.8839 319.38 94.4747C319.38 94.4747 319.3 91.041 318.832 91.1195C318.737 91.1195 317.562 91.7847 317.562 91.7847C317.562 91.7847 318.996 95.1193 317.916 97.5407C317.916 97.5407 318.326 93.4334 317.113 92.0244L315.394 93.1152C315.394 93.1152 317.071 96.5572 315.934 99.367C315.934 99.367 316.227 95.0573 315.033 93.3797L313.477 94.7019C313.477 94.7019 315.052 98.0943 314.09 100.425C314.09 100.425 313.964 95.4085 313.139 95.0284C313.139 95.0284 311.777 96.3341 311.568 96.8713C311.568 96.8713 312.648 99.3505 311.979 100.636C311.979 100.636 311.568 97.2927 311.218 97.2762C311.218 97.2762 309.861 99.491 309.72 100.995C309.786 99.5922 310.19 98.2329 310.891 97.0531C310.108 97.2143 309.385 97.6208 308.811 98.2224C308.811 98.2224 309.024 96.6564 311.226 96.52C311.226 96.52 312.348 94.8383 312.648 94.735C312.648 94.735 310.458 94.5367 309.127 95.1771C309.127 95.1771 310.298 93.702 313.048 94.3507L314.569 92.9872C314.569 92.9872 311.682 92.574 310.461 93.0326C310.461 93.0326 311.869 91.7269 314.983 92.6773L316.657 91.5905C316.657 91.5905 314.196 91.0162 312.732 91.2228C312.732 91.2228 314.276 90.3179 317.147 91.2972L318.345 90.7145C318.345 90.7145 316.543 90.3303 316.014 90.2683C315.485 90.2063 315.459 90.0493 315.459 90.0493C316.6 89.8429 317.772 89.986 318.844 90.4625C318.844 90.4625 321.418 89.4584 321.373 89.2849Z" fill="#6C63FF"/>
<path opacity="0.1" d="M142.397 112.061C142.397 112.061 136.099 97.8754 128.082 104.867C128.082 104.867 126.352 105.495 126.435 107.466C126.435 107.466 127.101 107.09 127.576 108.61C127.754 109.148 127.989 109.661 128.276 110.139C128.665 110.787 129.238 111.281 129.908 111.544C129.908 111.544 133.357 114.511 139.933 112.486C139.933 112.486 141.77 112.829 142.07 112.59L139.971 110.825C139.971 110.825 138.83 112.548 137.24 112.701C137.24 112.701 139.963 110.953 139.67 110.548C139.609 110.466 138.529 109.668 138.529 109.668C138.529 109.668 136.548 112.656 134.076 112.809C134.076 112.809 137.575 111.197 138.115 109.358L136.403 108.259C136.403 108.259 134.452 111.532 131.642 111.821C131.642 111.821 135.247 109.999 136.012 108.048L134.194 107.222C134.194 107.222 132.235 110.371 129.892 110.598C129.892 110.598 133.863 108.032 133.764 107.061C133.764 107.061 132.049 106.408 131.516 106.47C131.516 106.47 130.063 108.697 128.694 108.697C128.694 108.697 131.178 106.677 131.026 106.35C131.026 106.35 128.584 106.144 127.299 106.763C128.457 106.138 129.746 105.853 131.037 105.937C130.525 105.273 129.845 104.786 129.082 104.536C129.082 104.536 130.444 103.974 131.627 105.995C131.627 105.995 133.528 106.239 133.752 106.474C133.752 106.474 132.844 104.301 131.684 103.354C131.684 103.354 133.441 103.739 134.243 106.66L136.088 107.453C136.088 107.453 135.027 104.511 134.049 103.582C134.049 103.582 135.783 104.28 136.54 107.714L138.229 108.772C138.229 108.772 137.495 106.156 136.612 104.871C136.612 104.871 138.092 105.896 138.704 109.094L139.758 109.945C139.758 109.945 139.187 108.048 138.997 107.52C138.807 106.991 138.902 106.883 138.902 106.883C139.625 107.864 140.084 109.044 140.225 110.292C140.225 110.292 142.26 112.185 142.397 112.061Z" fill="#6C63FF"/>
<path opacity="0.1" d="M288.354 69.2445C288.354 69.2445 282.06 55.0593 274.039 62.0507C274.039 62.0507 272.312 62.6787 272.392 64.6497C272.392 64.6497 273.061 64.2778 273.533 65.7943C273.71 66.334 273.946 66.8487 274.237 67.3273C274.624 67.9743 275.196 68.4661 275.864 68.728C275.864 68.728 279.318 71.6948 285.889 69.6743C285.889 69.6743 287.726 70.0131 288.031 69.7734L285.943 68.0049C285.943 68.0049 284.802 69.7321 283.216 69.885C283.216 69.885 285.935 68.133 285.642 67.7281C285.581 67.6454 284.501 66.8479 284.501 66.8479C284.501 66.8479 282.524 69.8354 280.048 69.9883C280.048 69.9883 283.55 68.3768 284.09 66.5422L282.352 65.4513C282.352 65.4513 280.405 68.7198 277.591 69.0131C277.591 69.0131 281.196 67.1868 281.965 65.2365L280.143 64.4101C280.143 64.4101 278.184 67.5628 275.845 67.7859C275.845 67.7859 279.812 65.2199 279.713 64.253C279.713 64.253 278.002 63.596 277.469 63.6622C277.469 63.6622 276.016 65.8852 274.643 65.8852C274.643 65.8852 277.131 63.8646 276.979 63.5382C276.979 63.5382 274.537 63.3316 273.248 63.9514C274.406 63.3257 275.695 63.0408 276.986 63.125C276.476 62.4609 275.798 61.9739 275.035 61.7242C275.035 61.7242 276.397 61.1623 277.58 63.1828C277.58 63.1828 279.481 63.4308 279.705 63.6663C279.705 63.6663 278.797 61.4887 277.633 60.5425C277.633 60.5425 279.39 60.9309 280.192 63.8688L282.041 64.6621C282.041 64.6621 280.98 61.716 280.002 60.7863C280.002 60.7863 281.736 61.4846 282.489 64.9183L284.182 65.9761C284.182 65.9761 283.444 63.3646 282.562 62.0755C282.562 62.0755 284.045 63.1002 284.653 66.2984L285.707 67.1496C285.707 67.1496 285.14 65.253 284.946 64.7241C284.752 64.1952 284.851 64.0919 284.851 64.0919C285.573 65.0738 286.029 66.2538 286.171 67.5008C286.171 67.5008 288.236 69.3768 288.354 69.2445Z" fill="#6C63FF"/>
<path opacity="0.1" d="M308.469 139.41C308.469 139.41 302.174 125.221 294.142 132.213C294.142 132.213 292.415 132.841 292.495 134.812C292.495 134.812 293.165 134.44 293.636 135.956C293.812 136.496 294.047 137.01 294.336 137.489C294.724 138.136 295.295 138.628 295.964 138.89C295.964 138.89 299.417 141.861 305.993 139.836C305.993 139.836 307.826 140.179 308.13 139.935L306.031 138.171C306.031 138.171 304.89 139.898 303.3 140.051C303.3 140.051 306.019 138.299 305.727 137.894C305.666 137.811 304.586 137.014 304.586 137.014C304.586 137.014 302.608 140.001 300.132 140.158C300.132 140.158 303.635 138.543 304.175 136.708L302.46 135.609C302.46 135.609 300.512 138.882 297.698 139.171C297.698 139.171 301.303 137.344 302.072 135.394L300.25 134.568C300.25 134.568 298.291 137.716 295.952 137.944C295.952 137.944 299.923 135.378 299.824 134.407C299.824 134.407 298.109 133.75 297.576 133.816C297.576 133.816 296.124 136.039 294.751 136.039C294.751 136.039 297.238 134.018 297.086 133.692C297.086 133.692 294.644 133.485 293.355 134.105C294.515 133.48 295.805 133.195 297.097 133.279C296.586 132.613 295.906 132.126 295.142 131.878C295.142 131.878 296.504 131.312 297.687 133.336C297.687 133.336 299.588 133.58 299.813 133.816C299.813 133.816 298.904 131.642 297.744 130.692C297.744 130.692 299.501 131.08 300.303 134.018L302.148 134.812C302.148 134.812 301.087 131.865 300.109 130.94C300.109 130.94 301.843 131.634 302.597 135.072L304.289 136.126C304.289 136.126 303.551 133.514 302.669 132.225C302.669 132.225 304.152 133.25 304.764 136.452L305.818 137.278C305.818 137.278 305.247 135.382 305.057 134.853C304.867 134.324 304.962 134.221 304.962 134.221C305.685 135.202 306.142 136.382 306.282 137.63C306.282 137.63 308.351 139.534 308.469 139.41Z" fill="#6C63FF"/>
<path opacity="0.1" d="M76.8043 324.017C81.6332 324.017 85.5477 323.542 85.5477 322.955C85.5477 322.369 81.6332 321.893 76.8043 321.893C71.9755 321.893 68.0609 322.369 68.0609 322.955C68.0609 323.542 71.9755 324.017 76.8043 324.017Z" fill="#6C63FF"/>
<path opacity="0.1" d="M19.4873 305.968C24.3161 305.968 28.2307 305.493 28.2307 304.906C28.2307 304.32 24.3161 303.845 19.4873 303.845C14.6584 303.845 10.7439 304.32 10.7439 304.906C10.7439 305.493 14.6584 305.968 19.4873 305.968Z" fill="#6C63FF"/>
<path opacity="0.1" d="M120.495 336.004C125.324 336.004 129.238 335.529 129.238 334.942C129.238 334.356 125.324 333.88 120.495 333.88C115.666 333.88 111.751 334.356 111.751 334.942C111.751 335.529 115.666 336.004 120.495 336.004Z" fill="#6C63FF"/>
<path opacity="0.1" d="M344.385 309.894C349.214 309.894 353.129 309.418 353.129 308.832C353.129 308.245 349.214 307.77 344.385 307.77C339.557 307.77 335.642 308.245 335.642 308.832C335.642 309.418 339.557 309.894 344.385 309.894Z" fill="#6C63FF"/>
<path opacity="0.1" d="M271.628 304.741C276.456 304.741 280.371 304.266 280.371 303.679C280.371 303.093 276.456 302.617 271.628 302.617C266.799 302.617 262.884 303.093 262.884 303.679C262.884 304.266 266.799 304.741 271.628 304.741Z" fill="#6C63FF"/>
<path opacity="0.1" d="M224.56 329.872C230.271 329.872 234.901 329.008 234.901 327.943C234.901 326.877 230.271 326.013 224.56 326.013C218.849 326.013 214.219 326.877 214.219 327.943C214.219 329.008 218.849 329.872 224.56 329.872Z" fill="#6C63FF"/>
<path d="M229.173 308.547C229.173 308.547 214.774 316.629 222.213 326.149C222.213 326.149 222.913 328.215 224.936 328.071C224.936 328.071 224.533 327.269 226.077 326.629C226.627 326.398 227.149 326.097 227.633 325.732C228.287 325.241 228.775 324.531 229.025 323.711C229.025 323.711 231.968 319.431 229.687 311.509C229.687 311.509 229.983 309.27 229.725 308.906L227.975 311.514C227.975 311.514 229.782 312.832 229.991 314.77C229.991 314.77 228.089 311.518 227.709 311.877C227.625 311.952 226.842 313.303 226.842 313.303C226.842 313.303 229.976 315.613 230.208 318.612C230.208 318.612 228.443 314.41 226.538 313.811L225.446 315.927C225.446 315.927 228.869 318.191 229.249 321.596C229.249 321.596 227.26 317.278 225.229 316.406L224.427 318.641C224.427 318.641 227.728 320.922 228.032 323.757C228.032 323.757 225.271 319.017 224.279 319.166C224.279 319.166 223.655 321.265 223.738 321.914C223.738 321.914 226.07 323.608 226.112 325.273C226.112 325.273 223.959 322.319 223.628 322.513C223.628 322.513 223.491 325.484 224.153 327.029C224.153 327.029 223.012 324.823 223.198 322.513C222.531 323.154 222.052 323.993 221.818 324.926C221.818 324.926 221.198 323.294 223.24 321.79C223.24 321.79 223.434 319.48 223.67 319.195C223.67 319.195 221.46 320.369 220.521 321.806C220.521 321.806 220.867 319.662 223.864 318.596L224.625 316.332C224.625 316.332 221.628 317.712 220.704 318.926C220.704 318.926 221.369 316.798 224.86 315.778L225.895 313.712C225.895 313.712 223.233 314.687 221.932 315.778C221.932 315.778 222.94 313.947 226.214 313.104L227.055 311.803C227.055 311.803 225.123 312.551 224.583 312.819C224.043 313.088 223.936 312.956 223.936 312.956C224.923 312.048 226.123 311.456 227.401 311.245C227.401 311.245 229.306 308.687 229.173 308.547Z" fill="#6C63FF"/>
<path d="M271.909 155.897C269.422 148.555 255.731 147.865 249.79 149.736C245.569 151.071 236.669 152.575 231.915 153.331L231.607 153.013C232.223 152.815 232.239 152.327 232.162 151.604C232.118 150.651 232.131 149.696 232.201 148.745C235.114 149.728 237.707 147.402 237.707 147.402C241.13 145.749 240.21 138.675 240.864 136.741C241.355 135.295 241.883 126.775 242.119 122.527H242.169L242.195 121.101C242.229 120.486 242.245 120.126 242.245 120.126C242.245 120.126 242.579 109.738 243.233 107.635C243.842 105.701 244.336 95.9581 244.412 94.4127C244.412 94.2805 244.412 94.2103 244.412 94.2103L244.363 93.3095C244.397 92.6525 244.412 91.9211 244.409 91.1525C244.409 87.6197 244.07 83.1695 244.028 82.4505C244.028 82.3472 244.028 82.2232 244.028 82.0745C244.055 80.5663 243.88 73.0129 237.966 70.1577C235.787 69.0999 233.167 67.8396 230.63 66.6124C229.976 60.4764 228.481 54.3734 228.61 48.1919C228.61 47.2621 228.686 46.3324 228.77 45.4069C228.77 45.6754 228.743 45.9482 228.74 46.2333C228.74 46.8324 228.74 47.4357 228.74 48.0348C228.964 40.3038 231.653 32.5315 231.402 24.9657C231.379 25.7054 231.33 26.4491 231.265 27.1929C231.396 24.6338 231.15 22.0685 230.535 19.5941C230.307 18.7222 229.998 17.8214 229.341 17.2388C228.719 16.7696 228.005 16.4628 227.256 16.3422C225.457 15.8417 223.629 15.4718 221.784 15.2348C221.503 14.3025 221.087 13.425 220.552 12.6357C216.695 6.88397 210.983 1.47927 204.228 0.239665C200.84 -0.380139 196.942 0.136364 194.637 2.76847C194.396 2.99969 194.17 3.24817 193.96 3.51223C192.72 5.11959 192.188 7.23106 190.917 8.83428C190.834 8.94172 190.739 9.04089 190.647 9.14419C188.16 11.5614 184.285 12.0655 181.52 14.2348C181.033 14.6243 180.576 15.0569 180.155 15.5282C179.041 16.7277 178.042 18.047 177.173 19.466C175.929 21.3667 174.651 23.346 174.256 25.6145C173.461 30.1597 176.31 34.4694 176.838 39.0435C178.017 49.2786 167.593 58.3608 169.567 68.4595C170.093 70.9404 171.256 73.2084 172.921 75.0005C168.855 79.0003 165.395 82.8802 165.395 82.8802V83.1116H164.752L164.817 83.938H164.752L165.106 88.4213L164.752 94.9499C164.752 94.9499 164.752 95.0201 164.752 95.1524V95.1854V95.3631C164.752 95.3631 164.752 95.4333 164.752 95.5656H164.775C164.893 97.958 165.36 106.561 165.916 108.375C166.57 110.478 166.901 120.866 166.901 120.866C166.901 120.866 167.623 135.547 168.285 137.489C168.947 139.431 168.007 146.485 171.442 148.15C172.446 148.987 173.636 149.523 174.891 149.703C174.716 151.249 174.826 152.369 175.393 152.72C175.636 152.875 175.91 152.96 176.192 152.968C175.959 153.343 175.752 153.737 175.572 154.145C174.209 153.991 172.869 153.648 171.586 153.125C167.897 151.472 155.655 147.753 152.099 150.369C148.543 152.984 139.986 155.356 143.937 165.884C147.889 176.413 149.73 176.677 149.73 176.677C150.946 177.637 152.013 178.801 152.89 180.128C154.076 182.065 165.132 186.499 167.897 186.499C169.072 186.479 170.247 186.543 171.415 186.689C171.415 186.689 168.414 189.549 168.814 191.21C169.213 192.871 167.901 206.168 167.901 206.168C167.901 206.168 170.943 209.498 172.244 205.13L172.29 205.197C172.533 205.556 173.849 207.18 176.325 205.13C177.338 204.295 178.414 203.554 179.542 202.916L191.53 201.073C192.78 200.988 194.033 200.978 195.283 201.044C197.185 201.213 199.052 199.99 200.228 199.044C202.711 200.069 205.502 201.188 206.83 201.598C209.522 202.424 221.898 206.031 224.792 204.903C225.394 204.643 225.929 204.229 226.351 203.697L229.112 203.792L227.819 204.073C227.819 204.073 230.337 204.118 233.76 204.168L233.615 204.259L237.909 204.217C244.192 204.279 251.25 204.3 252.178 204.073C253.631 203.721 261.18 203.969 263.405 204.073H264.025C264.025 204.073 272.32 202.275 268.897 193.131C266.265 186.107 258.176 184.065 254.586 183.503C255.597 183.284 256.468 183.115 257.046 183.016C259.553 182.603 264.421 180.123 264.816 179.276C265.212 178.429 269.293 175.971 270.346 174.57C271.399 173.169 274.408 163.24 271.909 155.897ZM203.205 176.446L202.798 176.59L202.525 176.69L202 177.252C201.581 176.946 201.133 176.624 200.665 176.293C201.49 176.347 202.338 176.4 203.205 176.446Z" fill="url(#paint0_linear)"/>
<path d="M227.454 132.878C227.454 132.878 233.273 149.406 236.582 147.753C239.89 146.1 238.993 139.076 239.624 137.15C240.255 135.225 240.955 120.622 240.955 120.622C240.955 120.622 241.275 110.292 241.906 108.201C242.492 106.28 242.967 96.5903 243.047 95.0656C243.047 94.9334 243.047 94.8631 243.047 94.8631L242.419 82.8802L238.867 81.9175L230.63 85.2231L229.489 92.3013L229.044 95.0656L228.854 96.2432L227.454 132.878Z" fill="#BE6F72"/>
<path opacity="0.1" d="M229.371 130.109C229.371 130.109 234.924 135.047 236.597 135.481C238.27 135.915 239.297 139.766 239.297 139.766" fill="black"/>
<path d="M181.95 133.601C181.95 133.601 176.131 150.129 172.822 148.476C169.513 146.823 170.411 139.799 169.78 137.873C169.148 135.948 168.449 121.345 168.449 121.345C168.449 121.345 168.129 111.015 167.498 108.924C166.912 107.003 166.437 97.3134 166.357 95.7887C166.357 95.6564 166.357 95.5862 166.357 95.5862L166.988 83.6033L170.54 82.6406L178.778 85.9462L179.919 93.0243L180.364 95.7887L180.554 96.9663L181.95 133.601Z" fill="#BE6F72"/>
<path d="M219.84 45.1507H206.853V67.1455H219.84V45.1507Z" fill="#3E373A"/>
<path opacity="0.1" d="M219.84 45.1507H206.853V67.1455H219.84V45.1507Z" fill="black"/>
<path d="M179.668 150.063C179.668 150.063 175.23 155.364 176.876 156.327C178.523 157.29 189.176 175.334 189.176 175.334C189.176 175.334 224.164 180.016 230.763 172.991C237.361 165.967 237.228 153.418 237.228 153.418C237.228 153.418 231.927 154.658 231.349 153.984C230.771 153.311 227.595 150.063 227.595 150.063C227.595 150.063 182.71 147.104 179.668 150.063Z" fill="#4B4B5B"/>
<path opacity="0.02" d="M179.668 150.063C179.668 150.063 175.23 155.364 176.876 156.327C178.523 157.29 189.176 175.334 189.176 175.334C189.176 175.334 224.164 180.016 230.763 172.991C237.361 165.967 237.228 153.418 237.228 153.418C237.228 153.418 231.927 154.658 231.349 153.984C230.771 153.311 227.595 150.063 227.595 150.063C227.595 150.063 182.71 147.104 179.668 150.063Z" fill="black"/>
<path d="M242.655 83.0538L231.246 92.9706L227.796 93.2433L226.53 93.3425L205.259 95.0367L183.201 93.2847L179.919 93.0243L175.735 92.6938L166.988 83.6033C166.988 83.6033 173.18 76.3971 178.603 71.5337C180.74 69.6123 182.76 68.0586 184.232 67.4471L184.483 67.3521C185.408 66.9598 186.235 66.3338 186.894 65.5257C191.176 60.7284 195.135 48.8902 195.135 48.8902C195.135 48.8902 214.025 38.2874 211.743 52.1958C209.462 66.1042 220.236 62.6663 220.236 62.6663L223.788 64.4266L225.191 65.1249L228.77 66.9058L236.844 70.9304C243.18 74.0997 242.655 83.0538 242.655 83.0538Z" fill="#BE6F72"/>
<path opacity="0.1" d="M204.373 60.216C213.755 60.216 221.362 51.9522 221.362 41.7583C221.362 31.5643 213.755 23.3005 204.373 23.3005C194.99 23.3005 187.384 31.5643 187.384 41.7583C187.384 51.9522 194.99 60.216 204.373 60.216Z" fill="black"/>
<path opacity="0.1" d="M242.682 96.2019H166.357C166.357 96.0697 166.357 95.9994 166.357 95.9994L166.988 84.0165C166.988 84.0165 173.18 76.8103 178.603 71.9469L226.522 69.8809L228.751 67.3273L236.825 71.3519C243.165 74.517 242.655 83.4711 242.655 83.4711C242.655 83.4711 243.522 93.8466 242.682 96.2019Z" fill="black"/>
<path d="M242.682 95.7887H166.357C166.357 95.6565 166.357 95.5862 166.357 95.5862L166.988 83.6033C166.988 83.6033 173.18 76.3971 178.603 71.5337L226.522 69.4677L228.751 66.9141L236.825 70.9387C243.165 74.1038 242.655 83.0579 242.655 83.0579C242.655 83.0579 243.522 93.4334 242.682 95.7887Z" fill="#E7C7CA"/>
<path opacity="0.1" d="M192.138 62.187C192.138 62.187 204.179 78.8556 220.217 61.8441C236.255 44.8325 221.993 99.7885 221.993 99.7885L187.384 104.251L192.138 62.187Z" fill="black"/>
<path d="M192.138 63.0134C192.138 63.0134 204.179 79.682 220.217 62.6705C236.255 45.6589 221.993 100.615 221.993 100.615L187.384 105.077L192.138 63.0134Z" fill="#E7C7CA"/>
<path opacity="0.1" d="M225.172 65.9389L226.446 87.0494L227.812 94.0739L228.854 99.4455C228.854 99.4455 231.516 140.766 230.755 142.832C229.995 144.898 231.136 146.551 231.295 147.65C231.455 148.749 231.136 151.509 231.261 152.749C231.387 153.988 231.261 154.538 228.348 154.096C225.435 153.654 221.373 152.885 221.373 152.885C221.373 152.885 211.104 153.711 207.556 152.335C204.008 150.96 197.288 150.955 197.288 150.955C197.288 150.955 187.145 151.232 183.851 150.819C180.558 150.406 178.778 155.228 176.625 153.848C174.473 152.468 179.158 139.113 180.679 135.254C182.201 131.394 178.652 121.618 178.652 121.618L183.216 94.1111L184.232 87.8758V68.2735L184.483 68.1785C185.408 67.7862 186.235 67.1602 186.894 66.3521L188.035 86.0784L223.784 87.4585V65.2571" fill="black"/>
<path d="M225.172 65.1125L226.446 86.223L227.812 93.2475L228.854 98.6191C228.854 98.6191 231.516 139.939 230.755 142.005C229.995 144.071 231.136 145.724 231.295 146.823C231.455 147.922 231.136 150.683 231.261 151.922C231.387 153.162 231.261 153.711 228.348 153.269C225.435 152.827 221.373 152.059 221.373 152.059C221.373 152.059 211.104 152.885 207.556 151.509C204.008 150.133 197.288 150.129 197.288 150.129C197.288 150.129 187.145 150.406 183.851 149.993C180.558 149.579 178.778 154.402 176.625 153.021C174.473 151.641 179.158 138.287 180.679 134.427C182.201 130.568 178.652 120.792 178.652 120.792L183.216 93.2847L184.232 87.0494V67.4471L184.483 67.3521C185.408 66.9598 186.235 66.3338 186.894 65.5257L188.035 85.252L223.784 86.6321V64.4307" fill="#E7C7CA"/>
<path opacity="0.1" d="M229.284 21.0568C229.067 20.1932 228.766 19.2966 228.143 18.7181C227.547 18.2534 226.859 17.9477 226.135 17.8256C224.4 17.33 222.636 16.9628 220.856 16.7264C220.601 15.8089 220.216 14.9403 219.715 14.1522C215.988 8.43347 210.473 3.04117 203.985 1.82222C200.589 1.18176 196.653 1.75611 194.477 4.66506C193.283 6.26415 192.77 8.38388 191.564 9.95406C189.24 13.0035 185.045 13.3795 182.117 15.7389C180.554 16.9785 179.421 18.7759 178.314 20.5197C177.116 22.408 175.884 24.3748 175.503 26.6309C174.743 31.139 177.485 35.4363 177.991 39.9856C179.132 50.1628 169.091 59.1913 170.989 69.2321C172.096 75.0872 177.074 79.211 182.223 81.3018C184.038 82.0414 186.11 82.7769 186.958 84.6694C187.339 85.4958 187.403 86.4503 187.761 87.285C188.963 90.0699 192.914 90.1774 195.036 88.1486C197.158 86.1197 197.828 82.8389 198.079 79.7771C199.098 66.4058 194.169 53.1957 194.743 39.7914C194.915 35.7379 195.964 31.139 199.307 29.3043C203.806 26.8251 209.218 30.9572 214.17 30.1679C216.513 36.3624 217.01 43.199 215.592 49.7166C214.805 53.2825 213.443 56.741 213.345 60.4185C213.196 66.0174 215.976 71.1329 218.38 76.083C218.896 77.0087 219.241 78.0346 219.395 79.1035C219.433 80.1881 219.247 81.2681 218.852 82.2645C217.494 86.2354 215.151 89.9212 214.885 94.1483C214.807 94.6417 214.909 95.1487 215.17 95.5614C215.438 95.8368 215.784 96.0058 216.151 96.0407C220.259 96.8052 223.811 92.8508 225.815 88.8799C228.05 84.4941 229.352 79.6202 229.626 74.6162C230.04 66.2034 227.264 57.9269 227.435 49.5058C227.633 39.9319 231.615 30.2919 229.284 21.0568Z" fill="black"/>
<path d="M229.664 20.6436C229.447 19.78 229.147 18.8834 228.523 18.3049C227.927 17.8402 227.239 17.5345 226.515 17.4124C224.78 16.9168 223.017 16.5496 221.236 16.3132C220.982 15.3957 220.597 14.5271 220.095 13.739C216.368 8.02027 210.854 2.62797 204.365 1.40902C200.969 0.768559 197.033 1.34291 194.858 4.25186C193.663 5.85095 193.15 7.97068 191.944 9.54085C189.621 12.5903 185.426 12.9663 182.497 15.3257C180.934 16.5653 179.801 18.3627 178.694 20.1065C177.496 21.9948 176.264 23.9616 175.884 26.2177C175.123 30.7258 177.865 35.0231 178.371 39.5724C179.512 49.7496 169.472 58.7781 171.369 68.8189C172.476 74.674 177.454 78.7978 182.604 80.8886C184.418 81.6282 186.491 82.3637 187.339 84.2562C187.719 85.0826 187.784 86.0371 188.141 86.8718C189.343 89.6567 193.294 89.7642 195.417 87.7354C197.539 85.7065 198.208 82.4257 198.459 79.3639C199.478 65.9926 194.549 52.7825 195.124 39.3782C195.295 35.3247 196.345 30.7258 199.688 28.8911C204.187 26.4119 209.598 30.544 214.55 29.7547C216.893 35.9492 217.391 42.7858 215.973 49.3034C215.185 52.8693 213.824 56.3278 213.725 60.0053C213.577 65.6042 216.357 70.7197 218.76 75.6698C219.276 76.5955 219.621 77.6214 219.776 78.6903C219.814 79.7749 219.628 80.8549 219.232 81.8513C217.874 85.8222 215.531 89.508 215.265 93.7351C215.187 94.2285 215.289 94.7355 215.55 95.1482C215.818 95.4236 216.164 95.5926 216.532 95.6275C220.639 96.392 224.191 92.4376 226.195 88.4667C228.43 84.0809 229.732 79.207 230.006 74.203C230.421 65.7902 227.644 57.5137 227.816 49.0926C228.013 39.5187 231.995 29.8787 229.664 20.6436Z" fill="#3E373A"/>
<path d="M221.263 203.597L236.35 204.122L234.186 191.966L222.628 193.16L221.263 203.597Z" fill="#C3C7D9"/>
<path d="M268.011 174.785C266.995 176.161 263.067 178.64 262.686 179.466C262.306 180.293 257.617 182.772 255.206 183.185C252.794 183.598 245.192 185.392 243.796 186.354C242.796 187.049 234.768 189.247 229.493 190.466C228.064 190.833 226.618 191.116 225.161 191.313C222.879 191.449 197.908 182.222 197.908 182.222L202.722 176.851L202.989 176.752C204.35 176.252 210.64 173.942 214.132 172.843C218.064 171.603 222.628 166.508 222.628 166.508C222.628 166.508 229.344 164.029 230.234 163.752C231.124 163.475 227.952 154.112 227.952 154.112C227.952 154.112 242.53 151.914 248.235 150.05C253.939 148.187 267.125 148.877 269.532 156.178C271.939 163.48 269.041 173.409 268.011 174.785Z" fill="#4B4B5B"/>
<path d="M201.581 198.061C201.581 198.061 198.668 201.366 195.751 201.093C192.834 200.821 182.634 201.92 182.634 201.92C180.786 202.721 179.055 203.811 177.496 205.155C175.112 207.196 173.845 205.568 173.609 205.221L173.568 205.155C172.297 209.498 169.384 206.188 169.384 206.188C169.384 206.188 170.651 192.966 170.263 191.313C169.875 189.66 172.769 186.821 172.769 186.821L176.192 185.875L184.863 183.462L197.288 188.144L201.581 198.061Z" fill="#E7C7CA"/>
<path opacity="0.1" d="M176.177 185.875L173.609 205.221L173.568 205.155C172.297 209.498 169.384 206.188 169.384 206.188C169.384 206.188 170.651 192.966 170.263 191.313C169.875 189.66 172.769 186.821 172.769 186.821L176.177 185.875Z" fill="black"/>
<path opacity="0.1" d="M194.12 130.845C194.12 130.845 200.836 133.324 206.67 130.845H194.12Z" fill="black"/>
<path opacity="0.1" d="M217.049 135.531C217.049 135.531 219.836 137.043 221.993 135.531H217.049Z" fill="black"/>
<path opacity="0.1" d="M217.049 139.117C217.049 139.117 221.738 139.799 222.628 138.423L217.049 139.117Z" fill="black"/>
<path opacity="0.1" d="M215.528 146.823C215.528 146.823 224.336 145.584 226.522 143.931L215.528 146.823Z" fill="black"/>
<path opacity="0.1" d="M188.651 143.931C188.651 143.931 193.595 146.96 197.272 146.823L188.651 143.931Z" fill="black"/>
<path opacity="0.1" d="M229.489 190.466C228.06 190.833 226.614 191.116 225.157 191.313C222.875 191.449 197.904 182.222 197.904 182.222L202.719 176.851L202.985 176.752C203.745 177.334 204.369 177.834 204.814 178.214C206.91 180.008 208.933 177.665 209.694 177.665C210.454 177.665 217.045 183.586 217.045 183.586C217.045 183.586 223.13 185.102 224.145 186.478C225.161 187.854 228.709 187.582 229.341 188.544C229.531 188.842 229.554 189.573 229.489 190.466Z" fill="black"/>
<path d="M182.634 154.674C182.634 154.674 176.481 155.058 172.932 153.435C169.384 151.811 157.594 148.063 154.172 150.695C150.749 153.327 142.507 155.654 146.31 166.124C150.114 176.595 151.89 176.867 151.89 176.867C153.066 177.826 154.094 178.984 154.932 180.297C156.073 182.227 166.722 186.631 169.384 186.631C172.046 186.631 176.736 186.631 183.326 191.59C189.917 196.548 195.877 197.102 195.877 197.102C195.877 197.102 204.244 200.821 206.849 201.647C209.454 202.474 221.358 206.052 224.149 204.953C226.941 203.854 228.713 196.961 228.713 196.961C228.713 196.961 229.979 190.763 229.344 189.801C228.709 188.838 225.161 189.111 224.149 187.735C223.138 186.359 217.049 184.842 217.049 184.842C217.049 184.842 210.473 178.917 209.713 178.917C208.952 178.917 206.929 181.256 204.833 179.466C200.659 176.107 196.273 173.07 191.708 170.376C186.894 167.62 182.634 154.674 182.634 154.674Z" fill="#4B4B5B"/>
<path opacity="0.1" d="M170.263 158.67C171.358 158.427 172.491 158.462 173.572 158.772C174.653 159.082 175.654 159.66 176.496 160.459C179.538 163.215 189.777 168.748 189.777 168.748" fill="black"/>
<path opacity="0.1" d="M246.333 158.496C246.333 158.496 232.767 160.728 230.234 163.756L246.333 158.496Z" fill="black"/>
<path d="M261.926 204.122H261.329C259.184 204.04 251.916 203.792 250.516 204.122C248.87 204.535 227.062 204.122 227.062 204.122L231.326 203.159C231.326 203.159 229.744 197.135 230.748 196.635C230.748 196.635 225.043 192.553 229.344 189.796C233.646 187.04 238.282 188.201 238.282 188.201L249.079 184.226L251.152 183.462C251.152 183.462 263.322 184.152 266.615 193.243C269.909 202.333 261.926 204.122 261.926 204.122Z" fill="#E7C7CA"/>
<path opacity="0.1" d="M261.926 204.122H261.329C264.869 200.949 272.879 191.288 249.079 184.247L251.152 183.483C251.152 183.483 263.322 184.173 266.615 193.263C269.909 202.354 261.926 204.122 261.926 204.122Z" fill="black"/>
<path d="M239.552 193.412C239.92 193.412 240.217 193.088 240.217 192.689C240.217 192.29 239.92 191.966 239.552 191.966C239.184 191.966 238.886 192.29 238.886 192.689C238.886 193.088 239.184 193.412 239.552 193.412Z" fill="#4B4B5B"/>
<path d="M235.684 194.606C236.052 194.606 236.35 194.282 236.35 193.883C236.35 193.484 236.052 193.16 235.684 193.16C235.317 193.16 235.019 193.484 235.019 193.883C235.019 194.282 235.317 194.606 235.684 194.606Z" fill="#4B4B5B"/>
<g opacity="0.1">
<path opacity="0.1" d="M216.84 41.0765C216.987 36.5316 216.243 32.0046 214.657 27.7962C209.712 28.5978 204.297 24.4533 199.794 26.9326C196.462 28.7672 195.416 33.3661 195.23 37.4196C195.184 38.4898 195.177 39.56 195.196 40.6302C195.196 40.2501 195.196 39.8658 195.23 39.4857C195.405 35.4321 196.451 30.8332 199.794 28.9986C204.297 26.5194 209.705 30.6514 214.657 29.8622C216 33.4269 216.74 37.226 216.84 41.0765Z" fill="black"/>
<path opacity="0.1" d="M178.527 40.3203C178.592 39.42 178.575 38.5148 178.477 37.618C178.074 33.9818 176.245 30.5068 175.914 26.9615C175.488 31.2381 177.994 35.3454 178.477 39.684C178.527 39.9071 178.527 40.1055 178.527 40.3203Z" fill="black"/>
<path opacity="0.1" d="M198.566 77.4012C198.33 80.4671 197.664 83.7438 195.523 85.7768C193.382 87.8097 189.438 87.6982 188.248 84.9132C187.867 84.0868 187.81 83.124 187.441 82.2976C186.597 80.4051 184.521 79.6696 182.706 78.93C177.553 76.8351 172.583 72.732 171.476 66.8604C171.377 66.3284 171.31 65.7902 171.274 65.2489C171.181 66.4789 171.249 67.7171 171.476 68.9264C172.583 74.7815 177.561 78.9011 182.706 80.996C184.521 81.7357 186.597 82.4712 187.441 84.3636C187.822 85.19 187.886 86.1445 188.248 86.9792C189.446 89.7642 193.397 89.8716 195.523 87.8428C197.649 85.814 198.311 82.5331 198.566 79.4672C198.681 77.8534 198.721 76.2343 198.683 74.6162C198.683 75.5541 198.634 76.4797 198.566 77.4012Z" fill="black"/>
<path opacity="0.1" d="M227.941 47.134C227.941 47.7332 227.941 48.3282 227.941 48.9232C228.154 41.2376 230.748 33.5107 230.493 25.9863C230.295 32.9447 228.085 40.06 227.941 47.134Z" fill="black"/>
<path opacity="0.1" d="M219.779 78.2234C219.873 77.7331 219.902 77.231 219.867 76.7318C219.714 75.6624 219.369 74.6361 218.851 73.7113C216.653 69.166 214.147 64.5134 213.85 59.4682C213.85 59.683 213.824 59.8814 213.82 60.1127C213.668 65.7075 216.448 70.8271 218.851 75.7773C219.26 76.544 219.572 77.3667 219.779 78.2234Z" fill="black"/>
<path opacity="0.1" d="M230.128 72.2444C229.844 77.2504 228.533 82.124 226.29 86.5081C224.282 90.479 220.734 94.4334 216.623 93.6689C216.254 93.6345 215.908 93.4638 215.642 93.1855C215.564 93.0909 215.504 92.9816 215.463 92.8632C215.417 93.1855 215.379 93.5119 215.356 93.8425C215.278 94.3346 215.38 94.8406 215.642 95.2515C215.908 95.5298 216.254 95.7005 216.623 95.735C220.734 96.4994 224.282 92.545 226.29 88.5742C228.533 84.19 229.844 79.3164 230.128 74.3104C230.173 73.3435 230.177 72.3807 230.151 71.418C230.143 71.6948 230.143 71.9675 230.128 72.2444Z" fill="black"/>
</g>
<path opacity="0.1" d="M230.748 196.635C230.748 196.635 240.373 201.023 246.721 191.313" stroke="black" stroke-miterlimit="10"/>
<path opacity="0.1" d="M232.642 204.304C232.642 204.304 240.503 198.751 250.516 204.122" stroke="black" stroke-miterlimit="10"/>
<path opacity="0.1" d="M180.021 203.044C180.021 203.044 183.323 194.953 192.138 201.122" stroke="black" stroke-miterlimit="10"/>
<path opacity="0.1" d="M169.319 83.3967L176.051 76.7855C176.051 76.7855 202.152 74.9261 203.232 84.5661C203.232 84.5661 212.485 73.1369 231.946 75.6822L240.179 82.8059L217.422 93.6565L195.306 101.991L179.017 94.0698L169.319 83.3967Z" fill="black"/>
<path d="M169.319 83.8099L176.051 77.1987C176.051 77.1987 202.152 75.3393 203.232 84.9793C203.232 84.9793 212.485 73.5501 231.946 76.0954L240.179 83.2191L217.422 94.0698L195.306 102.404L179.017 94.483L169.319 83.8099Z" fill="#D5D6DB"/>
<path opacity="0.1" d="M166.342 84.6363L169.319 123.341L200.885 125.064L199.516 86.5247L199.49 85.8759L166.342 84.6363Z" fill="black"/>
<path d="M166.342 83.8099L169.319 122.515L200.885 124.238L199.516 85.6983L199.49 85.0495L166.342 83.8099Z" fill="#6C63FF"/>
<path opacity="0.1" d="M241.625 83.8099L209.062 89.1155V127.994L240.883 122.998L241.625 83.8099Z" fill="black"/>
<path d="M241.625 82.9835L209.062 88.289V127.167L240.883 122.172L241.625 82.9835Z" fill="#6C63FF"/>
<path opacity="0.3" d="M233.946 92.4707L216.357 94.5945L216.741 101.107L233.935 99.0654L233.946 92.4707Z" fill="white"/>
<path d="M171.031 143.241L172.822 148.476C172.822 148.476 175.484 150.955 178.397 149.716C181.311 148.476 183.851 147.86 185.118 146.654C186.384 145.447 188.16 139.386 188.16 139.386C188.16 139.386 189.936 132.774 191.708 131.122C193.481 129.469 198.174 106.697 191.708 108.924C185.243 111.152 180.299 131.812 180.299 131.812C180.299 131.812 179.158 133.324 177.511 133.465C175.865 133.605 172.567 133.188 171.932 134.704C171.297 136.221 169.129 140.212 171.031 143.241Z" fill="#BE6F72"/>
<path opacity="0.1" d="M209.062 89.1113C207.395 89.5195 205.663 89.4981 204.005 89.049C202.347 88.5998 200.808 87.7354 199.513 86.5247L200.885 125.06C200.885 125.06 204.118 128.861 209.062 127.994V89.1113Z" fill="black"/>
<path d="M209.062 88.2849C207.395 88.6931 205.663 88.6717 204.005 88.2226C202.347 87.7734 200.808 86.909 199.513 85.6983L200.885 124.234C200.885 124.234 204.118 128.035 209.062 127.167V88.2849Z" fill="#6C63FF"/>
<path opacity="0.1" d="M209.062 88.2849C207.395 88.6931 205.663 88.6717 204.005 88.2226C202.347 87.7734 200.808 86.909 199.513 85.6983L200.885 124.234C200.885 124.234 204.118 128.035 209.062 127.167V88.2849Z" fill="black"/>
<path opacity="0.1" d="M209.823 83.9422C209.823 83.9422 223.069 79.5416 226.522 80.1614L209.823 83.9422Z" fill="black"/>
<path opacity="0.1" d="M195.006 82.0208C195.006 82.0208 182.166 78.7151 180.021 79.6531L195.006 82.0208Z" fill="black"/>
<path opacity="0.1" d="M218.174 84.4917C218.174 84.4917 227.032 80.963 230.234 82.6406L218.174 84.4917Z" fill="black"/>
<path opacity="0.1" d="M213.713 173.012C215.086 171.892 216.547 170.906 218.079 170.066C220.361 168.872 224.545 165.773 224.545 165.773" fill="black"/>
<path opacity="0.1" d="M180.021 130.845C180.021 130.845 174.465 135.783 172.795 136.216C171.126 136.65 170.095 140.501 170.095 140.501" fill="black"/>
<path d="M238.358 142.505L236.585 147.753C236.585 147.753 233.923 150.232 231.006 148.993C228.089 147.753 225.556 147.137 224.286 145.931C223.016 144.724 221.244 138.663 221.244 138.663C221.244 138.663 219.471 132.051 217.695 130.399C215.919 128.746 211.23 105.974 217.695 108.201C224.161 110.428 229.105 131.089 229.105 131.089C229.105 131.089 230.246 132.601 231.892 132.741C233.539 132.882 236.836 132.465 237.472 133.981C238.107 135.497 240.259 139.489 238.358 142.505Z" fill="#BE6F72"/>
<path opacity="0.1" d="M235.251 132.853C235.251 132.853 238.883 135.39 238.867 138.423L235.251 132.853Z" fill="black"/>
<path d="M204.434 59.3111C213.816 59.3111 221.422 51.0473 221.422 40.8534C221.422 30.6594 213.816 22.3956 204.434 22.3956C195.051 22.3956 187.445 30.6594 187.445 40.8534C187.445 51.0473 195.051 59.3111 204.434 59.3111Z" fill="#BE6F72"/>
<path d="M193.766 35.8991C195.827 35.5478 197.634 34.2463 199.604 33.4984C204.012 31.8166 208.887 32.9695 213.348 34.4859C215.06 35.0685 216.798 35.7255 218.593 35.7255C220.388 35.7255 222.293 34.928 223.21 33.2463C224.054 31.7009 223.891 29.6928 223.179 28.0689C222.468 26.445 221.278 25.1393 220.076 23.9079C216.121 19.8503 211.215 16.0571 205.788 16.4703C203.605 16.6397 201.517 17.4867 199.509 18.4247C196.98 19.6085 194.519 20.9552 192.138 22.4576C190.309 23.6104 186.92 25.1517 185.867 27.259C183.471 32.0067 190.039 36.5354 193.766 35.8991Z" fill="#3E373A"/>
<path opacity="0.1" d="M223.21 31.5109C222.293 33.1926 220.388 33.9901 218.593 33.9901C216.798 33.9901 215.06 33.3579 213.345 32.7753C208.883 31.2588 204.012 30.1018 199.6 31.7877C197.634 32.5356 195.823 33.8537 193.762 34.1843C190.758 34.6966 185.92 31.8538 185.395 28.2383C184.806 32.4158 190.415 35.9941 193.762 35.4239C195.823 35.0727 197.634 33.7711 199.6 33.0273C204.012 31.3414 208.883 32.4984 213.345 34.0149C215.06 34.5975 216.794 35.2545 218.593 35.2297C220.392 35.2049 222.293 34.4363 223.21 32.7505C223.685 31.8333 223.872 30.7729 223.742 29.7299C223.683 30.3579 223.501 30.9649 223.21 31.5109Z" fill="black"/>
<path d="M361.077 255.446C361.077 255.446 363.333 258.648 360.035 263.487C356.738 268.326 354.023 272.408 355.118 275.424C355.118 275.424 360.092 266.441 364.139 266.313C368.185 266.185 365.523 260.847 361.077 255.446Z" fill="#6C63FF"/>
<path opacity="0.1" d="M361.077 255.446C361.274 255.755 361.429 256.094 361.538 256.45C365.485 261.491 367.592 266.198 363.793 266.313C360.256 266.425 356.015 273.296 355 275.028C355.032 275.168 355.072 275.306 355.118 275.441C355.118 275.441 360.092 266.458 364.139 266.33C368.185 266.202 365.523 260.847 361.077 255.446Z" fill="black"/>
<path d="M365.261 259.529C365.261 260.657 365.143 261.57 365.002 261.57C364.861 261.57 364.74 260.657 364.74 259.529C364.74 258.401 364.884 258.934 365.029 258.934C365.173 258.934 365.261 258.401 365.261 259.529Z" fill="#FFD037"/>
<path d="M366.702 260.876C365.793 261.413 364.998 261.739 364.93 261.603C364.861 261.467 365.542 260.917 366.451 260.363C367.36 259.81 367.003 260.214 367.071 260.363C367.14 260.512 367.615 260.334 366.702 260.876Z" fill="#FFD037"/>
<path d="M349.158 255.446C349.158 255.446 346.903 258.648 350.2 263.487C353.498 268.326 356.213 272.408 355.114 275.424C355.114 275.424 350.143 266.441 346.093 266.313C342.043 266.185 344.724 260.847 349.158 255.446Z" fill="#6C63FF"/>
<path opacity="0.1" d="M349.158 255.446C348.962 255.755 348.807 256.094 348.698 256.45C344.75 261.491 342.644 266.198 346.443 266.313C349.976 266.425 354.22 273.296 355.236 275.028C355.204 275.168 355.163 275.306 355.114 275.441C355.114 275.441 350.143 266.458 346.093 266.33C342.043 266.202 344.724 260.847 349.158 255.446Z" fill="black"/>
<path d="M344.967 259.529C344.967 260.657 345.081 261.57 345.226 261.57C345.37 261.57 345.488 260.657 345.488 259.529C345.488 258.401 345.34 258.934 345.199 258.934C345.059 258.934 344.967 258.401 344.967 259.529Z" fill="#FFD037"/>
<path d="M343.53 260.876C344.439 261.413 345.233 261.739 345.302 261.603C345.37 261.467 344.69 260.917 343.781 260.363C342.872 259.81 343.229 260.214 343.161 260.363C343.092 260.512 342.617 260.334 343.53 260.876Z" fill="#FFD037"/>
<path opacity="0.1" d="M355.118 299.936C368.14 299.936 378.697 298.176 378.697 296.006C378.697 293.836 368.14 292.077 355.118 292.077C342.095 292.077 331.538 293.836 331.538 296.006C331.538 298.176 342.095 299.936 355.118 299.936Z" fill="#6C63FF"/>
<path d="M367.254 271.107L367.14 272.106L366.98 273.52L366.915 274.11L366.755 275.524L366.687 276.115L366.531 277.524L364.725 293.597C364.565 295.031 362.408 296.151 359.803 296.151H350.429C347.823 296.151 345.671 295.031 345.507 293.597L343.701 277.524L343.541 276.115L343.476 275.524L343.317 274.11L343.248 273.52L343.092 272.106L342.978 271.107C342.891 270.28 344.054 269.611 345.53 269.611H364.706C366.177 269.611 367.345 270.292 367.254 271.107Z" fill="#65617D"/>
<path d="M367.14 272.106L366.984 273.52H343.252L343.092 272.106H367.14Z" fill="#9D9CB5"/>
<path d="M366.915 274.111L366.759 275.524H343.477L343.317 274.111H366.915Z" fill="#9D9CB5"/>
<path d="M366.691 276.115L366.531 277.528H343.701L343.545 276.115H366.691Z" fill="#9D9CB5"/>
</g>
<defs>
<linearGradient id="paint0_linear" x1="207.895" y1="207.395" x2="207.895" y2="6.22998e-06" gradientUnits="userSpaceOnUse">
<stop stop-color="#808080" stop-opacity="0.25"/>
<stop offset="0.54" stop-color="#808080" stop-opacity="0.12"/>
<stop offset="1" stop-color="#808080" stop-opacity="0.1"/>
</linearGradient>
<clipPath id="clip0">
<rect width="389" height="336" fill="white"/>
</clipPath>
</defs>
</svg>
