<svg width="441" height="333" viewBox="0 0 441 333" fill="none" xmlns="http://www.w3.org/2000/svg">
<g clip-path="url(#clip0)">
<path d="M433.772 148.283C433.692 148.756 433.613 149.228 433.526 149.7C430.703 165.789 426.094 181.3 419.24 195.541C419.015 196.014 418.786 196.486 418.553 196.959C414.155 205.938 408.754 214.377 402.456 222.108C399.041 226.28 395.319 230.241 390.893 233.101C384.689 237.109 377.435 238.737 370.307 240.07C362.9 241.458 355.397 242.601 347.91 243.867C345.256 244.305 342.619 244.765 339.999 245.246C332.766 246.57 325.588 248.102 318.58 250.131C309.915 252.662 301.509 255.923 293.598 260.542C292.965 260.907 292.339 261.283 291.72 261.668C291.099 262.048 290.47 262.436 289.867 262.832C289.263 263.229 288.655 263.621 288.055 264.022L287.131 264.654C286.827 264.857 286.527 265.076 286.228 265.279C285.337 265.895 284.458 266.544 283.579 267.169L283.546 267.194C282.967 267.616 282.393 268.038 281.818 268.459C278.575 270.893 275.402 273.441 272.241 275.998L270.247 277.613C269.217 278.44 268.187 279.265 267.157 280.089C266.554 280.574 265.942 281.055 265.334 281.536C264.892 281.886 264.455 282.237 264.005 282.582C261.753 284.341 259.471 286.063 257.143 287.708C256.59 288.1 256.028 288.492 255.478 288.876C250.819 292.105 245.863 294.871 240.68 297.136L240.613 297.165C238.06 298.268 235.433 299.185 232.752 299.911C231.216 300.333 229.679 300.666 228.122 300.928C223.973 301.655 219.739 301.729 215.568 301.147C207.369 299.97 199.687 296.085 191.51 294.786C174.638 292.133 158.253 300.692 142.377 307.412C138.491 309.06 134.561 310.606 130.589 312.052C127.958 313.014 125.314 313.929 122.657 314.798C106.473 320.101 89.7965 323.715 72.8873 325.584C65.9837 326.348 58.7845 326.71 51.756 326.162C49.1018 325.964 46.4606 325.617 43.8448 325.12C34.9468 323.433 26.64 319.851 19.9488 313.309C14.3901 307.956 10.4678 300.958 7.47823 293.656C6.27629 290.722 5.21729 287.722 4.30126 284.654C2.86142 279.845 1.77996 274.934 1.06599 269.961C0.903604 268.839 0.757871 267.713 0.649612 266.586C0.433095 264.654 0.272093 262.714 0.16661 260.765C-0.416371 250.407 0.582205 240.02 3.12707 229.971C5.96261 218.839 10.6927 208.179 12.7746 196.942C12.862 196.469 12.9411 195.997 13.0202 195.524C13.2978 193.837 13.5088 192.119 13.6531 190.369C14.7024 176.626 10.6427 163.174 7.4366 149.7C7.32417 149.228 7.21175 148.756 7.10349 148.283C6.75651 146.79 6.42757 145.295 6.11667 143.799C3.14789 129.549 2.33595 114.3 4.97163 100.08C5.0549 99.6077 5.15067 99.131 5.24644 98.6628C7.02438 89.8549 10.1639 81.4773 14.9731 74.015C19.9072 66.3545 26.386 59.9806 33.2938 54.3786C36.6664 51.6508 40.1543 49.0987 43.7574 46.7223C46.3473 45.0181 48.9843 43.4053 51.6686 41.8839C73.3578 29.6507 98.1032 23.6733 122.57 25.0105C123.866 25.078 125.16 25.168 126.45 25.2805C127.805 25.3986 129.155 25.5392 130.502 25.7024C146.253 27.5458 161.58 32.1142 176.816 37.113C181.92 38.8003 187.013 40.4876 192.105 42.175C194.37 42.923 196.634 43.6612 198.896 44.3896C209.993 47.9372 221.272 51.139 232.656 53.5518C235.296 54.1143 237.933 54.6275 240.567 55.0915C249.726 56.7536 258.994 57.7209 268.294 57.9853C271.903 58.0753 275.511 58.0373 279.12 57.8714C280.944 57.7871 282.769 57.6633 284.595 57.5002C303.462 55.8635 321.653 50.3754 339.92 45.2206C342.56 44.474 345.204 43.7315 347.831 43.0144C351.304 42.0695 354.78 41.1541 358.27 40.3105C379.996 35.0249 399.358 38.0621 419.556 48.9623C424.137 51.4385 428.717 54.425 431.548 59.0483C434.38 63.6716 435.067 69.3959 435.591 74.9051C436.332 82.7428 436.84 90.6901 437.003 98.6712C437.003 99.1437 437.003 99.6161 437.032 100.089C437.398 116.249 436.428 132.532 433.772 148.283Z" fill="#9E98FF"/>
<path d="M289.667 195.541H288.247V196.17V196.959H289.854L289.667 195.541ZM273.574 195.541C273.572 195.552 273.572 195.564 273.574 195.575L273.449 196.748V196.853V196.959H285.774V196.874L286.652 195.541H273.574ZM240.617 195.541V149.7H254.774C254.624 149.574 254.47 149.447 254.312 149.329L254.104 149.169C254.016 149.097 253.929 149.03 253.837 148.966C253.746 148.903 253.529 148.743 253.367 148.633C253.205 148.524 253.105 148.452 252.951 148.363L252.855 148.3H252.834H240.617V145.79L240.288 145.95L239.939 146.149H239.914L239.839 146.195L239.622 146.338C239.547 146.385 239.472 146.431 239.402 146.482C239.185 146.63 238.985 146.79 238.756 146.954L238.548 147.123C238.406 147.233 238.273 147.347 238.132 147.461C237.578 147.92 237.032 148.401 236.466 148.844C236.325 148.958 236.183 149.068 236.05 149.173C235.747 149.398 235.433 149.606 235.109 149.797C234.974 149.882 234.835 149.96 234.692 150.029L234.459 150.139L234.247 150.232C233.747 150.446 233.228 150.612 232.698 150.73V195.541H211.462C211.462 195.592 211.492 195.638 211.504 195.689C211.621 196.111 211.737 196.532 211.85 196.954H232.702V246.094H233.027L233.397 246.119L234.072 246.17L235.163 246.279L235.654 246.338L236.195 246.406H236.275C236.587 246.448 236.903 246.499 237.224 246.549L237.428 246.583L237.886 246.659L238.544 246.777L240.122 246.693L240.338 246.739C240.426 246.739 240.513 246.773 240.605 246.794V196.959H273.42V196.853V196.748L273.545 195.575C273.543 195.564 273.543 195.552 273.545 195.541H240.617ZM289.667 195.541H288.247V196.17V196.959H289.854L289.667 195.541ZM272.687 195.541L272.545 196.959H286.257L287.189 195.541H272.687ZM240.626 195.541V149.7H254.783C254.633 149.574 254.479 149.447 254.32 149.329L254.112 149.169C254.025 149.097 253.937 149.03 253.846 148.966C253.754 148.903 253.538 148.743 253.375 148.633C253.213 148.524 253.113 148.452 252.959 148.363L252.863 148.3H252.834H240.617V145.79L240.288 145.95L239.939 146.149H239.914L239.839 146.195L239.622 146.338C239.547 146.385 239.472 146.431 239.402 146.482C239.185 146.63 238.985 146.79 238.756 146.954L238.548 147.123C238.406 147.233 238.273 147.347 238.132 147.461C237.578 147.92 237.032 148.401 236.466 148.844C236.325 148.958 236.183 149.068 236.05 149.173C235.747 149.398 235.433 149.606 235.109 149.797C234.974 149.882 234.835 149.96 234.692 150.029L234.459 150.139L234.247 150.232C233.747 150.446 233.228 150.612 232.698 150.73V195.541H211.462C211.462 195.592 211.492 195.638 211.504 195.689C211.621 196.111 211.741 196.532 211.854 196.954H232.702V246.09L233.027 246.111L233.397 246.136L234.072 246.187L235.163 246.296L235.654 246.355L236.195 246.423H236.275C236.587 246.465 236.903 246.516 237.224 246.566L237.428 246.6L237.886 246.676L238.544 246.794L240.122 246.71L240.338 246.756C240.426 246.756 240.513 246.79 240.605 246.811V196.959H272.545L272.695 195.541H240.626ZM347.91 100.08H437.111C437.111 99.6077 437.111 99.1352 437.082 98.6628H347.91V43.006C345.262 43.7231 342.618 44.4655 339.999 45.2122V98.6628H242.982L242.737 98.3928L243.107 97.971L279.191 57.8503C275.582 58.0191 271.974 58.057 268.365 57.9642L240.617 88.8003V55.0831C237.969 54.6191 235.332 54.1059 232.706 53.5434V87.2479L192.138 42.1665C187.046 40.4792 181.954 38.7623 176.849 37.1045L231.99 98.3928L231.744 98.6628H130.535V25.6855C129.186 25.5308 127.835 25.3902 126.484 25.2637C125.193 25.1484 123.899 25.0584 122.603 24.9937V98.6628H51.7018V41.8839C49.012 43.4025 46.375 45.0153 43.7906 46.7224V98.6628H5.22972C5.13395 99.131 5.03818 99.6077 4.95491 100.08H43.7573V148.283H7.10343C7.21168 148.756 7.32411 149.228 7.43653 149.7H43.774V195.541H13.0077C12.9286 196.014 12.8495 196.486 12.762 196.959H43.774V325.133C46.3898 325.629 49.031 325.977 51.6852 326.175V196.959H122.603V314.811C125.262 313.936 127.906 313.021 130.535 312.064V196.959H232.69V299.928C235.371 299.202 237.998 298.285 240.551 297.182L240.617 297.153V196.959H339.974V245.246C342.608 244.765 345.245 244.305 347.885 243.866V196.959H418.532C418.765 196.486 418.994 196.014 419.219 195.541H347.91V149.7H433.53C433.618 149.228 433.697 148.756 433.776 148.283H347.91V100.08ZM51.706 100.08H122.603V148.283H51.7018L51.706 100.08ZM51.706 195.541V149.7H122.603V195.541H51.706ZM130.539 100.08H232.69V148.283H130.535L130.539 100.08ZM130.539 195.541V149.7H232.69V195.541H130.539ZM339.978 195.541H240.617V149.7H339.974L339.978 195.541ZM339.978 148.296H240.617V101.371L242.012 100.08H339.974L339.978 148.296ZM273.578 195.541C273.576 195.552 273.576 195.564 273.578 195.575L273.453 196.748V196.853V196.959H285.778V196.874L286.656 195.541H273.578ZM289.671 195.541H288.251V196.17V196.959H289.858L289.671 195.541ZM240.622 195.541V149.7H254.778C254.629 149.574 254.474 149.447 254.316 149.329L254.108 149.169C254.021 149.097 253.933 149.03 253.842 148.966C253.75 148.903 253.533 148.743 253.371 148.633C253.209 148.524 253.109 148.452 252.955 148.363L252.859 148.3H252.838H240.617V145.79L240.288 145.95L239.939 146.149H239.914L239.839 146.195L239.622 146.338C239.547 146.385 239.472 146.431 239.402 146.482C239.185 146.63 238.985 146.79 238.756 146.954L238.548 147.123C238.406 147.233 238.273 147.347 238.132 147.461C237.578 147.92 237.032 148.401 236.466 148.844C236.325 148.958 236.183 149.068 236.05 149.173C235.747 149.398 235.433 149.606 235.109 149.797C234.974 149.882 234.835 149.96 234.692 150.029L234.459 150.139L234.247 150.232C233.747 150.446 233.228 150.612 232.698 150.73V195.541H211.462C211.462 195.592 211.492 195.638 211.504 195.689C211.621 196.111 211.737 196.532 211.85 196.954H232.702V246.094H233.027L233.397 246.119L234.072 246.17L235.163 246.279L235.654 246.338L236.195 246.406H236.275C236.587 246.448 236.903 246.499 237.224 246.549L237.428 246.583L237.886 246.659L238.544 246.777L240.122 246.693L240.338 246.739C240.426 246.739 240.513 246.773 240.605 246.794V196.959H273.42V196.853V196.748L273.545 195.575C273.543 195.564 273.543 195.552 273.545 195.541H240.622Z" fill="#6C63FF"/>
<path opacity="0.1" d="M85.7908 66.8902H86.4237C86.2072 66.7632 86.025 66.5839 85.8935 66.3682C85.762 66.1525 85.6852 65.9072 85.6701 65.6542C85.6701 64.6756 86.8526 63.8783 88.2974 63.8783H106.681C108.125 63.8783 109.308 64.6756 109.308 65.6542C109.308 66.6287 108.125 67.4301 106.681 67.4301H106.069C106.284 67.5579 106.465 67.7375 106.596 67.9531C106.727 68.1687 106.803 68.4136 106.818 68.6661C106.818 69.5098 105.96 70.2016 104.811 70.3914H110.103C111.544 70.3914 112.726 71.1887 112.726 72.1673C112.726 73.146 111.544 73.939 110.103 73.939H91.6993C90.2586 73.939 89.0761 73.1418 89.0761 72.1673C89.0761 71.3237 89.9338 70.6319 91.083 70.442H85.7908C84.3502 70.442 83.1676 69.6448 83.1676 68.6661C83.1676 67.6875 84.3418 66.8902 85.7908 66.8902Z" fill="#6C63FF"/>
<path opacity="0.1" d="M285.037 83.7931H285.653C285.436 83.6655 285.254 83.4854 285.122 83.269C284.991 83.0526 284.914 82.8066 284.899 82.553C284.899 81.5785 286.082 80.7812 287.527 80.7812H305.91C307.355 80.7812 308.537 81.5785 308.537 82.553C308.537 83.5316 307.355 84.3289 305.91 84.3289H305.298C305.514 84.4573 305.695 84.6377 305.826 84.854C305.956 85.0703 306.032 85.3159 306.047 85.5691C306.047 86.4127 305.19 87.1003 304.04 87.2902H309.332C310.773 87.2902 311.956 88.0916 311.956 89.0661C311.956 90.0405 310.773 90.842 309.332 90.842H290.954C289.513 90.842 288.33 90.0447 288.33 89.0661C288.33 88.2224 289.188 87.5306 290.337 87.345H285.037C283.596 87.345 282.414 86.5435 282.414 85.5691C282.414 84.5946 283.604 83.7931 285.037 83.7931Z" fill="#6C63FF"/>
<path opacity="0.1" d="M57.5894 156.125H58.2057C57.9898 155.997 57.8085 155.816 57.6778 155.6C57.5471 155.384 57.471 155.138 57.4562 154.885C57.4562 153.91 58.6346 153.109 60.0794 153.109H78.4625C79.9074 153.109 81.0899 153.91 81.0899 154.885C81.0899 155.863 79.9074 156.661 78.4625 156.661H77.8505C78.0663 156.789 78.2476 156.97 78.3783 157.186C78.5091 157.402 78.5852 157.648 78.5999 157.901C78.5999 158.745 77.7422 159.432 76.593 159.622H81.8852C83.33 159.622 84.5084 160.419 84.5084 161.398C84.5084 162.377 83.33 163.174 81.8852 163.174H63.4979C62.0572 163.174 60.8747 162.372 60.8747 161.398C60.8747 160.554 61.7366 159.862 62.8816 159.673H57.5894C56.1488 159.673 54.9662 158.875 54.9662 157.901C54.9662 156.926 56.1488 156.125 57.5894 156.125Z" fill="#6C63FF"/>
<path d="M270.197 277.63C269.167 278.457 268.137 279.282 267.107 280.106C266.504 280.591 265.892 281.072 265.284 281.553C264.842 281.903 264.405 282.253 263.955 282.599C261.703 284.358 259.421 286.079 257.093 287.725C256.54 288.117 255.978 288.509 255.428 288.893C250.769 292.122 245.813 294.888 240.63 297.153L240.563 297.182V277.63H270.197Z" fill="#65617D"/>
<path d="M316.532 200.789L316.998 186.214C316.719 185.995 316.436 185.793 316.165 185.59C316.28 181.245 316.035 176.897 315.432 172.593C313.55 158.019 301.33 157.703 297.882 160.71C297.425 161.11 296.927 161.458 296.396 161.748C296.708 159.668 297.095 157.585 297.374 155.526C298.881 144.423 296.541 131.933 288.039 124.757C284.479 121.758 280.128 119.915 276.218 117.405C269.214 112.929 263.681 106.319 256.598 101.962C249.515 97.604 239.568 95.9715 233.389 101.573C230.995 103.742 229.45 106.749 226.993 108.842C222.413 112.739 215.272 112.997 211.275 117.35C211.075 117.569 210.884 117.793 210.701 118.029C207.369 122.357 208.281 128.495 209.343 133.865C210.621 140.327 210.093 145.507 215.564 147.364C215.585 147.621 215.601 147.878 215.63 148.131C216.076 152.096 217.37 155.914 219.425 159.318C221.479 162.722 224.242 165.631 227.522 167.839L226.635 168.16C224.27 169.004 222.143 169.822 220.781 170.383C215.785 172.446 205.267 175.133 205.267 175.133C205.267 175.133 205.017 178.17 205.063 182.65C201.557 186.51 195.707 193.293 193.987 197.313C191.489 203.176 177.373 219.97 173.614 222.505C169.854 225.04 165.777 228.048 165.777 228.048C165.777 228.048 159.823 231.376 157.004 231.692C155.051 231.912 149.01 230.739 149.01 230.739C149.01 230.739 124.881 200.789 126.446 223.77C128.012 246.752 147.286 247.532 147.286 247.532L166.718 247.216C166.718 247.216 177.219 248.642 181.92 244.685C185.934 241.31 206.737 222.796 213.419 214.397C213.574 214.57 213.728 214.739 213.89 214.903C213.89 214.903 216.551 211.419 216.867 214.903C217.184 218.388 215.139 219.965 216.238 221.231C217.338 222.496 220.627 226.934 220.781 228.676C220.935 230.418 216.397 237.535 224.07 242.934C224.191 243.019 224.32 243.099 224.462 243.179C225.832 246.338 230.187 249.43 230.187 249.43L253.692 249.114L298.04 252.598C298.04 252.598 299.36 251.422 301.146 249.498C303.532 251.717 306.843 253.619 310.573 252.451C310.573 252.451 315.903 245.959 316.061 241.681C316.061 241.681 312.614 232.65 311.065 229.959C309.516 227.267 312.164 221.404 312.164 221.404C312.164 221.404 314.042 215.701 315.141 215.701C316.24 215.701 315.453 211.904 315.453 211.904C315.038 211.284 314.778 210.57 314.696 209.824C314.614 209.079 314.712 208.325 314.983 207.627C315.903 205.226 316.532 200.789 316.532 200.789Z" fill="url(#paint0_linear)"/>
<path d="M289.946 197.507L288.28 199.481L281.552 207.42L272.762 207.96L258.692 208.837C258.692 208.837 239.722 185.679 243.286 180.638C244.581 178.82 244.794 176.419 244.535 174.154C244.502 173.842 244.456 173.53 244.402 173.222C243.976 170.825 243.231 168.498 242.187 166.304L242.653 166.089L242.953 165.95L259.542 158.281L263.647 156.382C263.852 157.529 264.231 158.636 264.772 159.664C264.851 159.824 264.938 159.985 265.03 160.137C270.688 169.628 288.834 163.625 288.834 163.625L289.946 197.507Z" fill="#EE8E9E"/>
<path d="M314.475 185.658C314.35 191.403 313.425 193.883 313.425 193.883L289.946 197.507L289.067 191.331L285.591 166.945L288.855 163.638C290.159 163.923 291.51 163.901 292.805 163.573C294.099 163.245 295.302 162.621 296.321 161.748C299.739 158.753 311.868 159.069 313.734 173.559C314.282 177.567 314.529 181.612 314.475 185.658Z" fill="#EE8E9E"/>
<path d="M308.916 252.953C308.916 252.953 314.2 246.494 314.358 242.242L309.07 233.262L304.407 228.2L295.696 245.233C295.696 245.233 301.45 255.315 308.916 252.953Z" fill="#DFE5EE"/>
<path opacity="0.1" d="M308.916 252.953C308.916 252.953 314.2 246.494 314.358 242.242L309.07 233.262L304.407 228.2L295.696 245.233C295.696 245.233 301.45 255.315 308.916 252.953Z" fill="black"/>
<path d="M265.284 281.553C264.842 281.903 264.405 282.253 263.955 282.599C261.703 284.358 259.421 286.079 257.093 287.725C256.54 288.117 255.978 288.509 255.428 288.893H232.689H130.535H122.603L83.305 287.467L51.7018 287.197L43.7906 286.776L4.31785 284.666C2.87178 279.854 1.78474 274.939 1.06593 269.961C0.903543 268.839 0.75781 267.713 0.649551 266.587L43.774 269.008L51.6852 269.459L122.586 273.467L130.518 273.914L232.673 279.693L240.534 280.14H240.601L265.284 281.553Z" fill="#D48A9B"/>
<path d="M318.555 250.131C309.89 252.662 301.484 255.922 293.572 260.542C292.944 260.909 292.323 261.284 291.695 261.668C291.066 262.052 290.445 262.436 289.842 262.832C289.238 263.229 288.63 263.621 288.03 264.022L287.106 264.654L286.203 265.279C285.311 265.899 284.433 266.544 283.554 267.169L283.521 267.194C282.942 267.616 282.368 268.038 281.793 268.459C278.55 270.893 275.377 273.441 272.216 275.998C271.55 276.537 270.883 277.076 270.214 277.613L267.132 280.089C266.529 280.574 265.917 281.055 265.309 281.536C264.867 281.886 264.43 282.236 263.98 282.582L240.663 281.456H240.597L232.735 281.085L130.535 276.179L122.603 275.795L51.7018 272.382L43.7906 271.999L1.06592 269.961C0.903535 268.839 0.757802 267.713 0.649544 266.586C0.433026 264.654 0.272025 262.714 0.166542 260.765L43.7865 245.157L51.6977 242.318L58.8844 239.745L71.9795 240.437L102.246 242.01L122.615 243.094L130.547 243.516L135.615 243.786L136.826 243.854L179.472 246.111L179.922 246.14L198.95 247.144H199.167H199.292L201.195 247.241L207.682 247.587L215.793 248.009L218.466 248.152L218.97 248.182L222.75 248.38L223.829 248.435L227.439 248.629L228.875 248.709H228.921H229.221L232.598 248.89L237.828 249.169H237.853L239.476 249.253H239.651L240.621 249.308L243.003 249.435L245.085 249.544H245.106L247.442 249.667H247.479L249.249 249.764L250.606 249.835L255.424 250.093L256.29 250.139H256.59L257.006 250.164L258.418 250.24L259.05 250.274L263.964 250.531H264.413L271.667 250.468H271.717L299.294 250.24H299.822H300.38H302.021L310.898 250.169H312.222L318.555 250.131Z" fill="#EFC6CD"/>
<path d="M132.438 250.709L135.003 264.532L204.738 263.469C204.738 263.469 209.984 265.005 209.868 260.753C209.868 260.753 220.481 250.591 274.24 262.406L253.6 245.984L197.181 249.055L131.759 247.283L132.438 250.709Z" fill="#6C63FF"/>
<path d="M133.72 247.401L136.169 262.406C136.169 262.406 196.127 260.634 205.554 262.288L198.43 248.583C198.43 248.583 162.176 245.157 133.72 247.401Z" fill="white"/>
<path opacity="0.1" d="M133.72 247.401L136.169 262.406C136.169 262.406 196.127 260.634 205.554 262.288L198.43 248.583C198.43 248.583 162.176 245.157 133.72 247.401Z" fill="black"/>
<path d="M134.615 247.347L137.03 261.301C137.03 261.301 196.227 259.656 205.554 261.191L198.53 248.448C198.53 248.448 162.713 245.258 134.615 247.347Z" fill="white"/>
<path opacity="0.1" d="M135.702 247.777L138.055 260.828C138.055 260.828 195.952 259.289 205.092 260.727L198.222 248.802C198.222 248.802 163.187 245.807 135.702 247.777Z" fill="black"/>
<path d="M136.169 247.3L138.534 260.377C138.534 260.377 196.431 258.837 205.571 260.276L198.684 248.338C198.684 248.338 163.654 245.347 136.169 247.3Z" fill="white"/>
<path d="M95.2052 211.811C95.2052 211.811 98.2364 215.823 93.8103 221.885C89.3842 227.946 85.7284 233.059 87.2065 236.839C87.2065 236.839 93.8686 225.584 99.3232 225.449C104.778 225.314 101.189 218.578 95.2052 211.811Z" fill="#6C63FF"/>
<path opacity="0.1" d="M95.2052 211.811C95.4715 212.2 95.6805 212.627 95.8256 213.077C101.13 219.404 103.957 225.31 98.8568 225.437C94.1059 225.572 88.4099 234.177 87.0441 236.354C87.0913 236.517 87.1455 236.681 87.2065 236.847C87.2065 236.847 93.8686 225.593 99.3232 225.458C104.778 225.323 101.189 218.578 95.2052 211.811Z" fill="black"/>
<path d="M100.839 216.928C100.839 218.337 100.681 219.484 100.489 219.484C100.297 219.484 100.139 218.337 100.139 216.928C100.139 215.519 100.335 216.177 100.526 216.177C100.718 216.177 100.839 215.515 100.839 216.928Z" fill="#FFD037"/>
<path d="M102.771 218.611C101.547 219.29 100.481 219.7 100.389 219.527C100.298 219.354 101.222 218.683 102.438 217.991C103.654 217.299 103.179 217.806 103.27 217.991C103.362 218.177 103.995 217.936 102.771 218.611Z" fill="#FFD037"/>
<path d="M79.2037 211.811C79.2037 211.811 76.1725 215.823 80.6027 221.885C85.033 227.946 88.6805 233.059 87.2065 236.839C87.2065 236.839 80.5236 225.584 75.0857 225.449C69.6478 225.314 73.2203 218.578 79.2037 211.811Z" fill="#6C63FF"/>
<path opacity="0.1" d="M79.2037 211.811C78.9395 212.202 78.7307 212.628 78.5833 213.077C73.2786 219.404 70.4514 225.31 75.552 225.437C80.3029 225.572 86.0032 234.177 87.3689 236.354C87.3245 236.517 87.2704 236.681 87.2065 236.847C87.2065 236.847 80.5236 225.593 75.0857 225.458C69.6478 225.323 73.2203 218.578 79.2037 211.811Z" fill="black"/>
<path d="M73.5701 216.928C73.5701 218.337 73.7283 219.484 73.9198 219.484C74.1114 219.484 74.2696 218.337 74.2696 216.928C74.2696 215.519 74.0739 216.177 73.8824 216.177C73.6908 216.177 73.5701 215.515 73.5701 216.928Z" fill="#FFD037"/>
<path d="M71.6381 218.611C72.8623 219.29 73.9324 219.7 74.024 219.527C74.1156 219.354 73.1912 218.683 71.9754 217.991C70.7595 217.299 71.2342 217.806 71.1426 217.991C71.051 218.177 70.4139 217.936 71.6381 218.611Z" fill="#FFD037"/>
<path d="M103.495 231.427L103.345 232.692L103.133 234.46L103.046 235.198L102.833 236.97L102.742 237.708L102.525 239.479L100.102 259.609C99.8853 261.406 96.9873 262.807 93.4897 262.807H80.9067C77.4091 262.807 74.5153 261.406 74.2988 259.609L71.8713 239.479L71.6589 237.708L71.5715 236.97L71.355 235.198L71.2675 234.46L71.0552 232.692L70.9011 231.427C70.7803 230.41 72.3459 229.554 74.3279 229.554H100.085C102.063 229.554 103.633 230.41 103.495 231.427Z" fill="#65617D"/>
<path d="M103.358 232.679L103.146 234.451H71.2675L71.0551 232.679H103.358Z" fill="#9D9CB5"/>
<path d="M103.058 235.189L102.846 236.961H71.5715L71.3549 235.189H103.058Z" fill="#9D9CB5"/>
<path d="M102.754 237.699L102.542 239.467H71.8713L71.6589 237.699H102.754Z" fill="#9D9CB5"/>
<path d="M141.923 229.798C141.923 229.798 133.837 221.923 134.149 232.161C134.461 242.399 141.923 229.798 141.923 229.798Z" fill="#EE8E9E"/>
<path d="M214.535 211.841C214.356 212.634 213.486 213.95 212.129 215.599C205.117 224.154 185.168 241.934 181.258 245.233C176.595 249.173 166.177 247.764 166.177 247.764L146.899 248.081C146.899 248.081 127.774 247.292 126.217 224.458C124.66 201.624 148.606 231.389 148.606 231.389C148.606 231.389 154.602 232.553 156.538 232.334C159.336 232.021 165.244 228.714 165.244 228.714C165.244 228.714 169.287 225.719 173.018 223.201C176.749 220.682 190.743 203.982 193.233 198.152C194.811 194.453 199.895 188.404 203.406 184.481C205.421 182.224 206.916 180.684 206.916 180.684C206.916 180.684 215.622 206.956 214.535 211.841Z" fill="#EE8E9E"/>
<path opacity="0.1" d="M214.535 211.841C214.356 212.634 213.486 213.95 212.129 215.599C205.05 208.297 203.572 193.727 203.406 184.464C205.421 182.207 206.916 180.667 206.916 180.667C206.916 180.667 215.622 206.956 214.535 211.841Z" fill="black"/>
<path opacity="0.1" d="M288.276 199.481L281.552 207.42L272.762 207.96L258.692 208.837C258.692 208.837 239.722 185.679 243.286 180.638C244.581 178.82 244.794 176.419 244.535 174.154C244.502 173.842 244.456 173.53 244.402 173.222C243.976 170.825 243.231 168.498 242.187 166.304L242.653 166.089L242.953 165.949C243.694 168.039 244.205 170.205 244.477 172.408C244.523 172.707 244.565 173.019 244.606 173.34C244.752 174.479 244.885 175.744 245.023 177.136C246.105 189.884 254.021 194.681 257.593 196.208C258.742 196.698 259.865 197.249 260.958 197.857C264.395 199.777 268.358 200.503 272.241 199.924C281.06 198.751 288.251 192.259 288.251 192.259L288.289 198.65L288.276 199.481Z" fill="black"/>
<path d="M288.547 249.017C288.547 249.017 230.708 248.857 223.084 243.504C215.46 238.151 219.977 231.06 219.819 229.326C219.661 227.592 216.401 223.184 215.314 221.918C214.227 220.653 216.247 219.084 215.934 215.621C215.622 212.157 212.982 215.621 212.982 215.621C202.094 204.433 204.426 176.082 204.426 176.082C204.426 176.082 214.835 173.408 219.832 171.353C221.185 170.796 223.292 170.003 225.661 169.147L226.54 168.826C232.648 166.612 239.91 164.11 239.91 164.11C239.91 164.11 241.304 163.111 242.708 166.101C243.349 167.477 243.994 169.691 244.511 173.23C244.556 173.53 244.598 173.842 244.64 174.163C244.785 175.302 244.919 176.567 245.056 177.959C246.139 190.707 254.054 195.503 257.626 197.03C258.775 197.521 259.898 198.072 260.991 198.68C264.428 200.6 268.392 201.326 272.275 200.747C281.094 199.574 288.284 193.082 288.284 193.082L288.322 199.473L288.43 218.675L288.547 249.017Z" fill="#DFE5EE"/>
<path d="M286.057 224.129L285.124 230.115C285.124 230.115 262.111 235.94 253.096 237.674C244.082 239.408 224.641 237.202 223.242 240.981C221.843 244.761 229.15 249.962 229.15 249.962L252.468 249.646L296.471 253.113C296.471 253.113 313.263 238.146 307.821 227.748C302.379 217.35 286.057 224.129 286.057 224.129Z" fill="#EE8E9E"/>
<path opacity="0.1" d="M238.635 176.871C238.635 176.871 228.059 185.691 230.083 189.948C232.107 194.204 238.635 176.871 238.635 176.871Z" fill="black"/>
<path opacity="0.1" d="M225.574 192.778C225.574 192.778 214.843 211.525 215.468 212.942C216.093 214.359 219.045 219.4 218.887 215.621C218.728 211.841 225.574 192.778 225.574 192.778Z" fill="black"/>
<path opacity="0.1" d="M229.929 196.09C229.929 196.09 227.431 207.745 224.953 212.63C222.476 217.515 229.929 196.09 229.929 196.09Z" fill="black"/>
<path opacity="0.1" d="M265.051 160.149C262.994 163.969 260.066 167.234 256.509 169.672C252.952 172.11 248.871 173.65 244.606 174.163H244.556C237.848 174.961 231.09 173.168 225.628 169.143C231.873 166.856 239.876 164.106 239.876 164.106C239.876 164.106 241.271 163.106 242.674 166.097L263.668 156.395C263.904 157.72 264.372 158.991 265.051 160.149Z" fill="black"/>
<path d="M268.332 146.153C268.339 150.897 267.119 155.56 264.792 159.677C263.681 161.64 262.334 163.456 260.783 165.085C256.454 169.65 250.686 172.539 244.477 173.251H244.423C243.431 173.367 242.432 173.424 241.434 173.424C234.824 173.425 228.447 170.96 223.517 166.5C218.587 162.04 215.451 155.898 214.706 149.245C214.59 148.224 214.533 147.197 214.535 146.17C214.535 138.942 217.369 132.011 222.414 126.901C227.458 121.79 234.3 118.919 241.434 118.919C248.567 118.919 255.409 121.79 260.453 126.901C265.498 132.011 268.332 138.942 268.332 146.17V146.153Z" fill="#EE8E9E"/>
<path opacity="0.1" d="M285.749 197.718L288.247 193.921C288.247 193.921 301.929 177.381 315.312 187.935L314.845 202.43C314.845 202.43 314.221 206.838 313.288 209.179C313.02 209.874 312.923 210.624 313.004 211.365C313.085 212.107 313.343 212.817 313.754 213.435C313.754 213.435 314.533 217.232 313.446 217.232C312.36 217.232 310.49 222.901 310.49 222.901C310.49 222.901 307.846 228.731 309.403 231.41C310.961 234.088 314.379 243.065 314.379 243.065C314.379 243.065 308.937 239.758 307.38 234.244C307.38 234.244 294.164 223.846 283.9 230.448L285.749 197.718Z" fill="black"/>
<path opacity="0.1" d="M314.475 185.658C314.35 191.403 313.425 193.883 313.425 193.883L289.946 197.507L289.067 191.331C292.14 188.083 303.316 177.757 314.475 185.658Z" fill="black"/>
<path d="M285.749 196.874L288.247 193.078C288.247 193.078 301.929 176.538 315.312 187.092L314.845 201.586C314.845 201.586 314.221 205.994 313.288 208.335C313.02 209.03 312.923 209.78 313.004 210.522C313.085 211.263 313.343 211.973 313.754 212.592C313.754 212.592 314.533 216.388 313.446 216.388C312.36 216.388 310.49 222.058 310.49 222.058C310.49 222.058 307.846 227.887 309.403 230.566C310.961 233.245 314.379 242.221 314.379 242.221C314.379 242.221 308.937 238.914 307.38 233.401C307.38 233.401 294.164 223.003 283.9 229.604L285.749 196.874Z" fill="#DFE5EE"/>
<path opacity="0.1" d="M307.825 186.164C307.825 186.164 285.282 200.186 286.369 212.482C286.369 212.482 298.965 189.943 307.825 186.164Z" fill="black"/>
<path opacity="0.1" d="M288.272 199.485L288.38 218.687C284.117 218.881 280.099 218.32 276.922 215.523C274.711 213.575 273.424 210.883 272.758 207.973C272.262 205.627 272.08 203.225 272.216 200.831C272.214 200.807 272.214 200.783 272.216 200.759C272.479 195.457 273.682 190.154 273.049 184.886C272.416 179.617 269.264 174.057 264.118 172.948C263.102 172.724 261.961 172.644 261.237 171.889C260.437 171.045 260.475 169.733 260.562 168.565L260.712 166.595C260.749 166.089 260.766 165.587 260.766 165.085C260.763 160.606 259.225 156.267 256.415 152.81C253.605 149.352 249.698 146.99 245.36 146.128L245.193 146.098C243.744 145.803 242.237 145.512 240.788 145.849C238.032 146.495 236.25 149.203 233.71 150.489C228.838 152.953 220.714 150.257 215.614 149.409C215.281 149.355 214.964 149.291 214.66 149.22C214.544 148.199 214.488 147.172 214.49 146.144C214.491 141.971 215.44 137.853 217.261 134.109C219.083 130.365 221.728 127.096 224.995 124.552C228.261 122.008 232.061 120.259 236.1 119.438C240.14 118.618 244.311 118.748 248.293 119.82C252.275 120.891 255.96 122.875 259.065 125.618C262.171 128.361 264.612 131.79 266.202 135.641C267.792 139.491 268.488 143.66 268.235 147.826C267.983 151.992 266.789 156.044 264.747 159.668C264.826 159.829 264.913 159.989 265.005 160.141C270.663 169.632 288.809 163.629 288.809 163.629L289.9 197.498L288.272 199.485Z" fill="black"/>
<path d="M234.688 150.021C237.211 148.73 238.994 146.022 241.767 145.381C243.211 145.043 244.719 145.334 246.176 145.626L246.343 145.659C250.929 146.579 255.023 149.17 257.849 152.943C260.676 156.716 262.038 161.408 261.678 166.131L261.528 168.101C261.436 169.265 261.399 170.585 262.207 171.421C262.927 172.176 264.068 172.264 265.084 172.475C270.23 173.589 273.382 179.119 274.015 184.417C274.648 189.716 273.424 195.035 273.182 200.359C272.941 205.682 273.907 211.558 277.879 215.055C284.125 220.539 293.618 217.417 301.883 216.916C298.228 216.916 295.488 213.094 295.288 209.398C295.088 205.703 296.712 202.185 298.265 198.853C299.818 195.52 301.375 191.934 301.03 188.248C300.555 183.186 296.616 179.132 295.109 174.26C293.352 168.59 295.047 162.503 295.842 156.61C297.337 145.575 295.009 133.152 286.577 126.019C283.046 123.036 278.729 121.201 274.848 118.704C267.894 114.237 262.411 107.686 255.382 103.341C248.354 98.996 238.486 97.3846 232.352 102.953C229.979 105.108 228.447 108.099 226.007 110.179C221.239 114.25 213.661 114.325 209.839 119.32C206.549 123.618 207.44 129.722 208.494 135.059C209.897 142.175 209.106 147.714 216.613 148.979C221.693 149.793 229.812 152.489 234.688 150.021Z" fill="#603556"/>
<path opacity="0.1" d="M296.545 213.516C290.529 214.262 284.566 214.646 280.186 210.799C276.214 207.302 275.235 201.43 275.489 196.102C275.743 190.774 276.959 185.451 276.322 180.157C275.685 174.863 272.537 169.333 267.391 168.219C266.375 168 265.238 167.919 264.513 167.164C263.71 166.321 263.743 165.005 263.835 163.84L263.985 161.87C264.344 157.148 262.982 152.457 260.156 148.685C257.329 144.912 253.235 142.321 248.649 141.403L248.483 141.369C247.025 141.078 245.518 140.787 244.073 141.125C241.317 141.77 239.535 144.499 236.995 145.765C232.119 148.232 224.004 145.537 218.895 144.689C211.4 143.445 212.183 137.898 210.775 130.769C209.989 126.786 209.293 122.374 210.359 118.603C210.159 118.818 209.968 119.025 209.784 119.282C206.495 123.58 207.386 129.684 208.44 135.021C209.843 142.137 209.052 147.676 216.559 148.941C221.664 149.785 229.783 152.485 234.659 150.017C237.182 148.726 238.964 146.018 241.737 145.377C243.182 145.039 244.69 145.33 246.147 145.621L246.313 145.655C250.9 146.574 254.994 149.166 257.82 152.939C260.647 156.712 262.009 161.404 261.649 166.127L261.499 168.097C261.407 169.261 261.37 170.581 262.177 171.416C262.898 172.172 264.039 172.26 265.055 172.471C270.201 173.585 273.353 179.115 273.986 184.413C274.619 189.711 273.399 195.031 273.153 200.354C272.908 205.678 273.878 211.554 277.85 215.051C284.096 220.535 293.589 217.413 301.854 216.911C299.61 216.924 297.724 215.481 296.545 213.516Z" fill="black"/>
<path d="M127.562 227.588L153.232 217.886C153.839 217.656 154.511 217.68 155.1 217.952C155.69 218.224 156.148 218.722 156.375 219.337C156.602 219.952 156.578 220.632 156.31 221.23C156.041 221.827 155.55 222.291 154.943 222.522L129.273 232.224L123.769 231.667L127.562 227.588Z" fill="#5C5C8E"/>
<path opacity="0.1" d="M155.601 218.544C155.827 219.159 155.803 219.84 155.534 220.438C155.264 221.035 154.772 221.499 154.164 221.729L128.478 231.465L124.348 231.043L123.752 231.684L129.257 232.241L154.926 222.539C155.533 222.308 156.025 221.844 156.293 221.246C156.562 220.649 156.585 219.968 156.359 219.354C156.17 218.841 155.818 218.406 155.359 218.118C155.452 218.252 155.533 218.395 155.601 218.544Z" fill="white"/>
<path d="M127.566 227.588L129.273 232.224L124.76 231.764L123.773 231.663L125.122 230.212L127.566 227.588Z" fill="#EFC8C4"/>
<path d="M125.118 230.199C125.223 230.279 125.314 230.378 125.384 230.49C125.427 230.558 125.449 230.636 125.449 230.716C125.449 230.796 125.427 230.874 125.384 230.942C125.313 231.016 125.23 231.077 125.139 231.123C125.036 231.193 124.949 231.285 124.886 231.393C124.822 231.501 124.784 231.622 124.772 231.747L123.781 231.65L125.118 230.199Z" fill="#727A9C"/>
<path d="M208.161 257.196C208.161 257.196 230.395 252.468 267.703 258.462L253.088 247.596L226.498 242.082L207.686 247.144L208.161 257.196Z" fill="white"/>
<path opacity="0.1" d="M208.161 257.196C208.161 257.196 230.395 252.468 267.703 258.462L253.088 247.596L226.498 242.082L207.686 247.144L208.161 257.196Z" fill="black"/>
<path d="M205.554 262.309C205.554 262.309 216.75 231.625 274.257 262.406L253.617 248.95C253.617 248.95 204.172 235.109 198.459 251.059L205.554 262.309Z" fill="white"/>
<path opacity="0.1" d="M205.554 262.288C205.554 262.288 216.751 229.482 274.257 262.879L253.617 248.283C253.617 248.283 204.155 231.73 198.43 249.055L205.554 262.288Z" fill="black"/>
<path d="M205.554 262.301C205.554 262.301 216.75 229.01 274.257 262.406L253.617 247.811C253.617 247.811 204.172 231.73 198.459 249.076L205.554 262.301Z" fill="white"/>
<path opacity="0.1" d="M205.554 262.309C205.554 262.309 216.751 225.31 274.257 262.879L253.6 246.457C253.6 246.457 204.155 229.583 198.442 249.055L205.554 262.309Z" fill="black"/>
<path d="M205.554 262.288C205.554 262.288 216.751 224.838 274.257 262.406L253.6 245.984C253.6 245.984 204.155 229.111 198.442 248.583L205.554 262.288Z" fill="white"/>
<path opacity="0.1" d="M378.077 258.761C378.077 258.761 364.274 273.741 376.699 281.017C376.699 281.017 378.322 283 380.642 281.962C380.642 281.962 379.859 281.258 381.429 279.9C381.984 279.412 382.48 278.86 382.907 278.254C383.486 277.437 383.787 276.451 383.764 275.445C383.764 275.445 385.572 269.501 379.83 261.786C379.83 261.786 379.309 259.204 378.868 258.922L377.819 262.52C377.819 262.52 380.454 263.199 381.445 265.232C381.445 265.232 377.973 262.469 377.635 263.047C377.569 263.165 377.165 264.984 377.165 264.984C377.165 264.984 381.745 266.181 383.177 269.371C383.177 269.371 379.476 265.519 377.007 265.671L376.557 268.447C376.557 268.447 381.458 269.476 383.219 273.045C383.219 273.045 379.213 269.151 376.49 269.063L376.411 271.851C376.411 271.851 381.17 272.948 382.624 275.926C382.624 275.926 377.548 271.906 376.436 272.492C376.436 272.492 376.515 275.061 376.853 275.732C376.853 275.732 380.25 276.575 380.941 278.406C380.941 278.406 377.269 276.082 376.952 276.436C376.952 276.436 377.939 279.752 379.313 281.165C379.313 281.165 377.132 279.229 376.449 276.618C376.449 276.618 375.524 278.25 375.757 279.853C375.757 279.853 374.396 278.326 376.22 275.812C376.22 275.812 375.553 273.197 375.72 272.783C375.72 272.783 373.576 275.006 373.026 277.002C373.026 277.002 372.61 274.504 375.716 272.062V269.252C375.716 269.252 372.726 272.041 372.11 273.766C372.11 273.766 372.068 271.151 375.778 268.548L376.195 265.819C376.195 265.819 373.438 268.021 372.343 269.792C372.343 269.792 372.818 267.354 376.34 265.043L376.828 263.254C376.828 263.254 374.846 264.899 374.329 265.422C373.813 265.945 373.617 265.844 373.617 265.844C374.428 264.43 375.61 263.27 377.032 262.495C377.032 262.495 378.306 258.858 378.077 258.761Z" fill="#6C63FF"/>
<path opacity="0.1" d="M439.78 15.0257C439.78 15.0257 421.339 23.4624 430.033 35.0164C430.033 35.0164 430.778 37.4842 433.309 37.4335C433.309 37.4335 432.856 36.476 434.821 35.8348C435.519 35.6036 436.188 35.2877 436.811 34.8941C437.657 34.3662 438.31 33.5741 438.672 32.6373C438.672 32.6373 442.603 27.8621 440.242 18.5016C440.242 18.5016 440.746 15.9158 440.446 15.4813L438.106 18.392C438.106 18.392 440.28 20.0455 440.421 22.3108C440.421 22.3108 438.273 18.4046 437.74 18.8096C437.631 18.8897 436.57 20.4083 436.57 20.4083C436.57 20.4083 440.317 23.3021 440.446 26.8075C440.446 26.8075 438.498 21.8046 436.157 20.9778L434.688 23.3654C434.688 23.3654 438.818 26.2296 439.093 30.2118C439.093 30.2118 436.878 25.0569 434.4 23.9095L433.264 26.4406C433.264 26.4406 437.24 29.3132 437.427 32.6289C437.427 32.6289 434.275 26.9341 433.026 27.0438C433.026 27.0438 432.123 29.4398 432.194 30.1949C432.194 30.1949 435 32.304 434.95 34.2614C434.95 34.2614 432.452 30.6842 432.035 30.8867C432.035 30.8867 431.681 34.3288 432.414 36.1723C432.414 36.1723 431.136 33.5316 431.502 30.8572C431.502 30.8572 430.024 32.0045 429.633 33.5738C429.633 33.5738 428.958 31.6291 431.598 30.0219C431.598 30.0219 431.977 27.3517 432.289 27.0353C432.289 27.0353 429.462 28.246 428.205 29.8574C428.205 29.8574 428.767 27.3897 432.568 26.352L433.651 23.7703C433.651 23.7703 429.833 25.1708 428.604 26.5207C428.604 26.5207 429.562 24.0909 433.976 23.146L435.396 20.7922C435.396 20.7922 432.014 21.7498 430.328 22.952C430.328 22.952 431.698 20.8934 435.829 20.1341L436.957 18.6746C436.957 18.6746 434.5 19.417 433.813 19.6954C433.126 19.9738 432.981 19.8093 432.981 19.8093C434.275 18.8172 435.816 18.2096 437.432 18.0545C437.432 18.0545 439.93 15.1945 439.78 15.0257Z" fill="#6C63FF"/>
<path opacity="0.1" d="M264.747 20.248C264.747 20.248 237.041 28.2629 250.511 40.1924C250.511 40.1924 251.706 42.7234 255.54 42.7234C255.54 42.7234 254.824 41.7447 257.789 41.1499C258.81 40.9419 259.81 40.6427 260.778 40.2556C261.921 39.8501 262.893 39.0632 263.535 38.0241C263.535 38.0241 269.364 33.2996 265.538 23.7746C265.538 23.7746 266.233 21.1761 265.767 20.7289L262.302 23.6058C262.302 23.6058 265.633 25.3396 265.912 27.6301C265.912 27.6301 262.552 23.6269 261.749 24.0192C261.586 24.0994 260.016 25.6011 260.016 25.6011C260.016 25.6011 265.796 28.6299 266.058 32.1775C266.058 32.1775 262.977 27.0691 259.396 26.1706L257.231 28.5413C257.231 28.5413 263.56 31.549 264.08 35.5817C264.08 35.5817 260.591 30.313 256.81 29.0855L255.145 31.6165C255.145 31.6165 261.241 34.6284 261.64 37.9862C261.64 37.9862 256.715 32.1438 254.824 32.2155C254.824 32.2155 253.521 34.6199 253.638 35.3834C253.638 35.3834 257.943 37.6107 257.922 39.568C257.922 39.568 254.033 35.8812 253.392 36.0753C253.392 36.0753 252.951 39.5469 254.108 41.4283C254.108 41.4283 252.101 38.7244 252.584 36.0331C252.584 36.0331 250.381 37.1509 249.828 38.7244C249.828 38.7244 248.753 36.746 252.709 35.1936C252.709 35.1936 253.213 32.5023 253.675 32.1902C253.675 32.1902 249.428 33.3376 247.567 34.9321C247.567 34.9321 248.35 32.4517 254.079 31.5068L255.653 28.9252C255.653 28.9252 249.907 30.2413 248.083 31.5701C248.083 31.5701 249.47 29.1403 256.132 28.2966L258.214 25.9555C258.214 25.9555 253.117 26.8287 250.594 28.0014C250.594 28.0014 252.613 25.9555 258.846 25.3016L260.512 23.8589C260.512 23.8589 256.81 24.5423 255.778 24.8039C254.745 25.0654 254.529 24.8967 254.529 24.8967C256.609 23.8759 258.88 23.3124 261.191 23.2431C261.191 23.2431 264.988 20.4252 264.747 20.248Z" fill="#6C63FF"/>
<path opacity="0.1" d="M346.486 333.004C346.486 333.004 360.435 318.16 348.081 310.761C348.081 310.761 346.474 308.761 344.146 309.774C344.146 309.774 344.925 310.487 343.342 311.832C342.783 312.314 342.281 312.861 341.848 313.461C341.259 314.272 340.949 315.255 340.965 316.262C340.965 316.262 339.095 322.188 344.766 329.959C344.766 329.959 345.262 332.544 345.699 332.836L346.786 329.246C346.786 329.246 344.154 328.541 343.184 326.5C343.184 326.5 346.628 329.292 346.969 328.718C347.04 328.6 347.46 326.791 347.46 326.791C347.46 326.791 342.88 325.525 341.489 322.345C341.489 322.345 345.154 326.234 347.627 326.103L348.102 323.332C348.102 323.332 343.213 322.256 341.477 318.691C341.477 318.691 345.445 322.623 348.168 322.741L348.272 319.948C348.272 319.948 343.521 318.784 342.081 315.789C342.081 315.789 347.119 319.864 348.235 319.286C348.235 319.286 348.181 316.721 347.818 316.047C347.818 316.047 344.429 315.144 343.755 313.33C343.755 313.33 347.406 315.692 347.723 315.338C347.723 315.338 346.769 312.014 345.408 310.588C345.408 310.588 347.573 312.545 348.231 315.161C348.231 315.161 349.172 313.537 348.951 311.934C348.951 311.934 350.3 313.478 348.451 315.971C348.451 315.971 349.093 318.594 348.922 319.004C348.922 319.004 351.087 316.802 351.653 314.832C351.653 314.832 352.07 317.333 348.918 319.742L348.876 322.551C348.876 322.551 351.891 319.792 352.524 318.071C352.524 318.071 352.524 320.691 348.805 323.256L348.389 325.981C348.389 325.981 351.166 323.804 352.278 322.045C352.278 322.045 351.778 324.475 348.235 326.753L347.731 328.537C347.731 328.537 349.73 326.913 350.263 326.394C350.796 325.875 350.979 325.972 350.979 325.972C350.155 327.38 348.961 328.528 347.531 329.288C347.531 329.288 346.278 332.903 346.486 333.004Z" fill="#6C63FF"/>
<path opacity="0.1" d="M210.442 0.523284C210.442 0.523284 212.82 20.8726 226.327 15.9624C226.327 15.9624 228.871 15.9835 229.588 13.52C229.588 13.52 228.547 13.6718 228.538 11.5796C228.529 10.8353 228.432 10.0947 228.251 9.37336C228.011 8.39742 227.463 7.52777 226.69 6.8972C226.69 6.8972 223.375 1.65802 213.836 1.14338C213.836 1.14338 211.554 -0.122121 211.054 0.0381763L213.091 3.1724C213.091 3.1724 215.302 1.56943 217.475 2.11782C217.475 2.11782 213.153 3.02054 213.374 3.65329C213.415 3.78406 214.523 5.2647 214.523 5.2647C214.523 5.2647 218.416 2.48059 221.747 3.42972C221.747 3.42972 216.455 3.80093 214.973 5.81308L216.751 7.956C216.751 7.956 220.689 4.82599 224.524 5.75825C224.524 5.75825 219.003 6.34881 217.175 8.39471L219.249 10.2592C219.249 10.2592 223.146 7.28106 226.327 8.08255C226.327 8.08255 220.015 9.41555 219.74 10.6515C219.74 10.6515 221.726 12.2461 222.459 12.4148C222.459 12.4148 225.307 10.3436 227.114 10.9763C227.114 10.9763 222.992 12.3178 223.055 12.7902C223.055 12.7902 226.19 14.1654 228.143 14.0135C228.143 14.0135 225.274 14.4354 222.867 13.2964C222.867 13.2964 223.5 15.0639 224.862 15.9202C224.862 15.9202 222.83 15.9835 222.109 12.9674C222.109 12.9674 219.711 11.7947 219.507 11.4024C219.507 11.4024 219.798 14.4944 220.935 16.1944C220.935 16.1944 218.778 14.9289 218.945 10.9257L216.863 9.09917C216.863 9.09917 217.034 13.2121 217.933 14.8066C217.933 14.8066 215.934 13.1488 216.367 8.59719L214.581 6.51754C214.581 6.51754 214.46 10.0694 215.085 12.0604C215.085 12.0604 213.557 10.12 214.09 5.90167L213.053 4.37041C213.053 4.37041 213.016 6.96469 213.053 7.71556C213.091 8.46642 212.911 8.53813 212.911 8.53813C212.364 6.9925 212.252 5.32319 212.587 3.71657C212.587 3.71657 210.651 0.422044 210.442 0.523284Z" fill="#6C63FF"/>
<path opacity="0.1" d="M311.398 286.851C311.398 286.851 291.903 281.367 291.278 295.896C291.278 295.896 290.296 298.275 292.273 299.878C292.273 299.878 292.527 298.848 294.443 299.629C295.126 299.903 295.839 300.094 296.566 300.198C297.55 300.342 298.553 300.155 299.423 299.667C299.423 299.667 305.46 298.545 309.557 289.821C309.557 289.821 311.577 288.163 311.639 287.632L308.004 288.353C308.004 288.353 308.629 291.036 307.305 292.867C307.305 292.867 308.137 288.471 307.459 288.437C307.321 288.437 305.548 288.906 305.548 288.906C305.548 288.906 306.614 293.571 304.486 296.334C304.486 296.334 306.151 291.23 304.873 289.079L302.233 289.96C302.233 289.96 303.599 294.837 301.292 298.076C301.292 298.076 302.849 292.681 301.667 290.192L299.194 291.411C299.194 291.411 300.443 296.195 298.498 298.878C298.498 298.878 299.672 292.458 298.644 291.728C298.644 291.728 296.437 292.993 296.008 293.609C296.008 293.609 296.841 297.064 295.559 298.519C295.559 298.519 295.892 294.145 295.438 294.027C295.438 294.027 292.99 296.444 292.39 298.334C292.39 298.334 293.077 295.478 295.047 293.66C295.047 293.66 293.189 293.584 291.895 294.533C291.895 294.533 292.602 292.605 295.642 293.082C295.642 293.082 297.624 291.272 298.061 291.234C298.061 291.234 295.146 290.331 293.14 290.753C293.14 290.753 295.13 289.218 298.707 290.888L301.171 289.623C301.171 289.623 297.349 288.227 295.555 288.467C295.555 288.467 297.824 287.201 301.8 289.349L304.373 288.459C304.373 288.459 301.176 287.003 299.119 286.834C299.119 286.834 301.471 286.138 305.123 288.235L306.913 287.843C306.913 287.843 304.557 286.822 303.853 286.577C303.149 286.333 303.153 286.155 303.153 286.155C304.766 286.23 306.327 286.756 307.663 287.674C307.663 287.674 311.41 287.083 311.398 286.851Z" fill="#6C63FF"/>
</g>
<defs>
<linearGradient id="paint0_linear" x1="221.685" y1="252.797" x2="221.685" y2="97.9794" gradientUnits="userSpaceOnUse">
<stop stop-color="#808080" stop-opacity="0.25"/>
<stop offset="0.54" stop-color="#808080" stop-opacity="0.12"/>
<stop offset="1" stop-color="#808080" stop-opacity="0.1"/>
</linearGradient>
<clipPath id="clip0">
<rect width="441" height="333" fill="white"/>
</clipPath>
</defs>
</svg>
