<svg width="408" height="297" viewBox="0 0 408 297" fill="none" xmlns="http://www.w3.org/2000/svg">
<g clip-path="url(#clip0)">
<path opacity="0.1" d="M3.1336 156.356C10.3452 143.933 26.6536 146.099 38.2187 152.584C49.7837 159.069 61.3238 168.749 74.0514 166.889C84.783 165.32 93.5828 155.451 98.3369 144.065C103.091 132.68 104.486 119.842 105.824 107.268C107.505 91.4713 109.185 75.6643 110.864 59.8474C111.48 54.0641 112.206 47.9601 115.289 43.3841C119.364 37.348 126.833 35.4919 133.222 37.3065C139.611 39.1211 145.059 43.9877 149.72 49.4163C164.651 66.8002 173.111 90.2992 186.164 109.645C188.822 113.583 191.823 117.477 195.794 119.378C201.517 122.113 208.089 120.178 213.68 117.133C231.924 107.215 244.179 86.9757 256.223 68.0904C262.083 58.9118 269.226 49.0957 278.974 48.096C289.23 47.0208 298.134 56.2371 304.161 65.9966C323.507 97.3992 327.653 140.27 351.022 167.659C353.924 171.054 357.125 174.193 360.813 176.302C362.03 176.995 363.298 177.581 364.605 178.056C384.995 185.499 391.792 215.378 376.71 233.093C376.385 233.471 376.052 233.848 375.716 234.225C373.477 236.719 370.94 239.077 367.914 239.82C365.099 240.506 362.19 239.714 359.4 238.858C341.564 233.369 323.943 224.979 305.503 225.386C287.56 225.763 270.539 234.504 252.796 237.651C240.866 239.767 228.729 239.344 216.667 238.888C176.493 237.364 136.327 235.591 96.1692 233.569C76.2371 232.603 56.2978 231.682 36.3693 230.607C21.016 229.766 11.2359 227.914 9.4545 209.123C7.89484 192.667 -6.11343 172.291 3.1336 156.356Z" fill="#6C63FF"/>
<path d="M282.562 297C335.902 297 379.143 290.627 379.143 282.766C379.143 274.905 335.902 268.532 282.562 268.532C229.222 268.532 185.982 274.905 185.982 282.766C185.982 290.627 229.222 297 282.562 297Z" fill="#30374E"/>
<path d="M53.2072 221.361C53.2072 221.361 57.929 220.229 61.0233 223.575C61.0233 223.575 59.0344 225.462 54.3554 223.372L53.2072 221.361Z" fill="#6C63FF"/>
<path d="M52.6848 221.312C52.6848 221.312 49.8875 225.492 51.6618 229.781C51.6618 229.781 54.0799 228.555 54.012 223.198L52.6848 221.312Z" fill="#6C63FF"/>
<path d="M49.5369 215.012C49.5369 215.012 51.2146 211.182 59.1953 215.811C59.1953 215.811 58.3368 218.369 54.9456 218.407C51.5545 218.445 50.5385 216.894 49.5369 215.012Z" fill="#6C63FF"/>
<path d="M49.0289 214.778C49.0289 214.778 45.0332 214.581 45.2586 224.179C45.2586 224.179 47.8091 224.556 49.401 221.395C50.9928 218.233 50.1486 216.6 49.0289 214.778Z" fill="#6C63FF"/>
<path d="M46.2459 207.308C46.2459 207.308 48.0345 200.638 56.4302 204.713C56.4302 204.713 54.9635 210.82 47.201 209.481L46.2459 207.308Z" fill="#6C63FF"/>
<path d="M43.1302 197.749C43.1302 197.749 46.9149 190.867 54.7525 196.451C54.7525 196.451 52.5382 202.815 43.9172 200.054L43.1302 197.749Z" fill="#6C63FF"/>
<path d="M41.6492 188.543C41.6492 188.543 46.1672 182.149 53.9405 187.672C53.9405 187.672 49.6264 193.308 41.7458 190.086L41.6492 188.543Z" fill="#6C63FF"/>
<path d="M40.3113 179.595C40.3113 179.595 44.8758 172.933 52.3271 178.407C52.3271 178.407 47.0758 184.379 40.4043 181.074L40.3113 179.595Z" fill="#6C63FF"/>
<path d="M40.2469 171.575C40.2469 171.575 44.951 163.075 51.9265 168.115C51.9265 168.115 46.7682 175.498 40.3471 173.118L40.2469 171.575Z" fill="#6C63FF"/>
<path d="M40.8801 162.151C40.8801 162.151 45.8882 153.7 52.7171 159.442C52.7171 159.442 46.6001 166.893 40.9588 163.649L40.8801 162.151Z" fill="#6C63FF"/>
<path d="M42.1787 153.678C42.1787 153.678 48.2599 145.639 54.1802 148.257C54.1802 148.257 47.8557 156.783 42.0177 155.711L42.1787 153.678Z" fill="#6C63FF"/>
<path d="M43.9673 145.605C43.9673 145.605 50.9571 135.796 55.5466 138.58C55.5466 138.58 50.4277 146.159 43.5344 147.389L43.9673 145.605Z" fill="#6C63FF"/>
<path d="M46.693 136.196C46.693 136.196 52.8351 128.153 57.7823 129.692C57.7823 129.692 52.6133 137.95 45.9418 138.625L46.693 136.196Z" fill="#6C63FF"/>
<path d="M49.1434 127.402C49.1434 127.402 56.0045 119.631 59.2705 120.679C59.2705 120.679 54.4949 129.115 48.9252 129.036L49.1434 127.402Z" fill="#6C63FF"/>
<path d="M51.5652 119.268C51.5652 119.268 57.3209 110.158 60.8015 110.592C60.8015 110.592 57.4711 118.586 51.6224 120.147L51.5652 119.268Z" fill="#6C63FF"/>
<path d="M54.0657 108.362C54.0657 108.362 59.2132 101.323 62.2252 101.126C62.2252 101.126 58.3941 110.309 53.9727 110.558L54.0657 108.362Z" fill="#6C63FF"/>
<path d="M55.4965 101.115L59.9966 86.8965C59.9966 86.8965 61.0698 99.3836 54.9886 103.73L55.4965 101.115Z" fill="#6C63FF"/>
<path d="M56.7092 85.7006C56.7092 85.7006 56.8666 74.085 56.2334 73.1871C56.2334 73.1871 60.6941 82.5204 56.9989 90.8086L56.7092 85.7006Z" fill="#6C63FF"/>
<path d="M46.017 207.169C46.017 207.169 40.2004 203.917 37.1562 213.103C37.1562 213.103 42.3432 216.226 46.8147 209.402L46.017 207.169Z" fill="#6C63FF"/>
<path d="M42.9263 197.39C42.9263 197.39 35.8721 194.58 33.1427 204.135C33.1427 204.135 38.6766 207.587 43.699 199.699L42.9263 197.39Z" fill="#6C63FF"/>
<path d="M41.3666 189.121C41.3666 189.121 36.0759 183.42 29.0754 190C29.0754 190 34.062 194.976 41.4632 190.675L41.3666 189.121Z" fill="#6C63FF"/>
<path d="M40.1432 179.61C40.1432 179.61 34.7775 173.646 28.0845 180.123C28.0845 180.123 34.0441 185.303 40.247 181.085L40.1432 179.61Z" fill="#6C63FF"/>
<path d="M40.2613 171.801C40.2613 171.801 36.1976 162.947 28.8751 167.399C28.8751 167.399 33.4754 175.181 40.0502 173.337L40.2613 171.801Z" fill="#6C63FF"/>
<path d="M41.2987 162.083C41.2987 162.083 37.2457 153.067 29.8302 157.907C29.8302 157.907 35.0744 166.059 41.0411 163.539L41.2987 162.083Z" fill="#6C63FF"/>
<path d="M42.9192 153.67C42.9192 153.67 40.9016 143.616 34.4949 143.156C34.4949 143.156 36.5267 153.768 42.1894 155.56L42.9192 153.67Z" fill="#6C63FF"/>
<path d="M44.1318 145.612C44.1318 145.612 42.819 133.423 37.5283 133.366C37.5283 133.366 38.2974 142.636 43.6489 147.381L44.1318 145.612Z" fill="#6C63FF"/>
<path d="M47.2189 135.807C47.2189 135.807 44.9975 125.75 39.8964 124.867C39.8964 124.867 41.1484 134.676 46.8827 138.342L47.2189 135.807Z" fill="#6C63FF"/>
<path d="M49.7444 127.432C49.7444 127.432 49.0289 116.843 45.8452 115.504C45.8452 115.504 44.5539 125.229 48.9395 128.851L49.7444 127.432Z" fill="#6C63FF"/>
<path d="M51.7942 119.137C51.7942 119.137 50.6673 108.253 47.3906 106.944C47.3906 106.944 46.8541 115.655 51.3613 119.884L51.7942 119.137Z" fill="#6C63FF"/>
<path d="M54.5664 109.2C54.5664 109.2 53.9798 100.33 51.5795 98.4065C51.5795 98.4065 49.9411 108.287 53.4933 111.067L54.5664 109.2Z" fill="#6C63FF"/>
<path d="M55.1889 100.696L52.041 86.0815C52.041 86.0815 49.8124 98.3951 55.4643 103.352L55.1889 100.696Z" fill="#6C63FF"/>
<path d="M54.6988 85.9835C54.6988 85.9835 48.3922 76.4465 48.4423 75.3374C48.4423 75.3374 49.7086 85.7043 57.1742 90.386L54.6988 85.9835Z" fill="#6C63FF"/>
<path d="M55.1889 83.007C55.1889 83.007 48.9431 69.2787 46.4498 68.2941C46.4498 68.2941 54.3518 71.8516 55.611 82.5542L55.1889 83.007Z" fill="#6C63FF"/>
<path d="M53.9512 110.629L53.5934 110.535C57.117 94.6905 57.6142 84.7008 54.9886 82.4071L55.2318 82.0978C58.0006 84.5273 57.5641 94.3962 53.9512 110.629Z" fill="#444053"/>
<path d="M43.8349 147.849L43.2804 147.687C43.6703 146.231 44.0924 144.748 44.5431 143.288C48.4781 130.567 51.7476 118.767 53.7544 109.735L54.2087 109.452C52.1983 118.506 49.0182 130.741 45.0905 143.473C44.6433 144.929 44.2212 146.401 43.8349 147.849Z" fill="#444053"/>
<path d="M60.6656 232.505C60.5869 232.426 52.7171 224.254 46.6716 209.779C43.1295 201.306 40.8825 192.295 40.0145 183.081C38.9413 171.563 40.408 158.51 43.5917 146.525L44.0495 147.023C36.8952 173.925 41.8353 196.194 47.3513 209.421C53.3359 223.756 61.1163 231.848 61.195 231.928L60.6656 232.505Z" fill="#444053"/>
<path d="M69.3295 189.419C69.3295 189.419 72.1913 188.728 74.0586 190.758C74.0586 190.758 72.8531 191.89 70.0271 190.633L69.3295 189.419Z" fill="#6C63FF"/>
<path d="M69.0183 189.392C69.0183 189.392 67.3299 191.92 68.403 194.512C68.403 194.512 69.8625 193.757 69.8339 190.532L69.0183 189.392Z" fill="#6C63FF"/>
<path d="M67.1152 185.578C67.1152 185.578 68.1276 183.266 72.9461 186.065C72.9461 186.065 72.4274 187.608 70.3776 187.631C68.3279 187.653 67.7269 186.718 67.1152 185.578Z" fill="#6C63FF"/>
<path d="M66.8076 185.439C66.8076 185.439 64.3894 185.322 64.5254 191.12C64.5254 191.12 66.0671 191.346 67.0294 189.438C67.9916 187.529 67.4837 186.54 66.8076 185.439Z" fill="#6C63FF"/>
<path d="M65.1156 180.923C65.1156 180.923 66.2138 176.89 71.2791 179.346C71.2791 179.346 70.3955 183.039 65.7023 182.228L65.1156 180.923Z" fill="#6C63FF"/>
<path d="M63.2411 175.144C63.2411 175.144 65.527 170.994 70.2668 174.359C70.2668 174.359 68.9253 178.207 63.7169 176.536L63.2411 175.144Z" fill="#6C63FF"/>
<path d="M62.3433 169.579C62.3433 169.579 65.0762 165.712 69.7731 169.051C69.7731 169.051 67.1689 172.446 62.4041 170.511L62.3433 169.579Z" fill="#6C63FF"/>
<path d="M61.5349 164.169C61.5349 164.169 64.2964 160.14 68.8001 163.452C68.8001 163.452 65.6271 167.063 61.5921 165.063L61.5349 164.169Z" fill="#6C63FF"/>
<path d="M61.499 159.318C61.499 159.318 64.3608 154.183 68.5568 157.228C68.5568 157.228 65.4375 161.691 61.5563 160.246L61.499 159.318Z" fill="#6C63FF"/>
<path d="M61.8711 153.625C61.8711 153.625 64.9081 148.513 69.0255 151.973C69.0255 151.973 65.3267 156.477 61.914 154.515L61.8711 153.625Z" fill="#6C63FF"/>
<path d="M62.6652 148.502C62.6652 148.502 66.339 143.643 69.9198 145.227C69.9198 145.227 66.0958 150.381 62.5758 149.732L62.6652 148.502Z" fill="#6C63FF"/>
<path d="M63.7455 143.62C63.7455 143.62 67.9702 137.694 70.7461 139.372C70.7461 139.372 67.6518 143.956 63.4844 144.699L63.7455 143.62Z" fill="#6C63FF"/>
<path d="M65.3946 137.939C65.3946 137.939 69.1077 133.076 72.1054 134.008C72.1054 134.008 68.9825 138.999 64.951 139.406L65.3946 137.939Z" fill="#6C63FF"/>
<path d="M66.8756 132.616C66.8756 132.616 71.0215 127.919 72.9962 128.553C72.9962 128.553 70.1129 133.649 66.7432 133.604L66.8756 132.616Z" fill="#6C63FF"/>
<path d="M68.3386 127.7C68.3386 127.7 71.8192 122.192 73.9226 122.449C73.9226 122.449 71.9122 127.281 68.3744 128.228L68.3386 127.7Z" fill="#6C63FF"/>
<path d="M69.8554 121.106C69.8554 121.106 72.9675 116.85 74.7883 116.73C74.7883 116.73 72.4703 122.283 69.7982 122.422L69.8554 121.106Z" fill="#6C63FF"/>
<path d="M70.7175 116.722L73.4325 108.136C73.4325 108.136 74.0764 115.681 70.3955 118.322L70.7175 116.722Z" fill="#6C63FF"/>
<path d="M71.4508 107.404C71.4508 107.404 71.5438 100.383 71.161 99.84C71.161 99.84 73.8582 105.48 71.6225 110.494L71.4508 107.404Z" fill="#6C63FF"/>
<path d="M64.9832 180.84C64.9832 180.84 61.4704 178.871 59.6174 184.424C59.6174 184.424 62.7546 186.31 65.459 182.191L64.9832 180.84Z" fill="#6C63FF"/>
<path d="M63.1195 174.91C63.1195 174.91 58.8519 173.212 57.2028 178.988C57.2028 178.988 60.5475 181.074 63.5845 176.309L63.1195 174.91Z" fill="#6C63FF"/>
<path d="M62.1716 169.926C62.1716 169.926 58.9772 166.482 54.7418 170.454C54.7418 170.454 57.7573 173.472 62.2324 170.862L62.1716 169.926Z" fill="#6C63FF"/>
<path d="M61.4347 164.177C61.4347 164.177 58.1901 160.574 54.1443 164.49C54.1443 164.49 57.7466 167.617 61.4919 165.071L61.4347 164.177Z" fill="#6C63FF"/>
<path d="M61.5062 159.442C61.5062 159.442 59.0487 154.089 54.6201 156.779C54.6201 156.779 57.4032 161.483 61.3774 160.37L61.5062 159.442Z" fill="#6C63FF"/>
<path d="M62.1322 153.576C62.1322 153.576 59.6819 148.125 55.1889 151.052C55.1889 151.052 58.3583 155.983 61.9677 154.447L62.1322 153.576Z" fill="#6C63FF"/>
<path d="M63.1123 148.502C63.1123 148.502 61.8925 142.421 58.0184 142.145C58.0184 142.145 59.2454 148.558 62.6688 149.641L63.1123 148.502Z" fill="#6C63FF"/>
<path d="M63.8457 143.624C63.8457 143.624 63.0587 136.256 59.8392 136.219C59.8392 136.219 60.3043 141.824 63.538 144.695L63.8457 143.624Z" fill="#6C63FF"/>
<path d="M65.7094 137.697C65.7094 137.697 64.368 131.616 61.2844 131.08C61.2844 131.08 62.0428 137.007 65.5091 139.225L65.7094 137.697Z" fill="#6C63FF"/>
<path d="M67.2369 132.635C67.2369 132.635 66.7969 126.221 64.8831 125.422C64.8831 125.422 64.0997 131.303 66.7504 133.491L67.2369 132.635Z" fill="#6C63FF"/>
<path d="M68.4782 127.617C68.4782 127.617 67.7985 121.038 65.8167 120.246C65.8167 120.246 65.4912 125.527 68.217 128.07L68.4782 127.617Z" fill="#6C63FF"/>
<path d="M70.1523 121.611C70.1523 121.611 69.7945 116.251 68.3637 115.085C68.3637 115.085 67.3728 121.061 69.5191 122.739L70.1523 121.611Z" fill="#6C63FF"/>
<path d="M70.5386 116.469L68.6356 107.634C68.6356 107.634 67.287 115.081 70.7032 118.076L70.5386 116.469Z" fill="#6C63FF"/>
<path d="M70.2346 107.578C70.2346 107.578 66.4249 101.817 66.4535 101.142C66.4535 101.142 67.2154 107.408 71.7298 110.237L70.2346 107.578Z" fill="#6C63FF"/>
<path d="M70.5207 105.774C70.5207 105.774 66.7432 97.4746 65.2372 96.8899C65.2372 96.8899 70.0163 99.0402 70.7747 105.514L70.5207 105.774Z" fill="#6C63FF"/>
<path d="M69.7802 122.471L69.5549 122.415C71.7012 112.836 71.9874 106.797 70.3991 105.412L70.5457 105.223C72.2306 106.695 71.9659 112.663 69.7802 122.471Z" fill="#444053"/>
<path d="M63.6668 144.978L63.3306 144.876C63.5667 143.997 63.8242 143.103 64.0961 142.236C66.4678 134.543 68.4495 127.41 69.6622 121.951L69.9376 121.777C68.7214 127.247 66.8004 134.649 64.4252 142.349C64.1533 143.22 63.8993 144.099 63.6668 144.978Z" fill="#444053"/>
<path d="M73.8403 196.156C73.7938 196.107 69.0362 191.169 65.3803 182.417C63.2405 177.295 61.8822 171.848 61.3559 166.278C60.7013 159.314 61.5956 151.422 63.5237 144.175L63.7992 144.477C59.4743 160.74 62.4613 174.204 65.7952 182.202C69.4154 190.879 74.1158 195.757 74.1659 195.806L73.8403 196.156Z" fill="#444053"/>
<path d="M84.6005 215.019C83.6825 215.191 82.7835 215.462 81.9177 215.826C62.6223 223.952 62.9442 277.145 62.9442 277.145H57.2637C57.2637 277.145 55.4751 254.318 47.6804 221.749C40.6583 192.448 69.4583 166.187 75.307 161.208C75.9652 160.653 76.3301 160.359 76.3301 160.359C105.338 171.601 84.6005 215.019 84.6005 215.019Z" fill="#AFC0E0"/>
<path opacity="0.2" d="M78.4406 161.283C77.7717 160.959 77.0813 160.649 76.348 160.366C76.348 160.366 75.9902 160.661 75.3249 161.215C69.4762 166.195 40.6762 192.456 47.6983 221.757C55.4929 254.325 57.2637 277.145 57.2637 277.145H60.4581C60.4581 277.145 58.6874 254.317 50.8748 221.749C43.8814 192.584 72.4023 166.421 78.4406 161.283Z" fill="white"/>
<path d="M180.305 221.757C172.492 254.325 170.732 277.145 170.732 277.145H165.041C165.041 277.145 165.399 221.553 144.747 215.347C144.3 215.206 143.845 215.094 143.384 215.012C143.384 215.012 122.637 171.593 151.655 160.359C151.655 160.359 151.948 160.589 152.478 161.038C157.854 165.576 187.405 192.116 180.305 221.757Z" fill="#AFC0E0"/>
<path opacity="0.1" d="M84.6005 215.019C83.6825 215.191 82.7835 215.462 81.9177 215.826C78.4291 197.821 76.2195 179.567 75.307 161.215C75.9652 160.661 76.3301 160.366 76.3301 160.366C105.338 171.601 84.6005 215.019 84.6005 215.019Z" fill="black"/>
<path opacity="0.1" d="M152.488 161.046C151.306 179.344 148.72 197.511 144.758 215.37C144.311 215.228 143.856 215.116 143.395 215.034C143.395 215.034 122.648 171.616 151.666 160.382C151.655 160.366 151.948 160.597 152.488 161.046Z" fill="black"/>
<path d="M141.868 223.251C139.865 231.586 137.517 240.137 134.824 248.904C134.824 248.904 122.047 262.942 91.1826 248.904C91.1826 248.904 88.099 239.737 84.7078 224.152C77.2422 189.887 68.2885 124.588 87.3657 57.516C93.0466 37.3529 101.121 18.0277 111.397 0C111.397 0 127.695 19.7341 139.657 57.5047C151.619 95.2753 159.231 151.09 141.868 223.251Z" fill="#E3E8F4"/>
<path d="M113.991 137.784C128.142 137.784 139.614 125.686 139.614 110.762C139.614 95.8373 128.142 83.7389 113.991 83.7389C99.8393 83.7389 88.3673 95.8373 88.3673 110.762C88.3673 125.686 99.8393 137.784 113.991 137.784Z" fill="#AFC0E0"/>
<path d="M132.163 110.777C132.163 114.406 131.186 117.96 129.345 121.027C127.504 124.093 124.876 126.545 121.766 128.098C118.655 129.651 115.191 130.24 111.775 129.798C108.36 129.355 105.134 127.899 102.472 125.599C101.173 124.471 100.027 123.159 99.0667 121.702C98.6354 121.051 98.2435 120.372 97.8933 119.668C96.5305 116.925 95.8197 113.874 95.8221 110.777C95.8221 110.622 95.8221 110.471 95.8221 110.32C95.9153 106.222 97.2507 102.263 99.6325 99.0233C102.014 95.7836 105.317 93.4336 109.058 92.3177C110.486 91.9026 111.956 91.667 113.436 91.616H113.98C116.367 91.6145 118.731 92.109 120.937 93.0712C123.142 94.0334 125.147 95.4444 126.835 97.2238C128.524 99.0031 129.863 101.116 130.777 103.441C131.692 105.767 132.162 108.259 132.163 110.777Z" fill="#6C63FF"/>
<path d="M139.654 57.5047C110.582 72.1836 87.3478 57.5047 87.3478 57.5047C93.0353 37.3446 101.116 18.0233 111.397 0C111.397 0 127.695 19.7341 139.654 57.5047Z" fill="#AFC0E0"/>
<path d="M141.868 223.251C140.508 228.895 138.994 234.635 137.325 240.472C136.533 243.257 135.698 246.063 134.821 248.893C134.821 248.893 122.043 262.93 91.179 248.893C91.179 248.893 90.1774 245.916 88.6749 240.472C87.5517 236.36 86.153 230.849 84.6935 224.141C84.6935 224.141 96.1835 229.313 112.492 229.313C122.567 229.35 132.549 227.29 141.868 223.251Z" fill="#AFC0E0"/>
<path d="M137.325 240.472C136.533 243.257 135.698 246.063 134.821 248.893C134.821 248.893 122.043 262.93 91.179 248.893C91.179 248.893 90.1773 245.916 88.6749 240.472C88.6713 240.472 120.129 250.017 137.325 240.472Z" fill="#E3E8F4"/>
<path opacity="0.2" d="M109.069 92.2912L109.029 92.3213L95.8294 110.294C95.8294 110.445 95.8294 110.595 95.8294 110.75C95.8269 113.847 96.5377 116.899 97.9005 119.642L113.454 91.5895L109.069 92.2912Z" fill="white"/>
<path opacity="0.2" d="M113.282 108.513L102.472 125.584C101.173 124.455 100.027 123.144 99.0667 121.687L111.945 107.11L113.282 108.513Z" fill="white"/>
<path opacity="0.2" d="M98.0865 248.896C98.0865 248.896 95.003 239.725 91.6118 224.145C84.1462 189.875 75.1925 124.576 94.2697 57.5047C99.3977 39.3566 106.46 21.88 115.321 5.40982C112.9 1.82969 111.387 0.00378418 111.387 0.00378418C101.109 18.0263 93.0319 37.3463 87.3478 57.5047C68.2707 124.576 77.2244 189.875 84.69 224.145C88.0811 239.725 91.1647 248.896 91.1647 248.896C103.359 254.438 112.728 255.6 119.603 254.982C113.73 254.51 106.597 252.763 98.0865 248.896Z" fill="white"/>
<path d="M335.176 274.991C335.176 274.991 351.895 253.05 350.786 231.075C350.266 221.863 352.593 212.721 357.419 205.022C359.741 201.38 362.375 197.97 365.288 194.836" stroke="#535461" stroke-width="2" stroke-miterlimit="10"/>
<path d="M364.655 180.998C363.46 184.058 365.249 195.213 365.249 195.213C365.249 195.213 373.967 188.619 375.161 185.559C375.735 184.09 375.732 182.441 375.152 180.974C374.572 179.508 373.464 178.344 372.071 177.739C370.678 177.134 369.114 177.138 367.723 177.749C366.332 178.36 365.229 179.529 364.655 180.998Z" fill="#6C63FF"/>
<path d="M349.352 194.18C349.928 197.432 357.179 205.769 357.179 205.769C357.179 205.769 361.114 195.24 360.523 191.984C360.247 190.422 359.394 189.039 358.151 188.14C356.909 187.241 355.378 186.9 353.897 187.191C352.415 187.482 351.104 188.382 350.252 189.693C349.4 191.003 349.076 192.617 349.352 194.18Z" fill="#6C63FF"/>
<path d="M338.427 223.311C340.48 225.812 350.733 229.151 350.733 229.151C350.733 229.151 349.073 217.973 347.02 215.468C346.023 214.307 344.635 213.603 343.152 213.508C341.67 213.413 340.211 213.934 339.088 214.96C337.966 215.985 337.268 217.434 337.146 218.995C337.024 220.556 337.486 222.105 338.434 223.311H338.427Z" fill="#6C63FF"/>
<path d="M334.868 247.316C336.488 250.149 346.057 255.264 346.057 255.264C346.057 255.264 346.215 243.947 344.594 241.118C344.208 240.444 343.7 239.857 343.1 239.391C342.499 238.924 341.816 238.587 341.092 238.399C340.367 238.21 339.615 238.174 338.877 238.292C338.139 238.411 337.431 238.681 336.792 239.088C336.154 239.495 335.597 240.031 335.155 240.664C334.713 241.298 334.393 242.017 334.214 242.781C334.036 243.546 334.001 244.339 334.113 245.117C334.226 245.895 334.482 246.642 334.868 247.316Z" fill="#6C63FF"/>
<path d="M367.978 211.152C365.067 212.378 354.507 210.379 354.507 210.379C354.507 210.379 360.845 201.253 363.761 200.023C365.16 199.433 366.724 199.454 368.109 200.081C369.494 200.707 370.587 201.888 371.146 203.364C371.705 204.84 371.686 206.489 371.092 207.95C370.498 209.411 369.378 210.562 367.978 211.152Z" fill="#6C63FF"/>
<path d="M363.478 239.171C360.352 239.424 350.844 234.184 350.844 234.184C350.844 234.184 359.479 227.472 362.609 227.219C364.094 227.132 365.552 227.662 366.67 228.695C367.789 229.728 368.479 231.183 368.593 232.746C368.706 234.31 368.235 235.858 367.279 237.059C366.322 238.26 364.958 239.018 363.478 239.171Z" fill="#6C63FF"/>
<path d="M355.562 265.767C352.518 266.574 342.308 263.104 342.308 263.104C342.308 263.104 349.745 254.951 352.79 254.148C353.513 253.956 354.265 253.916 355.003 254.031C355.741 254.145 356.451 254.412 357.091 254.816C357.731 255.219 358.29 255.752 358.735 256.384C359.18 257.015 359.503 257.733 359.685 258.496C359.867 259.259 359.904 260.052 359.796 260.83C359.687 261.608 359.434 262.357 359.051 263.032C358.668 263.707 358.163 264.296 357.565 264.766C356.966 265.235 356.285 265.575 355.562 265.767Z" fill="#6C63FF"/>
<path opacity="0.25" d="M364.655 180.998C363.46 184.058 365.249 195.213 365.249 195.213C365.249 195.213 373.967 188.619 375.161 185.559C375.735 184.09 375.732 182.441 375.152 180.974C374.572 179.508 373.464 178.344 372.071 177.739C370.678 177.134 369.114 177.138 367.723 177.749C366.332 178.36 365.229 179.529 364.655 180.998Z" fill="black"/>
<path opacity="0.25" d="M349.352 194.18C349.928 197.432 357.179 205.769 357.179 205.769C357.179 205.769 361.114 195.24 360.523 191.984C360.247 190.422 359.394 189.039 358.151 188.14C356.909 187.241 355.378 186.9 353.897 187.191C352.415 187.482 351.104 188.382 350.252 189.693C349.4 191.003 349.076 192.617 349.352 194.18Z" fill="black"/>
<path opacity="0.25" d="M338.427 223.311C340.48 225.812 350.733 229.151 350.733 229.151C350.733 229.151 349.073 217.973 347.02 215.468C346.023 214.307 344.635 213.603 343.152 213.508C341.67 213.413 340.211 213.934 339.088 214.96C337.966 215.985 337.268 217.434 337.146 218.995C337.024 220.556 337.486 222.105 338.434 223.311H338.427Z" fill="black"/>
<path opacity="0.25" d="M334.868 247.316C336.488 250.149 346.057 255.264 346.057 255.264C346.057 255.264 346.215 243.947 344.594 241.118C344.208 240.444 343.7 239.857 343.1 239.391C342.499 238.924 341.816 238.587 341.092 238.399C340.367 238.21 339.615 238.174 338.877 238.292C338.139 238.411 337.431 238.681 336.792 239.088C336.154 239.495 335.597 240.031 335.155 240.664C334.713 241.298 334.393 242.017 334.214 242.781C334.036 243.546 334.001 244.339 334.113 245.117C334.226 245.895 334.482 246.642 334.868 247.316Z" fill="black"/>
<path opacity="0.25" d="M367.978 211.152C365.067 212.378 354.507 210.379 354.507 210.379C354.507 210.379 360.845 201.253 363.761 200.023C365.16 199.433 366.724 199.454 368.109 200.081C369.494 200.707 370.587 201.888 371.146 203.364C371.705 204.84 371.686 206.489 371.092 207.95C370.498 209.411 369.378 210.562 367.978 211.152Z" fill="black"/>
<path opacity="0.25" d="M363.478 239.171C360.352 239.424 350.844 234.184 350.844 234.184C350.844 234.184 359.479 227.472 362.609 227.219C364.094 227.132 365.552 227.662 366.67 228.695C367.789 229.728 368.479 231.183 368.593 232.746C368.706 234.31 368.235 235.858 367.279 237.059C366.322 238.26 364.958 239.018 363.478 239.171Z" fill="black"/>
<path opacity="0.25" d="M355.562 265.767C352.518 266.574 342.308 263.104 342.308 263.104C342.308 263.104 349.745 254.951 352.79 254.148C353.513 253.956 354.265 253.916 355.003 254.031C355.741 254.145 356.451 254.412 357.091 254.816C357.731 255.219 358.29 255.752 358.735 256.384C359.18 257.015 359.503 257.733 359.685 258.496C359.867 259.259 359.904 260.052 359.796 260.83C359.687 261.608 359.434 262.357 359.051 263.032C358.668 263.707 358.163 264.296 357.565 264.766C356.966 265.235 356.285 265.575 355.562 265.767Z" fill="black"/>
<path d="M335.326 274.074C335.326 274.074 359.043 261.157 366.472 240.597C369.535 231.95 375.177 224.586 382.548 219.61C386.065 217.275 389.777 215.285 393.638 213.665" stroke="#535461" stroke-width="2" stroke-miterlimit="10"/>
<path d="M398.392 200.736C396.124 203.026 393.473 213.989 393.473 213.989C393.473 213.989 403.976 211.684 406.244 209.398C407.335 208.3 407.967 206.79 408.003 205.2C408.038 203.61 407.473 202.07 406.431 200.919C405.39 199.769 403.958 199.101 402.45 199.064C400.943 199.027 399.483 199.623 398.392 200.721V200.736Z" fill="#6C63FF"/>
<path d="M379.34 206.248C378.624 209.47 382.04 220.206 382.04 220.206C382.04 220.206 389.656 212.258 390.393 209.017C390.735 207.473 390.484 205.85 389.693 204.501C388.902 203.153 387.637 202.19 386.175 201.824C384.712 201.458 383.172 201.718 381.89 202.547C380.609 203.376 379.692 204.707 379.34 206.248Z" fill="#6C63FF"/>
<path d="M358.155 228.212C359.071 231.377 367.163 238.809 367.163 238.809C367.163 238.809 369.942 227.868 369.027 224.718C368.809 223.966 368.453 223.265 367.979 222.658C367.505 222.05 366.922 221.547 366.263 221.176C365.605 220.806 364.884 220.577 364.141 220.501C363.398 220.424 362.649 220.503 361.935 220.733C361.221 220.962 360.557 221.337 359.981 221.837C359.404 222.337 358.927 222.952 358.576 223.647C358.225 224.341 358.008 225.102 357.935 225.885C357.863 226.668 357.938 227.459 358.155 228.212Z" fill="#6C63FF"/>
<path d="M345.678 248.636C346.072 251.922 352.854 260.686 352.854 260.686C352.854 260.686 357.347 250.413 356.95 247.127C356.76 245.551 355.984 244.118 354.793 243.145C353.602 242.172 352.093 241.738 350.599 241.938C349.104 242.138 347.746 242.956 346.823 244.212C345.9 245.468 345.488 247.06 345.678 248.636Z" fill="#6C63FF"/>
<path d="M389.846 229.724C386.709 229.604 377.826 223.262 377.826 223.262C377.826 223.262 387.127 217.63 390.264 217.75C391.01 217.779 391.743 217.963 392.421 218.291C393.099 218.618 393.71 219.084 394.217 219.66C394.725 220.236 395.12 220.913 395.38 221.65C395.64 222.388 395.759 223.172 395.732 223.958C395.705 224.744 395.53 225.517 395.22 226.232C394.909 226.948 394.468 227.591 393.921 228.127C393.375 228.662 392.733 229.079 392.034 229.353C391.335 229.627 390.591 229.753 389.846 229.724Z" fill="#6C63FF"/>
<path d="M374.965 253.416C372.006 252.311 365.328 243.457 365.328 243.457C365.328 243.457 375.805 241.016 378.76 242.121C379.463 242.384 380.111 242.79 380.665 243.317C381.219 243.843 381.67 244.48 381.991 245.19C382.312 245.901 382.497 246.671 382.536 247.456C382.575 248.242 382.467 249.028 382.217 249.77C381.968 250.511 381.583 251.194 381.084 251.779C380.584 252.363 379.981 252.838 379.307 253.177C378.634 253.516 377.903 253.711 377.158 253.752C376.413 253.793 375.668 253.679 374.965 253.416Z" fill="#6C63FF"/>
<path d="M357.504 274.35C354.414 273.788 346.415 266.25 346.415 266.25C346.415 266.25 356.349 261.98 359.44 262.542C360.924 262.812 362.247 263.693 363.115 264.991C363.984 266.289 364.328 267.898 364.072 269.464C363.816 271.03 362.98 272.425 361.749 273.341C360.518 274.257 358.993 274.62 357.508 274.35H357.504Z" fill="#6C63FF"/>
<path d="M369.048 261.949L350.665 233.833C350.665 233.833 350.307 226.872 349.119 225.247C347.932 223.621 348.862 220.003 348.862 220.003C348.862 220.003 350.15 218.015 349.034 217.834C347.917 217.652 348.862 213.22 348.862 213.22L348.776 206.169C348.776 206.169 349.806 199.378 348.948 197.764C348.696 197.324 348.571 196.817 348.586 196.304C348.601 195.79 348.757 195.293 349.034 194.87C349.034 194.87 350.064 190.981 349.034 189.988C348.003 188.996 348.261 182.934 348.518 178.143C348.776 173.352 346.712 170.639 346.712 169.915C346.712 169.19 339.915 162.14 339.915 161.51C339.915 160.88 335.623 158.254 333.044 157.53C330.464 156.805 329.177 156.266 329.262 155.904C329.348 155.541 325.224 154.097 325.224 154.097C325.224 154.097 321.614 153.825 320.237 151.924C318.86 150.022 314.66 149.479 314.539 149.46C314.514 149.336 314.485 149.207 314.46 149.083C314.435 148.958 314.406 148.811 314.381 148.675C314.707 148.098 315.007 147.51 315.279 146.902C315.361 146.718 315.44 146.525 315.515 146.352C317.021 146.28 318.567 145.94 319.747 144.967C320.354 144.432 320.849 143.771 321.203 143.025C321.557 142.28 321.761 141.465 321.804 140.632C321.877 138.961 321.53 137.299 320.799 135.815C320.048 134.185 318.942 132.499 319.321 130.733C319.49 129.979 319.922 129.3 320.144 128.553C320.563 127.138 320.176 125.584 319.525 124.271C318.874 122.958 317.969 121.804 317.247 120.532C316.324 118.912 315.708 117.119 315.433 115.251C315.286 114.27 315.229 113.236 314.761 112.372C314.372 111.731 313.859 111.185 313.255 110.769C310.567 108.742 307.321 107.704 304.018 107.815C301.679 107.902 299.346 108.57 297.025 108.264C295.626 108.083 294.292 107.559 292.94 107.132C290.056 106.235 286.733 105.865 284.222 107.604C281.711 109.343 280.713 112.765 279.014 115.439C277.511 117.809 275.308 119.793 274.163 122.298C274.163 122.253 274.184 122.204 274.199 122.155C273.917 122.734 273.702 123.347 273.558 123.98C273.122 125.95 273.487 128.01 273.941 129.975C274.174 130.99 274.496 132.091 275.329 132.654C276.163 133.216 277.343 133.091 278.33 133.276C278.295 133.446 278.252 133.619 278.216 133.793C277.194 138.887 278.028 144.2 280.553 148.674C283.078 153.148 287.108 156.456 291.841 157.937C291.841 158.122 291.841 158.314 291.841 158.488C291.84 159.007 291.81 159.526 291.752 160.042C291.752 160.042 283.113 158.156 280.792 159.438C278.47 160.721 273.916 161.702 273.229 162.419C272.543 163.136 270.825 162.6 269.294 166.852C267.763 171.103 267.577 175.438 265.599 177.415C263.621 179.391 262.594 180.761 262.508 182.209C262.423 183.658 262.766 184.017 261.99 184.473C261.214 184.929 260.101 186.823 260.444 187.548C260.444 187.548 260.874 189.355 259.5 190.256C258.126 191.158 258.295 192.969 258.295 192.969C258.295 192.969 257.779 194.961 256.578 195.41C255.376 195.859 254.599 198.846 254.599 198.846L250.689 203.581L242.966 194.565C242.388 193.889 241.579 193.483 240.717 193.436C239.855 193.39 239.011 193.706 238.37 194.316L234.578 197.922C233.114 198.296 231.791 199.127 230.782 200.306C229.956 201.201 229.291 202.247 228.819 203.392L226.74 205.361C226.087 206.216 225.688 207.255 225.593 208.347C225.498 209.44 225.712 210.538 226.207 211.503L231.154 217.271L231.187 217.32C229.316 217.569 227.663 218.203 226.4 219.376C219.013 226.246 218.924 232.58 220.044 235.466C221.163 238.352 230.525 249.481 230.525 249.481C230.525 249.481 235.966 256.94 243.821 260.908L243.76 260.972C243.607 261.146 243.453 261.35 243.303 261.538L243.174 261.712L243.056 261.885L242.916 262.104C242.877 262.161 242.841 262.221 242.805 262.281C242.77 262.342 242.705 262.451 242.659 262.542L242.562 262.715C242.505 262.828 242.444 262.945 242.387 263.066L242.33 263.183C242.258 263.342 242.186 263.504 242.119 263.674C242.093 263.734 242.072 263.798 242.047 263.858C242.004 263.975 241.958 264.096 241.915 264.236C241.872 264.375 241.861 264.39 241.836 264.47C241.811 264.549 241.761 264.703 241.725 264.824C241.689 264.945 241.675 264.994 241.653 265.077C241.632 265.16 241.582 265.341 241.55 265.477C241.518 265.613 241.51 265.635 241.489 265.722C241.442 265.929 241.396 266.145 241.357 266.371C241.357 266.454 241.328 266.541 241.314 266.627C241.285 266.778 241.26 266.933 241.239 267.091C241.221 267.201 241.21 267.31 241.196 267.42C241.181 267.529 241.16 267.718 241.142 267.869L241.11 268.216C241.11 268.382 241.081 268.555 241.07 268.729C241.07 268.834 241.07 268.94 241.053 269.046C241.053 269.332 241.024 269.619 241.02 269.921C240.849 280.484 241.435 282.034 241.435 282.034C241.435 282.034 242.648 285.403 245.996 285.645C246.488 285.683 246.982 285.655 247.466 285.562C251.934 284.747 262.415 282.849 266.111 283.574C268.332 284.007 272.446 283.366 275.376 282.781L276.145 282.627L276.681 284.422L278.38 283.932L279.811 284.811L280.724 285.362C282.419 291.428 289.309 289.361 289.309 289.361L290.926 290.349L307.51 290.802C307.51 290.802 311.087 293.065 313.38 293.775C313.652 293.862 313.931 293.926 314.213 293.967C315.751 294.097 317.294 294.127 318.835 294.057C320.105 294.024 321.089 293.967 321.089 293.967C321.089 293.967 320.92 289.217 320.677 283.902C327.016 283.623 332.636 283.204 336.038 282.574C344.895 280.933 348.59 272.441 349.949 267.903C350.358 269.757 350.648 271.639 350.819 273.535C351.18 275.191 351.64 276.822 352.196 278.417C352.679 279.7 353.314 280.914 354.085 282.031C360.617 279.68 356.664 276.157 355.286 274.618C353.909 273.078 356.234 271.815 356.234 271.815C356.234 271.815 358.023 270.551 357.866 269.374C357.708 268.197 357.608 266.933 363.45 267.024C369.291 267.114 369.048 261.949 369.048 261.949ZM278.309 204.23C278.384 204.747 279.2 210.319 279.937 211.775C280.09 212.084 280.151 213.182 280.13 214.751C276.667 214.461 273.061 214.306 273.061 214.306C273.165 214.438 273.23 214.6 273.247 214.77L272.703 214.642L271.913 214.438L278.291 204.207L278.309 204.23ZM265.674 225.431L271.666 226.435L272.17 226.518C271.999 227.503 271.895 228.501 271.859 229.502C271.859 229.596 271.995 229.709 272.188 229.841C272.105 230.339 272.065 230.845 272.07 231.35C272.167 231.852 274.968 232.931 278.18 233.829C278.137 234.01 278.094 234.184 278.051 234.346C275.215 232.773 270.743 232.037 270.228 230.868C269.713 229.698 254.488 224.077 254.488 224.077C254.488 224.077 253.934 223.768 252.975 223.277L256.982 224.077L258.084 223.96C260.581 224.619 263.117 225.108 265.674 225.424V225.431Z" fill="url(#paint0_linear)"/>
<path d="M349.488 265.884C349.488 265.884 347.105 281.061 335.011 283.306C322.917 285.55 282.548 285.101 282.548 285.101C282.548 285.101 259.468 281.601 251.122 261.033C242.777 240.465 237.411 232.29 244.565 231.931C251.72 231.573 290.3 245.675 292.5 245.852C294.7 246.029 351.616 214.597 349.488 265.884Z" fill="#434175"/>
<path opacity="0.05" d="M349.488 265.884C349.488 265.884 347.105 281.061 335.011 283.306C322.917 285.55 282.548 285.101 282.548 285.101C282.548 285.101 259.468 281.601 251.122 261.033C242.777 240.465 237.411 232.29 244.565 231.931C251.72 231.573 290.3 245.675 292.5 245.852C294.7 246.029 351.616 214.597 349.488 265.884Z" fill="black"/>
<path d="M241.228 282.766C241.228 282.766 242.433 286.116 245.749 286.354C246.236 286.39 246.725 286.362 247.205 286.271C251.634 285.464 262.026 283.577 265.685 284.294C267.889 284.728 271.963 284.087 274.864 283.509C276.796 283.132 278.205 282.755 278.205 282.755C278.205 282.755 274.8 270.811 274.371 270.453C273.941 270.094 259.042 260.663 259.042 260.663L247.238 259.769H247.202C247.202 259.769 245.016 259.924 243.202 262.247C241.954 263.836 240.884 266.446 240.813 270.724C240.648 281.238 241.228 282.766 241.228 282.766Z" fill="#565387"/>
<path opacity="0.05" d="M241.228 282.766C241.228 282.766 242.433 286.116 245.749 286.354C244.586 284.777 243.511 283.129 242.53 281.419L242.591 272.709C242.065 266.186 244.959 262.01 247.241 259.78H247.205C247.205 259.78 240.988 260.225 240.816 270.72C240.645 281.216 241.228 282.766 241.228 282.766Z" fill="black"/>
<path opacity="0.1" d="M292.428 263.726L303.414 254.672L320.702 236.707C320.702 236.707 318.835 236.613 316.02 236.485C315.304 236.956 313.355 238.439 313.283 240.257C313.197 242.453 308.608 240.408 306.225 241.665C303.843 242.921 292.174 258.671 290.128 258.569C288.082 258.467 286.469 257.475 285.614 259.003C285.614 259.037 285.574 259.067 285.553 259.101L292.428 263.726Z" fill="black"/>
<path opacity="0.1" d="M243.206 262.255C243.596 262.455 243.989 262.632 244.394 262.828C252.743 266.601 263.045 274.523 263.814 275.942C264.279 276.817 270.253 280.642 274.864 283.509C276.796 283.132 278.205 282.755 278.205 282.755C278.205 282.755 274.8 270.811 274.37 270.453C273.941 270.094 259.042 260.663 259.042 260.663L247.237 259.769H247.202C247.202 259.769 245.02 259.931 243.206 262.255Z" fill="black"/>
<path d="M220.04 236.511C221.146 239.386 230.414 250.436 230.414 250.436C230.414 250.436 236.288 258.516 244.637 262.289C252.986 266.061 263.288 273.984 264.054 275.402C264.548 276.327 271.208 280.552 275.887 283.457L276.935 284.102L279.261 285.524L280.491 286.278C280.491 286.278 283.353 283.864 286.182 281.435C289.012 279.005 291.774 276.625 291.82 276.489C291.902 276.221 293.008 273.165 292.754 272.988C292.621 272.894 292.038 271.649 290.965 270.207C289.82 268.608 288.333 267.316 286.626 266.435C282.691 264.549 281.006 260.256 281.006 260.256C281.006 260.256 280.648 259.969 280.065 259.592C279.057 258.92 277.436 257.954 276.238 257.792C274.36 257.543 270.872 253.503 270.872 253.503C270.872 253.503 268.486 251.884 267.549 249.821C266.655 247.851 253.448 238.284 252.224 237.402L284.244 259.086L291.906 264.281L302.891 255.227L320.184 237.262C320.184 237.262 317.858 237.141 314.46 236.99C306.057 236.613 291.133 236.006 289.248 236.455C287.713 236.832 286.13 236.94 284.562 236.775C284.562 236.775 280.312 236.979 277.501 235.413C274.689 233.848 270.257 233.116 269.745 231.958C269.234 230.8 254.159 225.224 254.159 225.224C254.159 225.224 233.637 213.729 226.311 220.557C218.985 227.385 218.931 233.64 220.04 236.511Z" fill="#434175"/>
<path d="M286.211 170.59L288.851 179.84L292.256 200.676L304.777 201.574L308.4 195.236L312.031 188.909C312.031 188.909 314.285 180.489 315.905 172.344C317.336 165.139 318.273 158.144 316.714 157.386C315.333 156.711 314.424 154.285 313.852 151.675C313.777 151.354 313.709 151.026 313.644 150.697C313.227 148.487 312.95 146.25 312.815 144.001C312.815 144.001 286.583 142.568 290.246 153.972C290.9 155.92 291.234 157.972 291.233 160.038C291.23 160.554 291.2 161.069 291.144 161.581C290.957 163.361 290.423 165.081 289.574 166.631C288.725 168.182 287.579 169.53 286.211 170.59Z" fill="#EE8E9E"/>
<path d="M280.759 169.062L281.697 184.778L283.825 198.16L286.211 204.358L288.339 238.265C288.339 238.265 308.876 240.77 313.87 238.22C314.23 238.058 314.542 237.798 314.775 237.466C320.806 227.872 318.828 200.046 318.828 200.046L321.128 182.077L319.593 172.752L315.891 172.337L313.029 172.016C313.029 172.016 312.385 172.854 311.455 174.148C308.93 177.664 304.301 184.579 304.598 187.465C305.02 191.418 304.086 195.459 302.637 196.089C301.189 196.719 299.997 197.794 299.743 196.719C299.49 195.643 299.232 195.372 299.486 193.844C299.74 192.316 298.377 187.646 298.377 187.646C298.377 187.646 296.08 182.168 296.231 179.833C296.381 177.498 295.977 174.8 295.293 174.174C294.61 173.548 293.677 172.914 294.442 170.024C295.208 167.134 291.083 161.555 291.083 161.555L280.759 169.062Z" fill="#E3E8F4"/>
<path opacity="0.1" d="M307.885 208.315L308.737 235.172L313.655 238.047C314.015 237.885 314.328 237.624 314.56 237.292C320.595 227.683 318.617 199.861 318.617 199.861L320.917 181.896L319.382 172.574L315.676 172.159C317.107 164.954 318.044 157.96 316.488 157.201C315.104 156.526 314.195 154.1 313.605 151.49L310.958 170.503C310.958 170.503 311.18 172.216 311.258 173.982C311.319 175.294 311.298 176.622 311.044 177.328C310.446 178.946 310.872 181.821 310.872 181.821C309.338 184.673 308.572 189.958 308.196 195.062C307.692 201.849 307.885 208.315 307.885 208.315Z" fill="black"/>
<path d="M313.687 151.075C313.687 151.075 317.98 151.637 319.339 153.523C320.699 155.409 324.279 155.67 324.279 155.67C324.279 155.67 328.368 157.107 328.282 157.465C328.196 157.824 329.474 158.367 332.031 159.084C334.589 159.801 338.828 162.408 338.828 163.038C338.828 163.668 345.557 170.669 345.557 171.39C345.557 172.11 347.603 174.785 347.345 179.561C347.088 184.337 346.834 190.339 347.857 191.328C348.88 192.316 347.857 196.179 347.857 196.179C347.585 196.602 347.436 197.098 347.426 197.608C347.417 198.118 347.548 198.62 347.803 199.054C348.654 200.672 347.635 207.41 347.635 207.41L347.717 214.416C347.717 214.416 346.78 218.814 347.889 218.995C348.998 219.177 347.717 221.15 347.717 221.15C347.717 221.15 346.78 224.745 347.975 226.359C349.17 227.974 349.506 234.893 349.506 234.893L367.749 262.81C367.749 262.81 368.007 267.929 362.216 267.838C356.424 267.748 356.492 269.008 356.678 270.174C356.864 271.339 355.061 272.599 355.061 272.599C355.061 272.599 352.761 273.856 354.124 275.384C355.487 276.911 359.404 280.412 352.933 282.747C352.167 281.638 351.537 280.432 351.058 279.156C350.509 277.572 350.054 275.952 349.695 274.308C349.695 274.308 349.098 267.48 347.907 266.582C346.716 265.684 346.884 261.372 346.884 261.372C346.884 261.372 348.586 257.871 346.204 256.434C343.822 254.997 309.205 234.806 309.205 234.806L308.354 207.95C308.354 207.95 307.756 188.102 311.334 181.455C311.334 181.455 310.908 178.58 311.505 176.966C312.103 175.351 311.419 170.137 311.419 170.137L313.687 151.075Z" fill="#565387"/>
<path opacity="0.1" d="M291.366 161.849C291.366 161.849 282.805 159.989 280.505 161.246C278.205 162.502 273.709 163.509 272.993 164.211C272.278 164.912 270.607 164.392 269.076 168.613C267.545 172.835 267.37 177.143 265.413 179.12C263.456 181.097 262.433 182.443 262.348 183.881C262.262 185.318 262.602 185.676 261.836 186.144C261.07 186.612 259.962 188.479 260.301 189.2C260.641 189.921 278.048 205.705 278.048 205.705C278.048 205.705 278.903 211.741 279.668 213.25C280.434 214.759 278.817 235.794 277.114 237.232C275.411 238.669 288.611 238.537 288.611 238.537C288.611 238.537 289.205 224.749 289.717 224.028C290.228 223.307 289.359 208.561 289.359 208.561C289.359 208.561 289.273 195.987 290.382 192.663C291.491 189.34 291.366 178.305 291.366 178.305C291.366 178.305 292.346 171.677 293.537 170.13C294.728 168.583 291.366 161.849 291.366 161.849Z" fill="black"/>
<path d="M291.112 161.581C291.112 161.581 282.548 159.721 280.248 160.978C277.948 162.234 273.451 163.222 272.754 163.943C272.056 164.663 270.371 164.12 268.819 168.342C267.266 172.563 267.116 176.875 265.156 178.852C263.195 180.829 262.176 182.176 262.09 183.613C262.004 185.05 262.348 185.409 261.582 185.858C260.817 186.306 259.708 188.193 260.047 188.909C260.387 189.626 277.762 205.437 277.762 205.437C277.762 205.437 278.613 211.473 279.379 212.982C280.144 214.491 278.527 235.523 276.824 236.96C275.122 238.398 288.322 238.266 288.322 238.266C288.322 238.266 288.919 224.477 289.43 223.76C289.942 223.043 289.073 208.293 289.073 208.293C289.073 208.293 288.99 195.719 290.096 192.395C291.201 189.072 291.08 178.022 291.08 178.022C291.08 178.022 292.06 171.394 293.247 169.851C294.435 168.308 291.112 161.581 291.112 161.581Z" fill="#565387"/>
<path opacity="0.1" d="M290.21 153.972C290.864 155.92 291.198 157.972 291.198 160.038C295.386 161.347 299.869 161.138 303.931 159.444C307.993 157.751 311.4 154.672 313.609 150.697C313.191 148.487 312.914 146.25 312.779 144.001C312.779 144.001 286.551 142.568 290.21 153.972Z" fill="black"/>
<path d="M277.268 139.78C277.272 145.048 279.194 150.114 282.636 153.933C286.078 157.751 290.779 160.031 295.768 160.302C300.757 160.573 305.655 158.814 309.451 155.389C313.247 151.964 315.651 147.132 316.169 141.892C316.686 136.652 315.277 131.402 312.232 127.225C309.187 123.048 304.738 120.263 299.803 119.444C294.868 118.625 289.823 119.834 285.708 122.823C281.594 125.811 278.724 130.351 277.69 135.505C277.408 136.911 277.267 138.343 277.268 139.78Z" fill="#EE8E9E"/>
<path d="M264.748 187.382L260.065 188.909C260.065 188.909 260.491 190.705 259.128 191.603C257.765 192.501 257.937 194.3 257.937 194.3C257.937 194.3 257.425 196.273 256.234 196.722C255.043 197.171 254.274 200.118 254.274 200.118L250.357 204.879C250.357 204.879 248.908 206.135 249.166 206.765C249.423 207.395 247.631 207.572 247.631 207.572L248.568 223.575L256.66 225.194L261.668 224.654L265.757 223.036L269.334 220.772L270.965 216.407L278.119 204.913L264.748 187.382Z" fill="#565387"/>
<path d="M248.822 208.862C248.822 208.862 238.448 193.052 230.682 201.585C222.916 210.119 233.834 223.949 236.388 223.5C238.942 223.051 251.122 222.334 251.122 222.334L248.822 208.862Z" fill="#EE8E9E"/>
<path d="M236.95 197.846L227.34 206.988C225.488 208.749 225.341 211.76 227.011 213.712L237.687 226.195C239.357 228.147 242.212 228.302 244.063 226.541L253.674 217.399C255.525 215.638 255.672 212.628 254.002 210.675L243.326 198.193C241.656 196.24 238.801 196.085 236.95 197.846Z" fill="#30374E"/>
<path opacity="0.1" d="M236.95 197.846L227.34 206.988C225.488 208.749 225.341 211.76 227.011 213.712L237.687 226.195C239.357 228.147 242.212 228.302 244.063 226.541L253.674 217.399C255.525 215.638 255.672 212.628 254.002 210.675L243.326 198.193C241.656 196.24 238.801 196.085 236.95 197.846Z" fill="black"/>
<path d="M237.243 196.544L227.632 205.686C225.781 207.447 225.634 210.458 227.304 212.41L237.98 224.893C239.65 226.845 242.504 227 244.356 225.239L253.966 216.097C255.818 214.336 255.965 211.326 254.295 209.373L243.619 196.891C241.949 194.938 239.094 194.783 237.243 196.544Z" fill="#30374E"/>
<path d="M240.527 216.66C243.208 216.66 245.381 214.368 245.381 211.541C245.381 208.714 243.208 206.422 240.527 206.422C237.846 206.422 235.672 208.714 235.672 211.541C235.672 214.368 237.846 216.66 240.527 216.66Z" fill="#6C63FF"/>
<path opacity="0.1" d="M240.527 216.66C243.208 216.66 245.381 214.368 245.381 211.541C245.381 208.714 243.208 206.422 240.527 206.422C237.846 206.422 235.672 208.714 235.672 211.541C235.672 214.368 237.846 216.66 240.527 216.66Z" fill="black"/>
<path d="M240.799 216.011C243.48 216.011 245.653 213.719 245.653 210.892C245.653 208.065 243.48 205.773 240.799 205.773C238.118 205.773 235.944 208.065 235.944 210.892C235.944 213.719 238.118 216.011 240.799 216.011Z" fill="#6C63FF"/>
<path d="M242.097 212.171C242.011 224.028 265.263 226.54 265.263 226.54L271.201 227.536L273.863 227.981L274.972 216.407C274.972 216.407 273.752 216.215 272.228 215.841C269.978 215.287 267.062 214.332 266.451 212.993C265.431 210.749 242.179 200.318 242.097 212.171Z" fill="#EE8E9E"/>
<path opacity="0.1" d="M277.69 135.505C278.227 135.547 278.733 135.785 279.121 136.177C279.779 136.913 279.815 138.218 280.67 138.671C280.989 138.817 281.343 138.861 281.686 138.795C283.95 138.456 285.263 135.777 287.434 135.023C288.672 134.6 290.035 134.875 291.244 135.366C291.73 135.527 292.166 135.822 292.507 136.222C293.222 137.214 292.725 138.674 293.061 139.878C293.53 141.545 295.419 142.209 297.053 142.428C298.688 142.647 300.53 142.768 301.622 144.069C302.394 144.993 302.591 146.333 302.434 147.544C302.337 147.966 302.337 148.407 302.434 148.83C302.884 150.177 305.095 149.962 305.671 148.913C306.093 148.14 305.964 147.498 306.959 147.283C307.631 147.136 308.422 147.434 309.044 147.661C310.778 148.291 312.605 148.588 314.439 148.536C315.598 145.912 316.219 143.059 316.261 140.165C316.303 137.27 315.766 134.399 314.684 131.738C313.601 129.078 311.999 126.688 309.981 124.726C307.963 122.763 305.575 121.272 302.973 120.349C300.372 119.427 297.614 119.094 294.882 119.372C292.15 119.65 289.504 120.533 287.118 121.964C284.731 123.395 282.658 125.34 281.033 127.674C279.409 130.007 278.27 132.676 277.69 135.505Z" fill="black"/>
<path d="M302.423 148.287C302.326 147.864 302.326 147.423 302.423 147C302.577 145.782 302.384 144.446 301.611 143.526C300.538 142.224 298.678 142.1 297.043 141.885C295.408 141.67 293.519 141.006 293.051 139.338C292.714 138.135 293.222 136.671 292.496 135.679C292.158 135.279 291.722 134.985 291.237 134.827C290.024 134.332 288.661 134.072 287.424 134.479C285.252 135.234 283.94 137.92 281.675 138.252C281.332 138.317 280.979 138.274 280.659 138.127C279.804 137.675 279.768 136.369 279.11 135.638C278.076 134.483 276.113 135.226 274.846 134.37C274.02 133.808 273.702 132.718 273.473 131.71C273.022 129.756 272.661 127.708 273.093 125.754C273.834 122.411 276.671 120.121 278.459 117.269C280.144 114.61 281.088 111.233 283.621 109.483C286.154 107.732 289.405 108.121 292.26 109.015C293.598 109.434 294.921 109.954 296.306 110.147C298.61 110.445 300.92 109.769 303.238 109.701C306.512 109.59 309.73 110.62 312.392 112.633C312.992 113.047 313.502 113.591 313.888 114.229C314.349 115.089 314.41 116.115 314.55 117.088C314.82 118.945 315.427 120.729 316.338 122.343C317.054 123.607 317.951 124.754 318.599 126.059C319.246 127.364 319.626 128.907 319.211 130.311C318.992 131.065 318.56 131.718 318.399 132.476C318.019 134.23 319.114 135.905 319.862 137.524C320.586 139 320.929 140.651 320.856 142.311C320.814 143.138 320.612 143.946 320.261 144.687C319.91 145.427 319.419 146.084 318.817 146.616C317.612 147.612 316.027 147.944 314.499 147.996C312.63 148.063 310.766 147.768 308.998 147.125C308.372 146.899 307.567 146.601 306.912 146.748C305.918 146.963 306.047 147.604 305.624 148.377C305.081 149.434 302.874 149.634 302.423 148.287Z" fill="#434175"/>
<path opacity="0.1" d="M291.917 264.266L302.902 255.212L320.194 237.247C320.194 237.247 317.869 237.126 314.471 236.975C313.852 237.639 313.301 238.484 313.265 239.427C313.179 241.623 308.59 239.582 306.207 240.838C303.825 242.095 292.156 257.841 290.11 257.739C288.064 257.637 286.451 256.645 285.596 258.173C285.578 258.208 285.557 258.242 285.535 258.275C285.195 258.684 284.74 258.968 284.236 259.086L291.917 264.266Z" fill="black"/>
<path d="M269.774 263.636L275.293 282.219L276.159 285.139L278.788 284.385L284.583 282.706L310.396 275.229C310.396 275.229 315.247 275.161 319.697 272.614C324.616 269.793 330.164 268.374 335.737 268.925C339.15 269.261 342.945 267.71 346.111 261.576C346.111 261.576 353.265 239.318 335.208 232.905C317.15 226.491 316.292 236.3 316.292 236.3C316.292 236.3 316.199 236.353 316.048 236.458C315.333 236.93 313.383 238.413 313.312 240.231C313.226 242.427 308.636 240.382 306.254 241.638C303.872 242.894 292.203 258.645 290.157 258.543C288.11 258.441 286.497 257.449 285.642 258.977C285.642 259.011 285.603 259.041 285.581 259.075C284.952 259.991 283.056 260.207 281.8 260.24C281.117 260.263 280.62 260.24 280.62 260.24L280.459 260.293L279.121 260.686L269.774 263.636Z" fill="#434175"/>
<path opacity="0.1" d="M271.201 227.536L273.863 227.982L274.971 216.407C274.971 216.407 273.752 216.215 272.228 215.842C272.632 217.445 271.716 223.696 271.201 227.536Z" fill="black"/>
<path opacity="0.1" d="M340.842 173.401C340.842 173.401 348.762 170.975 346.801 194.689C344.841 218.403 330.196 233.384 330.196 233.384C330.196 233.384 313.333 241.197 305.753 239.94C298.173 238.684 292.639 238.431 292.639 238.431C290.253 237.16 287.643 236.426 284.973 236.277C280.713 236.096 271.773 233.312 271.602 232.414C271.43 231.516 273.816 218.313 272.793 217.324C272.793 217.324 284.716 217.841 285.91 218.75C287.105 219.659 288.804 219.007 290.081 218.75C291.358 218.494 295.279 214.898 303.027 218.045C303.027 218.045 305.667 218.313 306.69 217.596C307.713 216.879 309.352 217.415 309.352 217.415C309.352 217.415 310.958 216.785 311.205 216.407C311.452 216.03 313.501 216.407 313.501 216.407C313.623 216.47 313.756 216.503 313.892 216.505C314.027 216.506 314.161 216.475 314.284 216.415C314.407 216.354 314.515 216.266 314.602 216.156C314.688 216.045 314.749 215.916 314.782 215.777C315.049 215.042 315.455 214.371 315.973 213.804C315.973 213.804 318.273 200.152 322.616 195.032C322.616 195.032 323.893 193.863 323.553 192.425C323.213 190.988 330.632 170.522 340.842 173.401Z" fill="black"/>
<path d="M340.649 171.575C340.649 171.575 348.569 169.149 346.612 192.863C344.655 216.577 329.985 231.573 329.985 231.573C329.985 231.573 313.122 239.386 305.542 238.13C297.962 236.873 292.428 236.602 292.428 236.602C290.043 235.329 287.432 234.595 284.762 234.448C280.505 234.266 271.562 231.482 271.391 230.585C271.219 229.687 273.605 216.483 272.585 215.494C272.585 215.494 284.508 216.011 285.699 216.92C286.891 217.83 288.597 217.177 289.874 216.92C291.151 216.664 295.068 213.072 302.82 216.215C302.82 216.215 305.46 216.483 306.479 215.766C307.499 215.049 309.144 215.585 309.144 215.585C309.144 215.585 310.74 214.955 310.994 214.597C311.248 214.238 313.294 214.597 313.294 214.597C313.415 214.659 313.548 214.693 313.683 214.694C313.818 214.696 313.952 214.665 314.074 214.605C314.197 214.545 314.305 214.457 314.391 214.347C314.477 214.237 314.538 214.108 314.571 213.97C314.838 213.234 315.243 212.561 315.762 211.993C315.762 211.993 318.062 198.341 322.405 193.221C322.405 193.221 323.682 192.052 323.342 190.618C323.002 189.185 330.411 168.7 340.649 171.575Z" fill="#565387"/>
<path opacity="0.1" d="M279.121 260.686L290.368 275.021C290.411 274.98 290.439 274.95 290.439 274.938C290.525 274.667 291.63 271.615 291.376 271.433C291.122 271.252 289.162 266.763 285.245 264.877C282.852 263.745 281.285 261.674 280.43 260.255L279.121 260.686Z" fill="black"/>
<path opacity="0.1" d="M279.275 285.524L280.505 286.278C280.505 286.278 283.367 283.864 286.197 281.434C289.026 279.005 291.788 276.625 291.834 276.489C291.917 276.221 293.022 273.165 292.768 272.988C292.636 272.893 292.052 271.649 290.979 270.207C283.353 267.944 288.207 273.539 288.855 273.795C288.855 273.795 279.554 271.532 279.06 282.212C278.993 283.321 279.065 284.435 279.275 285.524Z" fill="black"/>
<path d="M288.679 290.043L290.3 291.032L306.755 291.481C306.755 291.481 310.282 293.744 312.571 294.431C312.841 294.52 313.117 294.584 313.398 294.623C314.921 294.753 316.45 294.784 317.976 294.714C319.236 294.68 320.212 294.623 320.212 294.623C320.212 294.623 319.432 272.743 318.846 270.479C318.567 269.377 317.189 269.619 315.83 270.17C314.809 270.607 313.824 271.133 312.886 271.743C312.886 271.743 305.903 272.456 304.794 273.09C303.686 273.723 300.538 272.712 298.577 273.09C296.617 273.467 293.129 270.656 293.129 270.656C283.589 267.337 288.955 273.531 289.634 273.803C289.634 273.803 280.355 271.539 279.844 282.219C279.332 292.899 288.679 290.043 288.679 290.043Z" fill="#565387"/>
<path d="M312.443 281.601C312.621 286.128 315.966 291.745 317.959 294.714C319.218 294.68 320.194 294.623 320.194 294.623C320.194 294.623 319.414 272.743 318.828 270.479C318.549 269.378 317.172 269.619 315.812 270.17C314.177 273.414 312.299 277.953 312.443 281.601Z" fill="#565387"/>
<path opacity="0.1" d="M312.443 281.601C312.621 286.128 315.966 291.745 317.959 294.714C319.218 294.68 320.194 294.623 320.194 294.623C320.194 294.623 319.414 272.743 318.828 270.479C318.549 269.378 317.172 269.619 315.812 270.17C314.177 273.414 312.299 277.953 312.443 281.601Z" fill="black"/>
<path opacity="0.05" d="M309.631 282.2C310.761 286.569 310.751 291.47 312.553 294.431C312.823 294.52 313.1 294.584 313.38 294.623C314.903 294.753 316.432 294.784 317.959 294.714C319.218 294.68 320.194 294.623 320.194 294.623C320.194 294.623 319.414 272.743 318.828 270.479C318.549 269.378 317.172 269.619 315.812 270.17C314.791 270.607 313.806 271.133 312.868 271.743C312.868 271.743 308.186 276.61 309.631 282.2Z" fill="black"/>
<path opacity="0.1" d="M252.925 237.888C252.925 237.888 261.088 240.684 268.007 250.613L252.925 237.888Z" fill="black"/>
<g opacity="0.1">
<path opacity="0.1" d="M319.268 130.115C319.254 130.178 319.238 130.241 319.218 130.303C319.14 130.561 319.045 130.813 318.935 131.058C319.019 130.734 319.13 130.418 319.268 130.115Z" fill="black"/>
<path opacity="0.1" d="M273.079 125.757C273.221 125.128 273.433 124.519 273.712 123.943C273.669 124.097 273.623 124.252 273.587 124.411C273.154 126.365 273.516 128.413 273.966 130.367C274.199 131.375 274.514 132.465 275.34 133.027C276.61 133.883 278.559 133.136 279.604 134.291C280.262 135.026 280.298 136.332 281.156 136.784C281.476 136.931 281.83 136.975 282.172 136.909C284.433 136.569 285.75 133.891 287.921 133.136C289.159 132.714 290.518 132.989 291.731 133.483C292.216 133.641 292.651 133.936 292.99 134.336C293.705 135.328 293.208 136.792 293.544 137.992C294.013 139.659 295.902 140.323 297.536 140.538C299.171 140.753 301.013 140.878 302.104 142.183C302.877 143.103 303.074 144.446 302.916 145.657C302.822 146.08 302.822 146.521 302.916 146.944C303.367 148.291 305.578 148.076 306.136 147.027C306.558 146.253 306.433 145.612 307.427 145.397C308.096 145.25 308.887 145.548 309.509 145.774C311.277 146.417 313.142 146.712 315.011 146.646C316.538 146.589 318.127 146.269 319.329 145.265C319.878 144.803 320.329 144.225 320.652 143.567C320.372 144.765 319.732 145.834 318.828 146.616C317.626 147.612 316.041 147.944 314.51 147.996C312.642 148.063 310.779 147.768 309.012 147.125C308.386 146.899 307.581 146.601 306.927 146.748C305.932 146.963 306.057 147.604 305.639 148.377C305.059 149.441 302.852 149.641 302.398 148.294C302.303 147.871 302.303 147.431 302.398 147.008C302.555 145.789 302.362 144.454 301.589 143.533C300.495 142.232 298.652 142.107 297.018 141.892C295.383 141.677 293.494 141.013 293.029 139.346C292.689 138.143 293.201 136.679 292.475 135.687C292.134 135.287 291.698 134.993 291.212 134.834C289.999 134.34 288.64 134.08 287.402 134.487C285.227 135.241 283.914 137.928 281.654 138.26C281.311 138.325 280.957 138.282 280.638 138.135C279.779 137.682 279.743 136.377 279.085 135.645C278.051 134.491 276.091 135.234 274.825 134.378C273.995 133.815 273.68 132.725 273.448 131.718C273.004 129.76 272.643 127.712 273.079 125.757Z" fill="black"/>
</g>
<path opacity="0.1" d="M320.588 197.643C319.028 199.865 317.247 201.921 315.866 204.271C314.485 206.622 313.509 209.364 313.798 212.111C315.229 210.564 315.88 208.429 316.782 206.489C318.306 203.207 320.588 200.423 322.505 197.405C322.863 196.828 325.227 193.501 324.036 193.342C323.056 193.21 321.121 196.885 320.588 197.643Z" fill="black"/>
</g>
<defs>
<linearGradient id="paint0_linear" x1="294.285" y1="294.076" x2="294.285" y2="106.374" gradientUnits="userSpaceOnUse">
<stop stop-color="#808080" stop-opacity="0.25"/>
<stop offset="0.54" stop-color="#808080" stop-opacity="0.12"/>
<stop offset="1" stop-color="#808080" stop-opacity="0.1"/>
</linearGradient>
<clipPath id="clip0">
<rect width="408" height="297" fill="white"/>
</clipPath>
</defs>
</svg>
