<svg width="427" height="330" viewBox="0 0 427 330" fill="none" xmlns="http://www.w3.org/2000/svg">
<g clip-path="url(#clip0)">
<path d="M210.151 330C270.032 330 318.576 323.46 318.576 315.392C318.576 307.325 270.032 300.784 210.151 300.784C150.27 300.784 101.726 307.325 101.726 315.392C101.726 323.46 150.27 330 210.151 330Z" fill="#3F3D56"/>
<path d="M393.562 190.49L351.647 211.789L388.744 182.006C382.715 171.902 375.941 162.332 368.489 153.389L186.708 201.901L350.908 134.649C343.404 127.541 335.436 121.02 327.063 115.136L50.0717 163.039C20.6622 202.525 4.6302 251.574 4.60756 302.133H421.555C421.538 262.922 411.882 224.41 393.562 190.49Z" fill="#F2F2F2"/>
<path d="M304.394 101.307C275.955 86.4144 244.722 78.6975 213.081 78.7456C148.684 78.7456 91.1095 110.097 52.8683 159.358C118.353 143.952 232.366 117.285 304.394 101.307Z" fill="#F2F2F2"/>
<path opacity="0.4" d="M345.401 122.832C348.851 122.832 351.647 119.829 351.647 116.125C351.647 112.422 348.851 109.419 345.401 109.419C341.952 109.419 339.155 112.422 339.155 116.125C339.155 119.829 341.952 122.832 345.401 122.832Z" fill="#5634FF"/>
<path opacity="0.4" d="M333.841 124.033C336.261 124.033 338.223 121.927 338.223 119.328C338.223 116.73 336.261 114.624 333.841 114.624C331.421 114.624 329.46 116.73 329.46 119.328C329.46 121.927 331.421 124.033 333.841 124.033Z" fill="#5634FF"/>
<path opacity="0.4" d="M49.7129 147.941C56.9375 147.941 62.7941 141.653 62.7941 133.896C62.7941 126.14 56.9375 119.851 49.7129 119.851C42.4883 119.851 36.6317 126.14 36.6317 133.896C36.6317 141.653 42.4883 147.941 49.7129 147.941Z" fill="#5634FF"/>
<path opacity="0.4" d="M25.5029 150.457C30.5708 150.457 34.6792 146.046 34.6792 140.605C34.6792 135.163 30.5708 130.752 25.5029 130.752C20.4349 130.752 16.3265 135.163 16.3265 140.605C16.3265 146.046 20.4349 150.457 25.5029 150.457Z" fill="#5634FF"/>
<path d="M427 301.683H0V302.582H427V301.683Z" fill="#2F2E41"/>
<path d="M378.624 301.683L345.368 248.646C345.368 248.646 395.732 267.524 390.016 301.683H378.624Z" fill="#3F3D56"/>
<path d="M379.929 301.683L413.185 248.646C413.185 248.646 362.821 267.524 368.537 301.683H379.929Z" fill="#5634FF"/>
<path d="M87.0745 59.6767C87.0745 56.7566 83.1964 54.3893 78.4126 54.3893C78.3179 54.3893 78.2242 54.3918 78.1302 54.3937C76.6871 49.644 69.8652 46.047 61.6661 46.047C54.6902 46.047 48.7113 48.651 46.1936 52.3531C44.3335 51.8246 42.4166 51.5611 40.4924 51.5694C33.1572 51.5694 27.2108 55.1992 27.2108 59.6767C27.2108 63.7441 32.1179 67.1112 38.5152 67.6942C43.1639 68.6068 50.4253 69.194 58.5863 69.194C72.4415 69.194 82.5795 66.3563 82.8337 64.2233C85.3725 63.3015 87.0745 61.6108 87.0745 59.6767Z" fill="#F2F2F2"/>
<path d="M296.388 61.924C296.388 59.0039 292.51 56.6366 287.726 56.6366C287.632 56.6366 287.538 56.6391 287.444 56.641C286.001 51.8913 279.179 48.2943 270.98 48.2943C264.004 48.2943 258.025 50.8983 255.507 54.6005C253.647 54.0719 251.73 53.8084 249.806 53.8167C242.471 53.8167 236.525 57.4465 236.525 61.924C236.525 65.9914 241.432 69.3585 247.829 69.9415C252.478 70.8541 259.739 71.4414 267.9 71.4414C281.755 71.4414 291.893 68.6037 292.147 66.4707C294.686 65.5488 296.388 63.8581 296.388 61.924Z" fill="#F2F2F2"/>
<path d="M413.185 23.9235C413.185 18.7979 406.378 14.6428 397.981 14.6428C397.815 14.6428 397.651 14.6472 397.486 14.6505C394.953 6.31357 382.979 0 368.587 0C356.343 0 345.849 4.57057 341.429 11.0688C338.164 10.1411 334.8 9.67855 331.422 9.69315C318.547 9.69315 308.11 16.0643 308.11 23.9235C308.11 31.0627 316.723 36.9729 327.952 37.9961C336.111 39.5979 348.857 40.6287 363.182 40.6287C387.501 40.6287 405.295 35.6479 405.742 31.9039C410.198 30.2859 413.185 27.3182 413.185 23.9235Z" fill="#F2F2F2"/>
<path d="M238.689 130.305C230.03 114.596 212.898 113.864 212.898 113.864C212.898 113.864 196.205 111.572 185.496 135.497C175.514 157.797 161.739 179.329 183.278 184.549L187.169 171.548L189.578 185.517C192.645 185.754 195.722 185.81 198.794 185.686C221.861 184.887 243.829 185.92 243.121 177.033C242.181 165.219 247.021 145.42 238.689 130.305Z" fill="#2F2E41"/>
<path d="M182.048 267.879C181.794 269.606 181.425 271.313 180.944 272.984C180.402 274.62 179.565 276.133 179.07 277.786C177.491 283.054 179.68 288.928 183.176 292.995C186.209 296.507 190.123 299.002 194.446 300.18C197.601 301.032 200.881 301.154 204.132 301.273C213.133 301.6 222.366 301.893 230.896 298.787C233.591 297.782 236.194 296.512 238.672 294.995C239.454 294.594 240.144 294.012 240.689 293.289C241.34 292.295 241.423 291.005 241.418 289.79C241.398 285.692 240.625 281.616 240.808 277.524C240.91 275.257 241.305 272.992 241.111 270.732C240.842 268.165 239.84 265.751 238.244 263.819C236.647 261.887 234.534 260.532 232.192 259.939C229.773 259.381 227.263 259.685 224.8 259.94C218.405 260.599 211.984 260.908 205.56 260.863C198.996 260.818 192.473 259.743 185.943 259.63C184.011 259.597 184.05 260.236 183.435 262.243C182.869 264.09 182.406 265.972 182.048 267.879Z" fill="#2F2E41"/>
<path d="M200.675 166.709C200.359 168.482 200.018 170.32 199.026 171.777C197.884 173.454 196.022 174.412 194.794 176.016C192.945 178.432 192.839 181.83 192.831 184.956C192.824 187.836 192.879 190.908 194.374 193.299C195.345 194.85 196.822 195.938 198.266 196.983C203.876 201.042 209.938 205.174 216.701 205.307C219.504 205.363 222.508 204.586 224.352 202.319C225.148 201.255 225.774 200.056 226.205 198.771C227.934 194.194 228.982 189.353 229.311 184.426C229.465 182.108 229.451 179.723 228.72 177.535C227.898 175.076 226.237 173.052 225.139 170.72C223.841 167.947 223.366 164.813 223.779 161.742C223.833 161.525 223.817 161.295 223.731 161.091C223.641 160.981 223.528 160.896 223.402 160.841C223.276 160.786 223.139 160.763 223.004 160.774L209.593 159.738C208.344 159.671 207.1 159.518 205.869 159.28C205.146 159.123 203.237 158.02 202.547 158.313C201.271 158.856 200.936 165.239 200.675 166.709Z" fill="#FFB8B8"/>
<path opacity="0.1" d="M200.675 166.709C200.359 168.482 200.018 170.32 199.026 171.777C197.884 173.454 196.022 174.412 194.794 176.016C192.945 178.432 192.839 181.83 192.831 184.956C192.824 187.836 192.879 190.908 194.374 193.299C195.345 194.85 196.822 195.938 198.266 196.983C203.876 201.042 209.938 205.174 216.701 205.307C219.504 205.363 222.508 204.586 224.352 202.319C225.148 201.255 225.774 200.056 226.205 198.771C227.934 194.194 228.982 189.353 229.311 184.426C229.465 182.108 229.451 179.723 228.72 177.535C227.898 175.076 226.237 173.052 225.139 170.72C223.841 167.947 223.366 164.813 223.779 161.742C223.833 161.525 223.817 161.295 223.731 161.091C223.641 160.981 223.528 160.896 223.402 160.841C223.276 160.786 223.139 160.763 223.004 160.774L209.593 159.738C208.344 159.671 207.1 159.518 205.869 159.28C205.146 159.123 203.237 158.02 202.547 158.313C201.271 158.856 200.936 165.239 200.675 166.709Z" fill="black"/>
<path d="M213.5 168.64C224.366 168.64 233.175 159.182 233.175 147.515C233.175 135.848 224.366 126.39 213.5 126.39C202.634 126.39 193.825 135.848 193.825 147.515C193.825 159.182 202.634 168.64 213.5 168.64Z" fill="#FFB8B8"/>
<path d="M203.434 194.83C204.46 195.981 205.546 197.12 206.89 197.795C208.258 198.402 209.728 198.702 211.208 198.678C214.754 198.785 218.599 198.087 221.066 195.349C224.247 191.82 224.142 186.128 226.635 182.011C226.836 181.638 227.11 181.316 227.438 181.068C227.857 180.823 228.329 180.707 228.805 180.731C231.953 180.699 234.696 182.891 237.171 184.981C238.28 185.917 239.416 186.887 240.116 188.202C240.605 189.227 240.94 190.329 241.109 191.467C242.337 197.905 242.735 204.487 243.13 211.045C243.348 214.667 243.566 218.293 243.55 221.922C243.496 233.881 240.907 245.639 238.333 257.274C238.001 258.773 237.548 260.449 236.278 261.167C235.712 261.44 235.104 261.599 234.484 261.637C227.111 262.566 219.722 263.497 212.299 263.62C209.402 263.668 206.506 263.593 203.612 263.394C203.114 263.387 202.62 263.295 202.148 263.12C201.509 262.791 200.96 262.29 200.553 261.666C196.538 256.233 196.301 248.722 196.326 241.787C196.389 224.831 196.953 207.888 198.019 190.959C198.107 189.561 198.126 187.864 197.189 186.765C198.877 189.667 201.226 192.351 203.434 194.83Z" fill="#D0CDE1"/>
<path d="M199.267 170.438C198.602 171.729 193.703 174.936 192.757 176.007C187.472 181.988 177.827 181.763 172.994 188.169C171.293 190.423 170.41 193.255 169.76 196.07C168.841 200.052 168.35 204.394 169.89 208.149C171.371 211.762 174.49 214.259 176.607 217.486C178.931 221.03 179.977 225.332 180.978 229.53C181.718 232.63 182.463 235.807 182.175 238.992C181.848 242.614 180.216 245.93 179.252 249.418C178.288 252.906 178.122 257.061 180.35 259.802C181.987 261.816 184.555 262.615 187.009 263.064C190.153 263.571 193.322 263.867 196.5 263.951C199.306 264.084 202.398 264.11 204.555 262.179C206.257 260.655 206.996 258.182 207.092 255.806C207.188 253.429 206.727 251.073 206.439 248.714C206.14 246.269 206.025 243.802 205.929 241.338C205.497 230.281 205.438 219.218 205.752 208.147C205.817 205.844 205.897 203.512 205.439 201.26C204.837 198.299 203.347 195.652 202.103 192.931C199.634 187.53 198.466 182.284 198.848 176.281C199.225 170.356 201.631 165.842 199.267 170.438Z" fill="#5634FF"/>
<path d="M226.896 170.887C227.908 172.004 231.348 172.372 232.635 173.092C233.846 173.692 235.11 174.162 236.408 174.494C241.105 175.949 245.572 178.15 249.662 181.025C250.511 181.559 251.263 182.256 251.878 183.081C252.598 184.157 252.86 185.499 253.104 186.798C253.735 190.151 254.368 193.545 254.226 196.962C254.076 200.59 253.058 204.103 252.049 207.568L248.276 220.517C245.461 230.183 242.627 239.943 241.835 250.035C241.396 255.628 241.591 261.257 242.415 266.8C242.498 267.357 242.567 267.996 242.225 268.424C241.976 268.687 241.649 268.849 241.301 268.88C239.48 269.186 237.718 268.189 236.069 267.307C231.027 264.613 225.646 262.722 220.096 261.695C222.265 258.33 223.938 254.627 225.057 250.715C225.692 248.231 226.193 245.709 226.556 243.163L228.311 232.266C229.025 228.283 229.527 224.259 229.816 220.215C229.949 218.697 229.866 217.166 229.572 215.675C229.167 214.256 228.63 212.885 227.969 211.581C225.077 205.122 223.72 197.751 224.858 190.689C225.356 187.599 226.324 184.504 225.92 181.398C225.532 178.411 225.935 176.09 225.222 173.134C222.291 160.999 224.992 168.786 226.896 170.887Z" fill="#5634FF"/>
<path d="M172.944 198.381C171.625 201.319 169.421 203.822 168.671 206.982C168.379 208.458 168.254 209.968 168.298 211.476C168.28 213.751 168.269 216.071 168.919 218.235C169.338 219.629 170.019 220.914 170.51 222.28C171.194 224.188 171.499 226.23 171.405 228.272C171.272 231.102 170.377 233.848 170.307 236.681C170.197 241.135 172.116 245.322 173.988 249.298C174.459 248.045 175.18 246.918 176.099 245.995C177.018 245.072 178.114 244.376 179.31 243.956C180.507 243.536 181.774 243.401 183.023 243.561C184.273 243.721 185.475 244.173 186.545 244.884C187.039 244.394 187.092 243.59 187.111 242.869C187.249 237.701 187.383 232.534 187.511 227.366C187.714 219.375 187.907 211.276 186.195 203.495C185.422 199.982 184.219 196.483 182.013 193.758C180.852 192.323 176.91 188.544 175.004 190.151C174.147 190.874 174.347 192.842 174.212 193.838C174.007 195.413 173.579 196.945 172.944 198.381Z" fill="#5634FF"/>
<path d="M254.612 189.916C255.236 192.001 255.273 194.229 255.285 196.419C255.311 200.886 255.255 205.352 255.12 209.818C255.05 212.104 254.955 214.422 254.309 216.601C253.883 218.039 253.226 219.387 252.787 220.82C251.469 225.114 252.189 229.771 252.302 234.29C252.382 235.753 252.265 237.22 251.957 238.647C251.261 241.449 249.392 243.713 248.088 246.251C246.849 248.663 246.101 251.365 244.621 253.614C243.142 255.863 240.58 257.646 238.098 256.955C236.216 256.432 234.88 254.644 233.955 252.809C231.938 248.774 231.248 244.126 231.997 239.618C232.925 234.133 235.926 229.267 237.008 223.814C238.494 216.327 236.236 208.6 236.303 200.945C236.272 199.745 236.424 198.547 236.752 197.4C237.319 195.651 238.538 194.255 239.665 192.852C241.072 191.1 242.38 189.257 243.58 187.335C244.386 186.044 245.482 182.723 246.911 182.447C250.103 181.831 253.82 187.269 254.612 189.916Z" fill="#5634FF"/>
<path d="M156.383 264.549C154.618 264.072 152.799 263.865 150.98 263.932C149.069 264.045 147.203 264.594 145.505 265.542C143.807 266.49 142.316 267.815 141.132 269.43C139.948 271.044 139.097 272.91 138.637 274.905C138.177 276.9 138.117 278.977 138.463 280.998C138.903 283.187 139.624 285.301 140.603 287.278C142.036 290.4 143.754 293.514 146.406 295.515C147.958 296.685 149.754 297.415 151.528 298.132L165.497 303.783C167.552 304.614 169.607 305.445 171.683 306.216C182.109 310.085 192.979 312.405 203.991 313.112C207.345 313.327 210.75 313.386 214.023 312.566C214.799 312.372 215.628 312.082 216.077 311.375C216.343 310.877 216.5 310.32 216.536 309.747L217.396 303.286C217.517 302.376 217.633 301.418 217.323 300.562C216.929 299.476 215.942 298.793 215.001 298.213C205.817 292.55 195.094 289.425 187.364 281.652C185.544 279.823 184.021 276.922 181.81 275.679C179.303 274.27 176.35 273.465 173.759 272.166C168.093 269.327 162.523 266.064 156.383 264.549Z" fill="#2F2E41"/>
<path opacity="0.1" d="M170.329 273.259C175.266 274.92 196.112 286.428 199.685 290.447C199.206 290.632 182.957 280.854 182.469 280.697C178.037 279.269 173.58 277.831 169.371 275.741C168.524 275.321 163.87 273.344 164.081 272.197C164.318 270.903 169.452 272.964 170.329 273.259Z" fill="black"/>
<path d="M231.927 316.463C232.207 316.485 232.485 316.397 232.709 316.216C232.808 316.08 232.88 315.924 232.922 315.758C232.964 315.592 232.975 315.419 232.954 315.249C232.946 312.314 232.939 309.38 232.931 306.446C230.574 305.24 227.937 304.854 225.348 304.482L213.272 302.749C213.549 302.789 211.383 308.334 211.715 309.074C212.301 310.379 216.773 311.535 218.036 312.151C222.424 314.293 226.984 316.647 231.927 316.463Z" fill="#FFB8B8"/>
<path d="M194.036 306.416C191.756 306.806 189.211 307.15 187.734 309.056C185.861 311.473 186.658 315.076 187.552 318.07C187.685 318.675 187.951 319.238 188.329 319.71C188.938 320.356 189.872 320.45 190.727 320.508C192.807 320.65 195.02 320.761 196.837 319.665C197.66 319.081 198.452 318.449 199.21 317.771C200.55 316.814 202.023 316.091 203.573 315.629C206.424 314.666 209.359 314.017 212.332 313.691C213.504 313.634 214.664 313.414 215.783 313.038C216.879 312.595 217.894 311.716 218.213 310.505C218.634 308.906 217.768 307.275 216.938 305.872C215.903 304.124 214.807 302.284 213.265 300.998C211.014 299.121 209.901 300.562 207.634 301.763C203.344 304.036 198.76 305.605 194.036 306.416Z" fill="#FFB8B8"/>
<path d="M188.077 308.621L173.598 304.027C171.838 303.468 170.047 302.904 168.211 302.906C166.374 302.907 164.453 303.553 163.262 305.054C162.14 306.469 161.818 308.402 161.538 310.237L160.94 314.16C160.636 316.154 160.331 318.186 160.605 320.185C160.878 322.184 161.829 324.182 163.481 325.149C165.484 326.323 167.94 325.75 170.176 325.259C174.693 324.268 179.287 323.739 183.897 323.679C185.63 323.657 187.447 323.68 188.979 322.809C190.799 321.773 191.888 319.583 192.075 317.38C192.36 314.028 191.32 309.65 188.077 308.621Z" fill="#2F2E41"/>
<path d="M237.618 304.617C239.495 304.264 241.151 303.119 242.95 302.443C245.481 301.491 248.225 301.491 250.907 301.502C251.892 301.506 252.94 301.529 253.76 302.115C254.941 302.96 255.244 304.65 255.445 306.158L256.657 315.26C256.885 316.972 257.111 318.729 256.756 320.416C256.4 322.103 255.329 323.729 253.771 324.164C251.877 324.692 250.021 323.394 248.234 322.541C243.766 320.409 238.572 320.954 233.913 319.36C233.049 319.064 232.123 318.612 231.77 317.715C231.611 317.209 231.554 316.673 231.603 316.142C231.683 313.216 231.108 309.221 231.929 306.425C232.667 303.911 235.523 304.617 237.618 304.617Z" fill="#2F2E41"/>
<path d="M268.258 260.885C271.151 260.106 274.15 259.886 277.115 260.235C279.482 260.515 281.922 261.223 283.651 262.983C285.755 265.124 286.431 268.436 286.487 271.549C286.58 277.748 284.665 283.789 281.07 288.641C280.192 289.868 279.148 290.947 277.972 291.842C276.704 292.694 275.353 293.393 273.942 293.928L242.659 307.176C234.429 310.661 226.17 314.156 217.586 316.454C217.351 316.576 217.096 316.646 216.836 316.66C216.576 316.674 216.315 316.632 216.07 316.537C215.825 316.442 215.601 316.295 215.409 316.105C215.218 315.915 215.064 315.685 214.956 315.43C212.216 311.227 209.916 306.711 208.1 301.964C208.014 301.851 207.955 301.718 207.927 301.575C207.899 301.433 207.904 301.285 207.94 301.145C207.977 301.004 208.045 300.875 208.137 300.769C208.23 300.663 208.346 300.582 208.474 300.534L230.6 286.883C232.185 285.906 233.788 284.914 235.104 283.552C236.06 282.557 236.843 281.386 237.416 280.096C237.875 279.067 237.918 276.64 238.503 275.879C239.077 275.135 241.039 275.076 241.945 274.783C243.224 274.363 244.475 273.855 245.693 273.262C250.642 270.885 255.05 267.43 259.795 264.647C262.456 263.013 265.3 261.749 268.258 260.885Z" fill="#2F2E41"/>
<path opacity="0.1" d="M255.714 271.079C251.912 274.145 246.99 276.962 243.223 280.109C241.937 281.183 220.501 294.122 220.198 295.84C223.713 296.476 246.104 279.658 249.308 277.98C252.511 276.302 255.351 273.935 258.165 271.586C258.882 270.987 261.921 269.187 259.863 268.519C258.703 268.142 256.57 270.466 255.714 271.079Z" fill="black"/>
<path d="M234.86 128.791L217.935 119.272L194.563 123.166L189.727 146.097L201.765 145.6L205.127 137.175V145.461L210.682 145.232L213.906 131.82L215.92 146.097L235.666 145.665L234.86 128.791Z" fill="#2F2E41"/>
<path d="M231.082 175.831H194.662V223.026H231.082V175.831Z" fill="#3F3D56"/>
<path d="M177.372 257.915C178.208 259.255 179.188 260.566 180.531 261.289C181.388 261.709 182.322 261.914 183.263 261.887C184.205 261.859 185.128 261.602 185.962 261.133C187.628 260.174 188.992 258.706 189.881 256.914C191.721 253.427 192.102 249.254 191.872 245.253C191.642 241.253 190.847 237.314 190.495 233.324C190.239 230.424 190.218 227.506 190.197 224.593C190.134 223.98 190.254 223.362 190.539 222.827C190.947 222.23 191.693 222.065 192.354 221.854C196.066 220.67 198.53 216.934 200.297 213.234C201.476 210.763 202.502 208.062 202.275 205.296C202.047 202.531 200.196 199.744 197.623 199.462C195.502 199.23 193.544 200.676 192.014 202.27C188.155 206.317 185.674 211.639 184.972 217.381C184.636 220.194 184.732 223.082 184.02 225.812C182.498 231.641 177.739 235.215 175.368 240.46C172.754 246.24 174.197 252.801 177.372 257.915Z" fill="#FFB8B8"/>
<path d="M247.405 235.646C246.864 236.997 246.076 238.219 245.088 239.239C244.1 240.258 242.931 241.055 241.652 241.582C240.061 242.268 238.306 242.383 236.65 241.91C235.828 241.666 235.07 241.221 234.435 240.611C233.799 240 233.303 239.241 232.986 238.392C232.732 237.536 232.593 236.646 232.573 235.748C232.335 231.817 232.427 227.767 233.757 224.096C234.27 222.68 234.961 221.337 235.366 219.881C235.764 218.199 235.967 216.472 235.972 214.737L236.409 204.012C236.481 203.233 236.431 202.447 236.261 201.686C235.825 200.134 234.474 199.125 233.234 198.2C230.241 195.965 227.283 193.357 225.832 189.765C225.334 188.684 225.155 187.465 225.321 186.271C225.73 184.141 227.732 182.763 229.71 182.298C231.005 181.994 232.343 181.975 233.645 182.241C234.947 182.507 236.185 183.054 237.285 183.848C238.384 184.641 239.323 185.666 240.044 186.86C240.766 188.053 241.254 189.391 241.481 190.793C241.677 192.003 241.674 193.24 241.789 194.462C242.032 197.055 242.798 199.554 243.278 202.109C244.459 208.401 243.847 214.906 245.015 221.197C245.992 226.458 249.675 229.89 247.405 235.646Z" fill="#FFB8B8"/>
<path d="M22.0327 301.243L21.1955 301.225C21.5193 291.23 22.5125 281.273 24.1676 271.431C27.788 250.359 33.8083 236.521 42.061 230.299L42.5418 231.035C23.2633 245.568 22.0425 300.687 22.0327 301.243Z" fill="#2F2E41"/>
<path d="M32.4984 301.028L31.6612 301.01C31.6792 300.015 32.2024 276.552 40.8051 270.068L41.2859 270.803C33.0303 277.027 32.5025 300.788 32.4984 301.028Z" fill="#2F2E41"/>
<path d="M47.3049 231.116C49.6169 231.116 51.4912 229.104 51.4912 226.622C51.4912 224.139 49.6169 222.127 47.3049 222.127C44.9929 222.127 43.1186 224.139 43.1186 226.622C43.1186 229.104 44.9929 231.116 47.3049 231.116Z" fill="#5634FF"/>
<path d="M45.2318 269.771C47.5438 269.771 49.4181 267.759 49.4181 265.276C49.4181 262.794 47.5438 260.781 45.2318 260.781C42.9198 260.781 41.0455 262.794 41.0455 265.276C41.0455 267.759 42.9198 269.771 45.2318 269.771Z" fill="#5634FF"/>
<path d="M30.5471 233.811C31.3338 239.206 29.2833 244.032 29.2833 244.032C29.2833 244.032 25.9572 240.11 25.1704 234.715C24.3837 229.319 26.4342 224.493 26.4342 224.493C26.4342 224.493 29.7603 228.415 30.5471 233.811Z" fill="#2F2E41"/>
<path d="M44.2308 246.915C39.4195 248.686 34.6364 247.359 34.6364 247.359C34.6364 247.359 37.6538 243.159 42.4651 241.387C47.2764 239.616 52.0595 240.943 52.0595 240.943C52.0595 240.943 49.0421 245.143 44.2308 246.915Z" fill="#2F2E41"/>
<path d="M44.3854 281.147C42.2079 281.881 39.8889 281.989 37.6605 281.458C39.0754 279.524 40.981 278.071 43.1478 277.273C45.3145 276.475 47.6499 276.366 49.8727 276.961C48.4165 278.848 46.5243 280.291 44.3854 281.147Z" fill="#2F2E41"/>
</g>
<defs>
<clipPath id="clip0">
<rect width="427" height="330" fill="white"/>
</clipPath>
</defs>
</svg>
