<svg width="194" height="64" viewBox="0 0 194 64" fill="none" xmlns="http://www.w3.org/2000/svg">
<path d="M36.3627 13.54H43.0947C46.8867 13.54 49.4067 14.176 50.6547 15.448C51.9027 16.72 52.5267 18.256 52.5267 20.056C52.5267 21.256 52.2627 22.396 51.7347 23.476C51.2067 24.532 50.3667 25.324 49.2147 25.852C50.9187 26.284 52.1667 27.04 52.9587 28.12C53.7747 29.2 54.1827 30.472 54.1827 31.936C54.1827 33.472 53.9427 34.816 53.4627 35.968C52.9827 37.12 51.9867 38.08 50.4747 38.848C48.9627 39.616 46.7787 40 43.9227 40H36.3627V13.54ZM43.7427 24.772C45.4467 24.772 46.6587 24.364 47.3787 23.548C48.0987 22.708 48.4587 21.652 48.4587 20.38C48.4587 18.1 46.8267 16.96 43.5627 16.96H40.3227V24.772H43.7427ZM44.4627 36.616C46.6467 36.616 48.1107 36.184 48.8547 35.32C49.6227 34.432 50.0067 33.316 50.0067 31.972C50.0067 30.7 49.5747 29.716 48.7107 29.02C47.8467 28.324 46.5387 27.976 44.7867 27.976H40.3227V36.616H44.4627ZM66.3498 40.36C64.6458 40.36 63.1338 39.976 61.8138 39.208C60.4938 38.44 59.4738 37.396 58.7538 36.076C58.0338 34.756 57.6738 33.292 57.6738 31.684C57.6738 30.1 58.0218 28.648 58.7178 27.328C59.4378 26.008 60.4578 24.964 61.7778 24.196C63.0978 23.428 64.6218 23.044 66.3498 23.044C68.0778 23.044 69.5898 23.428 70.8858 24.196C72.2058 24.964 73.2138 26.008 73.9098 27.328C74.6298 28.648 74.9898 30.1 74.9898 31.684C74.9898 33.292 74.6298 34.756 73.9098 36.076C73.1898 37.396 72.1698 38.44 70.8498 39.208C69.5538 39.976 68.0538 40.36 66.3498 40.36ZM66.4578 37.192C67.8498 37.192 68.9418 36.676 69.7338 35.644C70.5498 34.612 70.9578 33.316 70.9578 31.756C70.9578 30.196 70.5258 28.888 69.6618 27.832C68.7978 26.752 67.6578 26.212 66.2418 26.212C64.8738 26.212 63.7698 26.74 62.9298 27.796C62.1138 28.852 61.7058 30.172 61.7058 31.756C61.7058 33.292 62.1498 34.588 63.0378 35.644C63.9258 36.676 65.0658 37.192 66.4578 37.192ZM86.8459 40.36C85.1419 40.36 83.6299 39.976 82.3099 39.208C80.9899 38.44 79.9699 37.396 79.2499 36.076C78.5299 34.756 78.1699 33.292 78.1699 31.684C78.1699 30.1 78.5179 28.648 79.2139 27.328C79.9339 26.008 80.9539 24.964 82.2739 24.196C83.5939 23.428 85.1179 23.044 86.8459 23.044C88.5739 23.044 90.0859 23.428 91.3819 24.196C92.7019 24.964 93.7099 26.008 94.4059 27.328C95.1259 28.648 95.4859 30.1 95.4859 31.684C95.4859 33.292 95.1259 34.756 94.4059 36.076C93.6859 37.396 92.6659 38.44 91.3459 39.208C90.0499 39.976 88.5499 40.36 86.8459 40.36ZM86.9539 37.192C88.3459 37.192 89.4379 36.676 90.2299 35.644C91.0459 34.612 91.4539 33.316 91.4539 31.756C91.4539 30.196 91.0219 28.888 90.1579 27.832C89.2939 26.752 88.1539 26.212 86.7379 26.212C85.3699 26.212 84.2659 26.74 83.4259 27.796C82.6099 28.852 82.2019 30.172 82.2019 31.756C82.2019 33.292 82.6459 34.588 83.5339 35.644C84.4219 36.676 85.5619 37.192 86.9539 37.192ZM114.578 40H110.006L106.658 34.6L105.722 32.764L103.562 35.104V40H99.818V13.54H103.526V28.048L103.454 30.856L109.754 23.476H114.542L108.314 30.388L114.578 40ZM117.889 13.54H130.309V17.032H121.885V24.52H128.437V28.048H121.885V40H117.889V13.54ZM134.766 23.476H138.798V40H134.766V23.476ZM136.746 20.38C136.002 20.38 135.378 20.128 134.874 19.624C134.37 19.12 134.118 18.496 134.118 17.752C134.118 17.08 134.37 16.504 134.874 16.024C135.378 15.544 136.002 15.304 136.746 15.304C137.466 15.304 138.078 15.544 138.582 16.024C139.086 16.504 139.338 17.08 139.338 17.752C139.338 18.496 139.086 19.12 138.582 19.624C138.102 20.128 137.49 20.38 136.746 20.38ZM144.181 23.476H147.997L148.033 26.5C148.489 25.492 149.209 24.664 150.193 24.016C151.177 23.368 152.329 23.044 153.649 23.044C155.353 23.044 156.661 23.404 157.573 24.124C158.485 24.82 159.097 25.804 159.409 27.076C159.721 28.348 159.877 30.004 159.877 32.044V40H155.989V32.152C155.989 30.064 155.785 28.564 155.377 27.652C154.969 26.716 154.129 26.248 152.857 26.248C152.137 26.248 151.405 26.476 150.661 26.932C149.917 27.364 149.293 28 148.789 28.84C148.309 29.68 148.069 30.664 148.069 31.792V40H144.181V23.476ZM172.196 40.36C170.708 40.36 169.328 40.012 168.056 39.316C166.808 38.596 165.8 37.588 165.032 36.292C164.288 34.972 163.916 33.436 163.916 31.684C163.916 29.068 164.648 26.98 166.112 25.42C167.576 23.836 169.556 23.044 172.052 23.044C173.444 23.044 174.716 23.392 175.868 24.088C177.02 24.76 177.8 25.576 178.208 26.536L178.028 23.728V13.54H181.844V40H178.136L178.064 37.084C177.656 37.948 176.912 38.716 175.832 39.388C174.752 40.036 173.54 40.36 172.196 40.36ZM172.844 37.084C174.212 37.084 175.364 36.616 176.3 35.68C177.236 34.72 177.704 33.472 177.704 31.936V31.684C177.704 30.652 177.488 29.728 177.056 28.912C176.624 28.096 176.036 27.46 175.292 27.004C174.548 26.548 173.732 26.32 172.844 26.32C171.308 26.32 170.12 26.824 169.28 27.832C168.44 28.816 168.02 30.1 168.02 31.684C168.02 33.292 168.428 34.6 169.244 35.608C170.084 36.592 171.284 37.084 172.844 37.084Z" fill="#6C63FF"/>
<path opacity="0.3" d="M15.064 43.9984C22.7606 43.9984 29 37.4964 29 29.4757C29 21.4551 22.7606 14.953 15.064 14.953C7.36733 14.953 1.12795 21.4551 1.12795 29.4757C1.12795 37.4964 7.36733 43.9984 15.064 43.9984Z" fill="#6C63FF"/>
<path d="M9.34084 11L0.0618591 22.7323L13.7947 39.6219L22.9499 28.4052L9.34084 11Z" fill="#6C63FF"/>
<path opacity="0.1" d="M9.34084 11L0.0618591 22.7323L13.7947 39.6219L22.9499 28.4052L9.34084 11Z" fill="black"/>
<path d="M0.433006 22.8613C0.638253 22.4763 0.892767 22.1222 1.18956 21.8086L9.71197 12.805C9.71197 12.805 12.6812 12.2892 13.2998 13.8364L2.41252 23.1192L0.433006 22.8613Z" fill="#F2F2F2"/>
<path d="M0 22.6679L12.6194 42.7806C12.6194 42.7806 13.8566 43.6831 15.0938 43.1674L28.0225 34.078L14.2896 12.4182L1.91765 22.4745L0 22.6679Z" fill="#6C63FF"/>
<path d="M12.7468 15.557L4.8281 21.4868L4.9451 21.6564L12.8638 15.7267L12.7468 15.557Z" fill="#3F3D56"/>
<path d="M4.72311 23.7062L4.55587 23.8214L14.9483 40.1953L15.1156 40.08L4.72311 23.7062Z" fill="#3F3D56"/>
<path d="M24.6216 34.1215L16.2106 40.5705L16.3295 40.7388L24.7405 34.2899L24.6216 34.1215Z" fill="#3F3D56"/>
<path d="M14.2482 15.8396L14.0837 15.9589L24.8473 32.0748L25.0118 31.9555L14.2482 15.8396Z" fill="#3F3D56"/>
<path d="M10.9234 12.6772L1.13352 22.0403L1.21713 22.1352L11.007 12.7721L10.9234 12.6772Z" fill="#3F3D56"/>
<path d="M11.7389 12.7574L1.50724 22.1703L1.58916 22.267L11.8209 12.8541L11.7389 12.7574Z" fill="#3F3D56"/>
<path d="M12.379 12.945L1.75754 22.1712L1.83679 22.2703L12.4583 13.0441L12.379 12.945Z" fill="#3F3D56"/>
</svg>
