<svg width="41" height="38" viewBox="0 0 41 38" fill="none" xmlns="http://www.w3.org/2000/svg">
<path d="M20.6347 0.153809C9.74908 0.153809 0.923157 8.84088 0.923157 19.5553C0.923157 28.1287 6.57051 35.3995 14.4038 37.9644C15.3892 38.142 15.7489 37.5428 15.7489 37.0312C15.7489 36.5694 15.7309 35.0395 15.7212 33.4195C10.2399 34.5918 9.08135 31.1317 9.08135 31.1317C8.18386 28.8913 6.8929 28.2944 6.8929 28.2944C5.1015 27.0913 7.02881 27.115 7.02881 27.115C9.00789 27.25 10.0498 29.1139 10.0498 29.1139C11.8088 32.079 14.6649 31.2217 15.7862 30.7244C15.9654 29.4739 16.4755 28.6165 17.0374 28.1334C12.6618 27.6432 8.05873 25.9782 8.05873 18.544C8.05873 16.4243 8.82752 14.6954 10.0859 13.3372C9.88502 12.8446 9.20647 10.8705 10.2808 8.20026C10.2808 8.20026 11.9339 7.67922 15.702 10.1897C17.2732 9.75745 18.9588 9.5443 20.6347 9.53718C22.3094 9.5443 23.9961 9.7598 25.5698 10.192C29.3307 7.67922 30.9861 8.20261 30.9861 8.20261C32.0641 10.8753 31.3856 12.8469 31.1835 13.3372C32.4467 14.6954 33.2095 16.4243 33.2095 18.544C33.2095 25.9971 28.5992 27.6384 24.2079 28.1192C24.9178 28.7207 25.5458 29.9002 25.5458 31.7096C25.5458 34.3029 25.5193 36.3942 25.5193 37.0336C25.5193 37.5499 25.8778 38.1538 26.8764 37.9644C34.7037 35.3947 40.3462 28.1239 40.3462 19.5553C40.3462 8.84088 31.5203 0.153809 20.6347 0.153809Z" fill="#6C63FF"/>
</svg>
