<svg width="67" height="81" viewBox="0 0 67 81" fill="none" xmlns="http://www.w3.org/2000/svg">
<path opacity="0.3" d="M34.7539 81C52.5107 81 66.9054 65.0397 66.9054 45.3517C66.9054 25.6636 52.5107 9.70334 34.7539 9.70334C16.997 9.70334 2.60226 25.6636 2.60226 45.3517C2.60226 65.0397 16.997 81 34.7539 81Z" fill="#6C63FF"/>
<path d="M21.5501 0L0.142715 28.799L31.8256 70.2571L52.9475 42.724L21.5501 0Z" fill="#6C63FF"/>
<path opacity="0.1" d="M21.5501 0L0.142715 28.799L31.8256 70.2571L52.9475 42.724L21.5501 0Z" fill="black"/>
<path d="M0.998978 29.1156C1.4725 28.1705 2.05968 27.3012 2.7444 26.5316L22.4063 4.43059C22.4063 4.43059 29.2567 3.16469 30.6838 6.96237L5.56588 29.7485L0.998978 29.1156Z" fill="#F2F2F2"/>
<path d="M0 28.6408L29.114 78.0108C29.114 78.0108 31.9683 80.2261 34.8226 78.9602L64.6502 56.6488L32.9673 3.48114L4.42419 28.1661L0 28.6408Z" fill="#6C63FF"/>
<path d="M29.4079 11.1859L11.1388 25.7414L11.4088 26.1579L29.6778 11.6024L29.4079 11.1859Z" fill="#3F3D56"/>
<path d="M10.8966 31.1894L10.5108 31.4723L34.487 71.6646L34.8729 71.3817L10.8966 31.1894Z" fill="#3F3D56"/>
<path d="M56.8041 56.7555L37.3993 72.5856L37.6735 72.9988L57.0783 57.1688L56.8041 56.7555Z" fill="#3F3D56"/>
<path d="M32.8718 11.8795L32.4922 12.1724L57.3247 51.7316L57.7043 51.4387L32.8718 11.8795Z" fill="#3F3D56"/>
<path d="M25.2013 4.11687L2.61514 27.1002L2.80803 27.3332L25.3941 4.3499L25.2013 4.11687Z" fill="#3F3D56"/>
<path d="M27.0827 4.31389L3.47733 27.4195L3.66631 27.6568L27.2717 4.55125L27.0827 4.31389Z" fill="#3F3D56"/>
<path d="M28.5594 4.77439L4.05479 27.4215L4.23765 27.6647L28.7422 5.01762L28.5594 4.77439Z" fill="#3F3D56"/>
</svg>
