<svg width="41" height="40" viewBox="0 0 41 40" fill="none" xmlns="http://www.w3.org/2000/svg">
<path d="M4.58843 9.16766C7.11396 9.16766 9.16605 7.11736 9.16605 4.58392C9.16605 2.05209 7.11396 0 4.58843 0C2.0557 0 0.000183105 2.05213 0.000183105 4.58392C0.000183105 7.11736 2.0557 9.16766 4.58843 9.16766Z" fill="#6C63FF"/>
<path d="M8.64672 12.0475H0.526092C0.23857 12.0475 6.10352e-05 12.2853 6.10352e-05 12.5755V39.0287C6.10352e-05 39.3199 0.23857 39.5514 0.526092 39.5514H8.64668C8.93081 39.5514 9.16589 39.3199 9.16589 39.0287V12.5755C9.16593 12.2853 8.93081 12.0475 8.64672 12.0475Z" fill="#6C63FF"/>
<path d="M40.9711 18.5965C40.3783 16.3841 38.014 11.6573 31.4333 11.6573C27.4872 11.6573 24.7579 13.569 23.3093 15.1292V12.5755C23.3093 12.2852 23.0778 12.0475 22.7901 12.0475H14.6695C14.3819 12.0475 14.1504 12.2853 14.1504 12.5755V39.0287C14.1504 39.3199 14.3819 39.5514 14.6695 39.5514H22.79C23.0777 39.5514 23.3092 39.3199 23.3092 39.0287V22.8753C23.3373 21.2214 24.8211 18.8615 27.6414 18.8615C31.5665 18.8615 31.8262 21.216 31.8262 24.0977V39.0287C31.8262 39.3199 32.0577 39.5514 32.3522 39.5514H40.4728C40.764 39.5514 40.999 39.3199 40.999 39.0287V20.3707C41.0061 18.5782 40.9711 18.5965 40.9711 18.5965Z" fill="#6C63FF"/>
</svg>
