<svg width="210" height="70" viewBox="0 0 210 70" fill="none" xmlns="http://www.w3.org/2000/svg">
<path d="M75.3639 41V15.8H82.5639C85.1319 15.8 87.0519 16.364 88.3239 17.492C89.5959 18.596 90.2319 20.18 90.2319 22.244C90.2319 23.636 89.7759 24.788 88.8639 25.7C87.9519 26.612 86.7159 27.164 85.1559 27.356C87.0759 27.644 88.5639 28.328 89.6199 29.408C90.6999 30.488 91.2399 31.832 91.2399 33.44C91.2399 35.72 90.4479 37.556 88.8639 38.948C87.3039 40.316 85.1199 41 82.3119 41H75.3639ZM78.1719 38.66H83.1759C84.7599 38.66 86.0319 38.18 86.9919 37.22C87.9519 36.26 88.4319 35.06 88.4319 33.62C88.4319 32.18 87.9159 30.992 86.8839 30.056C85.8759 29.12 84.3879 28.652 82.4199 28.652H78.1719V38.66ZM82.7439 18.14H78.1719V26.348H82.3839C83.7039 26.348 84.8679 25.988 85.8759 25.268C86.9079 24.524 87.4239 23.504 87.4239 22.208C87.4239 19.592 85.8639 18.236 82.7439 18.14ZM107.617 32.144C107.617 29.816 107.161 28.04 106.249 26.816C105.337 25.592 104.005 24.98 102.253 24.98C100.501 24.98 99.2528 25.568 98.5088 26.744C97.7888 27.896 97.4288 29.672 97.4288 32.072C97.4288 36.608 99.0968 38.876 102.433 38.876C104.185 38.876 105.481 38.336 106.321 37.256C107.185 36.152 107.617 34.448 107.617 32.144ZM108.265 38.768C106.897 40.4 104.965 41.216 102.469 41.216C99.9728 41.216 98.0528 40.412 96.7088 38.804C95.3888 37.172 94.7288 34.904 94.7288 32C94.7288 29.072 95.3648 26.78 96.6368 25.124C97.9328 23.468 99.8168 22.64 102.289 22.64C104.785 22.64 106.741 23.48 108.157 25.16C109.597 26.84 110.317 29.12 110.317 32C110.317 34.88 109.633 37.136 108.265 38.768ZM126.25 32.144C126.25 29.816 125.794 28.04 124.882 26.816C123.97 25.592 122.638 24.98 120.886 24.98C119.134 24.98 117.886 25.568 117.142 26.744C116.422 27.896 116.062 29.672 116.062 32.072C116.062 36.608 117.73 38.876 121.066 38.876C122.818 38.876 124.114 38.336 124.954 37.256C125.818 36.152 126.25 34.448 126.25 32.144ZM126.898 38.768C125.53 40.4 123.598 41.216 121.102 41.216C118.606 41.216 116.686 40.412 115.342 38.804C114.022 37.172 113.362 34.904 113.362 32C113.362 29.072 113.998 26.78 115.27 25.124C116.566 23.468 118.45 22.64 120.922 22.64C123.418 22.64 125.374 23.48 126.79 25.16C128.23 26.84 128.95 29.12 128.95 32C128.95 34.88 128.266 37.136 126.898 38.768ZM133.758 15.8H136.458V30.632L144.162 23H147.582L139.95 30.308L147.978 41H144.918L138.366 32L136.458 33.944V41H133.758V15.8ZM152.867 23V19.544C152.867 18.08 153.311 17.036 154.199 16.412C155.111 15.764 156.083 15.44 157.115 15.44C158.171 15.44 159.191 15.596 160.175 15.908L159.779 17.852C158.987 17.708 158.399 17.636 158.015 17.636C156.359 17.636 155.531 18.44 155.531 20.048V23H159.203V25.16H155.531V41H152.831V25.16H150.059V23H152.867ZM162.047 41V23H164.747V41H162.047ZM164.747 15.8V19.004H162.047V15.8H164.747ZM173.443 26.708V41H170.743V23H172.471L172.903 24.764C173.455 24.332 173.899 23.996 174.235 23.756C174.595 23.516 175.159 23.276 175.927 23.036C176.695 22.772 177.511 22.64 178.375 22.64C180.031 22.64 181.399 23.156 182.479 24.188C183.583 25.196 184.135 26.636 184.135 28.508V41H181.435V29.3C181.435 26.396 180.223 24.944 177.799 24.944C176.071 24.944 174.619 25.532 173.443 26.708ZM200.936 15.8H203.636V41H202.052L201.152 38.948C198.944 40.508 197.024 41.288 195.392 41.288C191.072 41.288 188.912 38.18 188.912 31.964C188.912 28.436 189.68 25.976 191.216 24.584C192.584 23.312 194.132 22.676 195.86 22.676C197.588 22.676 199.28 23.264 200.936 24.44V15.8ZM200.936 36.536V27.176C200.432 26.576 199.76 26.06 198.92 25.628C198.104 25.196 197.348 24.98 196.652 24.98C194.78 24.98 193.472 25.532 192.728 26.636C191.984 27.74 191.612 29.468 191.612 31.82C191.612 34.172 191.984 35.948 192.728 37.148C193.472 38.348 194.42 38.948 195.572 38.948C197.3 38.948 199.088 38.144 200.936 36.536Z" fill="#6159E6"/>
<path opacity="0.3" d="M50.6202 47.7995C59.0841 47.7995 65.9454 40.1919 65.9454 30.8075C65.9454 21.4231 59.0841 13.8155 50.6202 13.8155C42.1563 13.8155 35.295 21.4231 35.295 30.8075C35.295 40.1919 42.1563 47.7995 50.6202 47.7995Z" fill="#6C63FF"/>
<path d="M44.3266 9.19038L34.1226 22.9176L49.2244 42.6788L59.2923 29.555L44.3266 9.19038Z" fill="#6C63FF"/>
<path opacity="0.1" d="M44.3266 9.19038L34.1226 22.9176L49.2244 42.6788L59.2923 29.555L44.3266 9.19038Z" fill="black"/>
<path d="M34.5307 23.0685C34.7564 22.618 35.0363 22.2037 35.3627 21.8368L44.7347 11.3022C44.7347 11.3022 47.9999 10.6988 48.6802 12.509L36.7076 23.3702L34.5307 23.0685Z" fill="#F2F2F2"/>
<path d="M34.0546 22.8422L47.9319 46.3746C47.9319 46.3746 49.2924 47.4306 50.653 46.8272L64.8704 36.1923L49.7686 10.8497L36.1634 22.6159L34.0546 22.8422Z" fill="#6C63FF"/>
<path d="M48.072 14.5222L39.364 21.4602L39.4926 21.6587L48.2007 14.7207L48.072 14.5222Z" fill="#3F3D56"/>
<path d="M39.2485 24.057L39.0646 24.1918L50.493 43.3497L50.6769 43.2149L39.2485 24.057Z" fill="#3F3D56"/>
<path d="M61.1306 36.2432L51.8811 43.7887L52.0119 43.9857L61.2613 36.4402L61.1306 36.2432Z" fill="#3F3D56"/>
<path d="M49.7231 14.8528L49.5422 14.9924L61.3787 33.8485L61.5597 33.7089L49.7231 14.8528Z" fill="#3F3D56"/>
<path d="M46.0669 11.1527L35.3011 22.1078L35.393 22.2189L46.1588 11.2638L46.0669 11.1527Z" fill="#3F3D56"/>
<path d="M46.9637 11.2466L35.7121 22.26L35.8021 22.3732L47.0538 11.3598L46.9637 11.2466Z" fill="#3F3D56"/>
<path d="M47.6676 11.4661L35.9873 22.261L36.0745 22.3769L47.7547 11.582L47.6676 11.4661Z" fill="#3F3D56"/>
</svg>
